<?xml version="1.0" standalone="no"?>
<!DOCTYPE svg PUBLIC "-//W3C//DTD SVG 1.1//EN" "http://www.w3.org/Graphics/SVG/1.1/DTD/svg11.dtd" >
<svg xmlns="http://www.w3.org/2000/svg" xmlns:xlink="http://www.w3.org/1999/xlink" version="1.1">
<metadata>
Created by FontForge 20170731 at Thu Dec 20 16:31:19 2018
 By Aleksey,,,
Copyright (c) 2018 ParaType Inc., ParaType Ltd. All rights reserved.
</metadata>
<defs>
<font id="PTRootUI-Regular" horiz-adv-x="590" >
  <font-face 
    font-family="PT Root UI"
    font-weight="400"
    font-stretch="normal"
    units-per-em="1000"
    panose-1="2 11 3 3 2 2 2 2 2 4"
    ascent="772"
    descent="-228"
    x-height="500"
    cap-height="700"
    bbox="-391 -267 1650 988"
    underline-thickness="50"
    underline-position="-200"
    unicode-range="U+0020-FEFF"
  />
<missing-glyph horiz-adv-x="650" 
d="M80 0v700h490v-700h-490zM358 350l156 -259v518zM291 349l-155 259v-518zM178 650l147 -245l147 245h-294zM324 294l-147 -244h294z" />
    <glyph glyph-name="afii10017.var.accented" unicode="&#x410;`" horiz-adv-x="650" 
d="M551 0l-75 203h-305l-74 -203h-72l260 700h80l260 -700h-74zM266 460l-71 -193h258l-71 193l-58 160zM289 760l114 150h86l-128 -150h-72z" />
    <glyph glyph-name="afii10022.var.accented" unicode="&#x415;`" horiz-adv-x="560" 
d="M90 0v700h420v-64h-350v-244h290v-64h-290v-264h350v-64h-420zM264 760l114 150h86l-128 -150h-72z" />
    <glyph glyph-name="afii10026.var.accented" unicode="&#x418;`" horiz-adv-x="710" 
d="M551 0v626l-59 -106l-306 -520h-96v700h70v-625l58 105l306 520h96v-700h-69zM319 760l114 150h86l-128 -150h-72z" />
    <glyph glyph-name="afii10032.var.accented" unicode="&#x41e;`" horiz-adv-x="710" 
d="M355 -7q-129 0 -209.5 87.5t-80.5 237.5v64q0 149 81 237t209 88q129 0 209.5 -87.5t80.5 -237.5v-64q0 -149 -81 -237t-209 -88zM355 59q96 0 157 69t61 190v64q0 120 -61.5 189.5t-156.5 69.5q-96 0 -157 -69t-61 -190v-64q0 -120 61.5 -189.5t156.5 -69.5zM319 760
l114 150h86l-128 -150h-72z" />
    <glyph glyph-name="afii10037.var.accented" unicode="&#x423;`" horiz-adv-x="610" 
d="M195 0l88 200l-253 500h78l212 -425l184 425h76l-309 -700h-76zM270 760l114 150h86l-128 -150h-72z" />
    <glyph glyph-name="afii10045.var.accented" unicode="&#x42b;`" horiz-adv-x="830" 
d="M90 0v700h70v-266h145q125 0 187.5 -56.5t62.5 -160.5q0 -217 -250 -217h-215zM305 370h-145v-306h145q92 0 135 38.5t43 114.5q0 153 -178 153zM670 0v700h70v-700h-70zM379 760l114 150h86l-128 -150h-72z" />
    <glyph glyph-name="afii10047.var.accented" unicode="&#x42d;`" horiz-adv-x="670" 
d="M235 323v64h298q0 118 -60 186t-153 68q-73 0 -123 -39.5t-66 -96.5h-76q16 84 87.5 143t177.5 59q126 0 205.5 -86.5t79.5 -233.5v-64q0 -153 -79.5 -241.5t-205.5 -88.5q-107 0 -178 63t-87 159h76q16 -69 66 -112.5t123 -43.5q95 0 154 69t59 195h-298zM284 760
l114 150h86l-128 -150h-72z" />
    <glyph glyph-name="afii10048.var.accented" unicode="&#x42e;`" horiz-adv-x="905" 
d="M565 -7q-127 0 -201 85.5t-74 249.5h-130v-328h-70v700h70v-308h130q0 150 74.5 232.5t200.5 82.5t200.5 -82t74.5 -233v-64q0 -164 -74 -249.5t-201 -85.5zM565 59q92 0 147.5 68t55.5 201v64q0 119 -56 184t-147 65t-147 -64.5t-56 -184.5v-64q0 -132 55.5 -200.5
t147.5 -68.5zM429 760l114 150h86l-128 -150h-72z" />
    <glyph glyph-name="afii10049.var.accented" unicode="&#x42f;`" horiz-adv-x="620" 
d="M40 0l168 298q-148 40 -148 195q0 99 62.5 153t187.5 54h220v-700h-70v286h-150q-23 0 -34 1l-160 -287h-76zM132 493q0 -68 44 -105.5t134 -37.5h150v286h-150q-90 0 -134 -37.5t-44 -105.5zM294 760l114 150h86l-128 -150h-72z" />
    <glyph glyph-name="afii10023.var.accented" unicode="&#x401;`" horiz-adv-x="560" 
d="M90 0v700h420v-64h-350v-244h290v-64h-290v-264h350v-64h-420zM172 788q-20 0 -33.5 14t-13.5 33t13.5 33t33.5 14t33.5 -14t13.5 -33t-13.5 -33t-33.5 -14zM428 788q-20 0 -33.5 14t-13.5 33t13.5 33t33.5 14t33.5 -14t13.5 -33t-13.5 -33t-33.5 -14zM220 760l82 150h78
l-94 -150h-66z" />
    <glyph glyph-name="afii10065.var.accented" unicode="&#x430;`" horiz-adv-x="520" 
d="M205 -7q-74 0 -114.5 38.5t-40.5 106.5q0 157 210 157h114v45q0 55 -27 80t-87 25q-106 0 -114 -80h-71q4 64 51 103t134 39q88 0 134 -43.5t46 -123.5v-340h-51l-10 94q-26 -47 -72 -74t-102 -27zM210 55q68 0 116 46.5t48 110.5v23h-114q-142 0 -142 -97q0 -39 24 -61
t68 -22zM220 560l118 150h82l-130 -150h-70z" />
    <glyph glyph-name="afii10070.var.accented" unicode="&#x435;`" horiz-adv-x="540" 
d="M270 -7q-100 0 -157.5 61.5t-57.5 173.5v44q0 111 58 173t157 62t157 -62t58 -173v-41h-362v-3q0 -84 39.5 -128.5t107.5 -44.5q107 0 142 91h68q-16 -69 -69 -111t-141 -42zM270 445q-65 0 -104 -40.5t-43 -115.5h293q-4 76 -42.5 116t-103.5 40zM235 560l118 150h82
l-130 -150h-70z" />
    <glyph glyph-name="afii10074.var.accented" unicode="&#x438;`" horiz-adv-x="580" 
d="M429 0v424l-62 -104l-200 -320h-82v500h66v-425l62 105l200 320h82v-500h-66zM255 560l118 150h82l-130 -150h-70z" />
    <glyph glyph-name="afii10080.var.accented" unicode="&#x43e;`" horiz-adv-x="550" 
d="M275 -7q-101 0 -160.5 62.5t-59.5 172.5v44q0 109 60 172t160 63q101 0 160.5 -62.5t59.5 -172.5v-44q0 -109 -60 -172t-160 -63zM275 55q69 0 110.5 45.5t41.5 127.5v44q0 81 -42 127t-110 46q-69 0 -110.5 -45.5t-41.5 -127.5v-44q0 -81 42 -127t110 -46zM240 560
l118 150h82l-130 -150h-70z" />
    <glyph glyph-name="afii10085.var.accented" unicode="&#x443;`" horiz-adv-x="520" 
d="M155 -200l77 200l-207 500h74l169 -418l157 418h70l-270 -700h-70zM227 560l118 150h82l-130 -150h-70z" />
    <glyph glyph-name="afii10093.var.accented" unicode="&#x44b;`" horiz-adv-x="710" 
d="M85 0v500h66v-180h111q103 0 153 -42t50 -118q0 -75 -51 -117.5t-152 -42.5h-177zM262 260h-111v-200h111q135 0 135 100t-135 100zM559 0v500h66v-500h-66zM320 560l118 150h82l-130 -150h-70z" />
    <glyph glyph-name="afii10095.var.accented" unicode="&#x44d;`" horiz-adv-x="505" 
d="M180 225v60h202q-2 74 -43 117t-104 43q-90 0 -125 -80h-70q16 63 66 102.5t129 39.5q97 0 156 -63t59 -167v-44q0 -112 -59 -176t-156 -64q-80 0 -129.5 41.5t-65.5 110.5h70q32 -90 125 -90q64 0 104.5 44.5t42.5 125.5h-202zM199 560l118 150h82l-130 -150h-70z" />
    <glyph glyph-name="afii10096.var.accented" unicode="&#x44e;`" horiz-adv-x="740" 
d="M474 -7q-95 0 -152.5 61.5t-58.5 170.5h-112v-225h-66v500h66v-215h112q4 104 61.5 163t149.5 59q95 0 153 -62.5t58 -172.5v-44q0 -109 -58 -172t-153 -63zM474 55q64 0 103.5 45t39.5 128v44q0 82 -40 127.5t-103 45.5q-64 0 -103.5 -45t-39.5 -128v-44
q0 -82 40 -127.5t103 -45.5zM350 560l118 150h82l-130 -150h-70z" />
    <glyph glyph-name="afii10097.var.accented" unicode="&#x44f;`" horiz-adv-x="510" 
d="M55 343q0 157 205 157h165v-500h-66v186h-99q-33 0 -48 2l-101 -188h-76l112 202q-92 34 -92 141zM123 343q0 -49 31 -73t106 -24h99v194h-99q-75 0 -106 -24t-31 -73zM235 560l118 150h82l-130 -150h-70z" />
    <glyph glyph-name="afii10071.var.accented" unicode="&#x451;`" horiz-adv-x="540" 
d="M270 -7q-100 0 -157.5 61.5t-57.5 173.5v44q0 111 58 173t157 62t157 -62t58 -173v-41h-362v-3q0 -84 39.5 -128.5t107.5 -44.5q107 0 142 91h68q-16 -69 -69 -111t-141 -42zM270 445q-65 0 -104 -40.5t-43 -115.5h293q-4 76 -42.5 116t-103.5 40zM172 578
q-20 0 -33.5 14t-13.5 33t13.5 33t33.5 14t33.5 -14t13.5 -33t-13.5 -33t-33.5 -14zM368 578q-20 0 -33.5 14t-13.5 33t13.5 33t33.5 14t33.5 -14t13.5 -33t-13.5 -33t-33.5 -14zM235 680l100 130h80l-110 -130h-70z" />
    <glyph glyph-name=".notdef" horiz-adv-x="650" 
d="M80 0v700h490v-700h-490zM358 350l156 -259v518zM291 349l-155 259v-518zM178 650l147 -245l147 245h-294zM324 294l-147 -244h294z" />
    <glyph glyph-name=".null" horiz-adv-x="0" 
 />
    <glyph glyph-name="nonmarkingreturn" horiz-adv-x="333" 
 />
    <glyph glyph-name="space" unicode=" " horiz-adv-x="250" 
 />
    <glyph glyph-name="exclam" unicode="!" horiz-adv-x="300" 
d="M150 -7q-24 0 -39.5 16t-15.5 39t15.5 39t39.5 16t39.5 -16t15.5 -39t-15.5 -39t-39.5 -16zM115 200v500h70v-500h-70z" />
    <glyph glyph-name="quotedbl" unicode="&#x22;" horiz-adv-x="400" 
d="M265 460v240h70v-240h-70zM65 460v240h70v-240h-70z" />
    <glyph glyph-name="numbersign" unicode="#" 
d="M310 0l37 210h-155l-37 -210h-64l37 210h-103l12 60h102l32 180h-103l11 60h103l34 190h64l-34 -190h155l34 190h64l-34 -190h100l-11 -60h-100l-32 -180h100l-11 -60h-100l-37 -210h-64zM235 450l-32 -180h155l32 180h-155z" />
    <glyph glyph-name="dollar" unicode="$" horiz-adv-x="610" 
d="M274 -100v95q-200 13 -214 220h72q7 -73 41 -110.5t101 -44.5v273q-37 10 -61.5 19t-54 25t-47 34.5t-29.5 48t-12 65.5q0 74 53 123.5t151 56.5v95h62v-94q188 -14 204 -201h-72q-9 62 -40 95t-92 39v-252q39 -11 63.5 -19.5t56.5 -25.5t50 -36.5t31 -50.5t13 -70
q0 -82 -54.5 -133t-159.5 -58v-94h-62zM478 185q0 52 -36.5 80.5t-105.5 49.5v-255q70 7 106 40.5t36 84.5zM142 525q0 -47 34 -73.5t98 -46.5v234q-65 -6 -98.5 -37t-33.5 -77z" />
    <glyph glyph-name="percent" unicode="%" horiz-adv-x="900" 
d="M210 343q-71 0 -115.5 45t-44.5 117v40q0 72 44.5 117t115.5 45t115.5 -45t44.5 -117v-40q0 -72 -44.5 -117t-115.5 -45zM210 401q42 0 69 28.5t27 75.5v40q0 47 -27 75.5t-69 28.5t-69 -28.5t-27 -75.5v-40q0 -47 27 -75.5t69 -28.5zM690 -7q-71 0 -115.5 45t-44.5 117
v40q0 72 44.5 117t115.5 45t115.5 -45t44.5 -117v-40q0 -72 -44.5 -117t-115.5 -45zM690 51q42 0 69 28.5t27 75.5v40q0 47 -27 75.5t-69 28.5t-69 -28.5t-27 -75.5v-40q0 -47 27 -75.5t69 -28.5zM210 0l406 700h74l-406 -700h-74z" />
    <glyph glyph-name="ampersand" unicode="&#x26;" horiz-adv-x="640" 
d="M551 0l-76 78q-80 -85 -200 -85q-97 0 -156 53.5t-59 136.5q0 56 26.5 101.5t97.5 96.5q-55 60 -73 98t-18 83q0 63 44 104t118 41q72 0 116 -41t44 -104q0 -49 -26 -92.5t-105 -98.5l182 -189q31 65 31 148h68q0 -114 -50 -199l125 -131h-89zM275 55q93 0 155 71
l-201 208q-60 -43 -80.5 -76.5t-20.5 -74.5q0 -57 39.5 -92.5t107.5 -35.5zM161 562q0 -35 15.5 -63.5t62.5 -79.5q69 47 88.5 77t19.5 66t-25.5 59.5t-66.5 23.5q-43 0 -68.5 -23.5t-25.5 -59.5z" />
    <glyph glyph-name="quotesingle" unicode="'" horiz-adv-x="200" 
d="M65 460v240h70v-240h-70z" />
    <glyph glyph-name="parenleft" unicode="(" horiz-adv-x="400" 
d="M90 250q0 78 19 153.5t46.5 126.5t55 91.5t46.5 59.5l19 19h84q-8 -7 -21.5 -20t-47.5 -57.5t-60 -93t-47.5 -125t-21.5 -154.5t20.5 -153.5t49.5 -126.5t58 -91.5t50 -59.5l20 -19h-86q-7 7 -19.5 20t-44.5 57.5t-56 93t-44 125t-20 154.5z" />
    <glyph glyph-name="parenright" unicode=")" horiz-adv-x="400" 
d="M310 250q0 -78 -19 -153.5t-46.5 -126.5t-55 -91.5t-46.5 -59.5l-19 -19h-84q8 7 21.5 20t47.5 57.5t60 93t47.5 125t21.5 154.5t-20.5 153.5t-49.5 126.5t-58 91.5t-50 59.5l-20 19h86q7 -7 19.5 -20t44.5 -57.5t56 -93t44 -125t20 -154.5z" />
    <glyph glyph-name="asterisk" unicode="*" horiz-adv-x="390" 
d="M25 523v48h129l-64 113l40 23l64 -113l65 113l41 -23l-65 -113h130v-48h-129l64 -112l-41 -24l-64 113l-65 -113l-40 24l64 112h-129z" />
    <glyph glyph-name="plus" unicode="+" 
d="M75 328v64h185v188h70v-188h185v-64h-185v-188h-70v188h-185z" />
    <glyph glyph-name="comma" unicode="," horiz-adv-x="250" 
d="M45 -150l50 235h80l-75 -235h-55z" />
    <glyph glyph-name="hyphen" unicode="-" horiz-adv-x="400" 
d="M50 228v64h300v-64h-300z" />
    <glyph glyph-name="period" unicode="." horiz-adv-x="250" 
d="M125 -7q-24 0 -39.5 16t-15.5 39t15.5 39t39.5 16t39.5 -16t15.5 -39t-15.5 -39t-39.5 -16z" />
    <glyph glyph-name="slash" unicode="/" horiz-adv-x="450" 
d="M25 -200l328 900h72l-328 -900h-72z" />
    <glyph glyph-name="zero" unicode="0" horiz-adv-x="610" 
d="M305 -7q-230 0 -230 325v64q0 325 230 325t230 -325v-64q0 -325 -230 -325zM305 59q78 0 118 59t40 200v64q0 141 -40.5 200t-117.5 59q-78 0 -118 -59t-40 -200v-64q0 -141 40.5 -200t117.5 -59z" />
    <glyph glyph-name="one" unicode="1" horiz-adv-x="350" 
d="M30 519v78l150 103h70v-700h-70v621z" />
    <glyph glyph-name="two" unicode="2" horiz-adv-x="550" 
d="M45 0v64l248 246q73 73 101.5 113t28.5 82q0 60 -42 98t-111 38t-111 -38t-42 -98h-72q0 88 62 145t163 57t163 -57t62 -145q0 -54 -36 -107.5t-113 -128.5l-211 -205h360v-64h-450z" />
    <glyph glyph-name="three" unicode="3" horiz-adv-x="580" 
d="M285 -7q-104 0 -164.5 59t-65.5 163h72q5 -75 45.5 -115.5t112.5 -40.5q76 0 117 37t41 99q0 60 -40 96.5t-109 36.5h-94v64h94q62 0 98 34.5t36 89.5q0 57 -37.5 91t-105.5 34q-62 0 -99 -36t-44 -100h-72q5 92 62 147t153 55q101 0 158 -52.5t57 -138.5
q0 -51 -24.5 -92t-70.5 -63q53 -22 81.5 -66t28.5 -100q0 -91 -61 -146.5t-169 -55.5z" />
    <glyph glyph-name="four" unicode="4" horiz-adv-x="565" 
d="M25 168v64l328 468h87v-468h95v-64h-95v-168h-70v168h-345zM102 232h268v387z" />
    <glyph glyph-name="five" unicode="5" horiz-adv-x="565" 
d="M75 320l30 380h365v-64h-301l-19 -232q55 57 145 57q97 0 158.5 -64.5t61.5 -169.5t-63.5 -169.5t-166.5 -64.5q-88 0 -149.5 44t-80.5 125h74q36 -103 156 -103q72 0 115 45t43 123q0 79 -42.5 123.5t-115.5 44.5q-47 0 -84 -21.5t-57 -53.5h-69z" />
    <glyph glyph-name="six" unicode="6" horiz-adv-x="595" 
d="M305 -7q-109 0 -169.5 73t-60.5 222v64q0 185 62.5 270t172.5 85q76 0 127 -43t67 -109h-74q-35 85 -120 85q-78 0 -120.5 -58t-46.5 -197q57 82 167 82q92 0 153.5 -63.5t61.5 -161.5v-24q0 -99 -62 -162t-158 -63zM305 401q-71 0 -113.5 -39.5t-44.5 -103.5v-30
q0 -80 42.5 -124.5t115.5 -44.5q66 0 107 43t41 116v24q0 73 -41 116t-107 43z" />
    <glyph glyph-name="seven" unicode="7" horiz-adv-x="480" 
d="M20 636v64h440v-64l-261 -636h-74l262 636h-367z" />
    <glyph glyph-name="eight" unicode="8" 
d="M295 -7q-108 0 -169 54.5t-61 142.5q0 61 32.5 106t90.5 69q-103 47 -103 157q0 78 59 131.5t151 53.5q94 0 152 -52t58 -133q0 -108 -105 -156q59 -25 92 -70t33 -106q0 -85 -62.5 -141t-167.5 -56zM295 59q72 0 115 38t43 93q0 62 -45.5 101.5t-112.5 44.5
q-70 -5 -114 -43.5t-44 -102.5q0 -55 43 -93t115 -38zM295 394q58 6 98 38t40 90q0 49 -38 84t-100 35t-100 -35t-38 -84q0 -55 41 -88.5t97 -39.5z" />
    <glyph glyph-name="nine" unicode="9" horiz-adv-x="595" 
d="M290 -7q-80 0 -131.5 42.5t-67.5 109.5h74q35 -85 125 -85q75 0 116 58t45 196q-57 -81 -166 -81q-92 0 -153.5 63.5t-61.5 161.5v24q0 99 62 162t158 63q109 0 169.5 -73t60.5 -222v-64q0 -184 -62 -269.5t-168 -85.5zM290 299q70 0 113 39t45 103v31q0 80 -42.5 124.5
t-115.5 44.5q-66 0 -107 -43t-41 -116v-24q0 -73 41 -116t107 -43z" />
    <glyph glyph-name="colon" unicode=":" horiz-adv-x="250" 
d="M125 397q-24 0 -39.5 16t-15.5 39t15.5 39t39.5 16t39.5 -16t15.5 -39t-15.5 -39t-39.5 -16zM125 -7q-24 0 -39.5 16t-15.5 39t15.5 39t39.5 16t39.5 -16t15.5 -39t-15.5 -39t-39.5 -16z" />
    <glyph glyph-name="semicolon" unicode=";" horiz-adv-x="250" 
d="M35 -150l50 235h80l-75 -235h-55zM125 397q-24 0 -39.5 16t-15.5 39t15.5 39t39.5 16t39.5 -16t15.5 -39t-15.5 -39t-39.5 -16z" />
    <glyph glyph-name="less" unicode="&#x3c;" 
d="M515 528l-364 -168l364 -166v-74l-440 203v74l440 203v-72z" />
    <glyph glyph-name="equal" unicode="=" 
d="M75 428v64h440v-64h-440zM75 228v64h440v-64h-440z" />
    <glyph glyph-name="greater" unicode="&#x3e;" 
d="M75 192l364 168l-364 166v74l440 -203v-74l-440 -203v72z" />
    <glyph glyph-name="question" unicode="?" horiz-adv-x="500" 
d="M210 190q0 62 18.5 105.5t44.5 66.5t52 42.5t44.5 47.5t18.5 68q0 55 -37.5 88t-105.5 33q-65 0 -102 -34.5t-41 -96.5h-72q4 91 60.5 144t154.5 53q102 0 158.5 -51t56.5 -136q0 -51 -18.5 -86.5t-45 -56.5t-53 -42.5t-45 -57.5t-18.5 -87h-70zM245 -7q-24 0 -39.5 16
t-15.5 39t15.5 39t39.5 16t39.5 -16t15.5 -39t-15.5 -39t-39.5 -16z" />
    <glyph glyph-name="at" unicode="@" horiz-adv-x="1050" 
d="M525 -207q-126 0 -232 61t-167 166t-61 230q0 190 134 323.5t326 133.5q203 0 331.5 -118t128.5 -289q0 -131 -66 -206.5t-166 -75.5q-53 0 -86.5 23t-42.5 63q-62 -86 -168 -86q-71 0 -114 45.5t-43 123.5q0 22 12 85q16 92 77 151t144 59q96 0 134 -70l11 63h66
l-53 -302q-3 -13 -3 -25q0 -68 66 -68t115 60t49 160q0 148 -108 246.5t-284 98.5q-166 0 -279 -114t-113 -281q0 -168 112.5 -281.5t279.5 -113.5q132 0 230 40v-66q-89 -36 -230 -36zM476 80q60 0 101.5 40t54.5 108t13 85q0 48 -31 77.5t-82 29.5q-59 0 -100.5 -40
t-53.5 -108q-11 -62 -11 -85q0 -50 28 -78.5t81 -28.5z" />
    <glyph glyph-name="A" unicode="A" horiz-adv-x="650" 
d="M551 0l-75 203h-305l-74 -203h-72l260 700h80l260 -700h-74zM266 460l-71 -193h258l-71 193l-58 160z" />
    <glyph glyph-name="B" unicode="B" horiz-adv-x="620" 
d="M90 0v700h215q235 0 235 -186q0 -106 -96 -150q116 -43 116 -168q0 -196 -235 -196h-235zM325 328h-165v-264h165q86 0 124.5 33t38.5 99t-38.5 99t-124.5 33zM305 636h-145v-244h145q163 0 163 122t-163 122z" />
    <glyph glyph-name="C" unicode="C" horiz-adv-x="670" 
d="M350 -7q-126 0 -205.5 87t-79.5 238v64q0 150 79.5 237.5t205.5 87.5q106 0 177.5 -59t87.5 -143h-76q-16 57 -66 96.5t-123 39.5q-94 0 -153.5 -68t-59.5 -191v-64q0 -122 59.5 -190.5t153.5 -68.5q73 0 123 43.5t66 112.5h76q-16 -96 -87 -159t-178 -63z" />
    <glyph glyph-name="D" unicode="D" horiz-adv-x="680" 
d="M90 0v700h210q150 0 232.5 -83t82.5 -235v-64q0 -151 -83 -234.5t-232 -83.5h-210zM300 636h-140v-572h140q118 0 180.5 64.5t62.5 189.5v64q0 124 -63 189t-180 65z" />
    <glyph glyph-name="E" unicode="E" horiz-adv-x="560" 
d="M90 0v700h420v-64h-350v-244h290v-64h-290v-264h350v-64h-420z" />
    <glyph glyph-name="F" unicode="F" horiz-adv-x="540" 
d="M90 0v700h420v-64h-350v-244h290v-64h-290v-328h-70z" />
    <glyph glyph-name="G" unicode="G" horiz-adv-x="680" 
d="M340 279v64h275v-33q0 -151 -73 -234t-192 -83q-128 0 -206.5 86.5t-78.5 238.5v64q0 151 79.5 238t205.5 87q105 0 174 -58t85 -144h-74q-16 59 -64 97.5t-121 38.5q-95 0 -154 -68.5t-59 -190.5v-64q0 -121 60 -190t153 -69q90 0 141.5 54.5t58.5 165.5h-210z" />
    <glyph glyph-name="H" unicode="H" horiz-adv-x="710" 
d="M550 0v328h-390v-328h-70v700h70v-308h390v308h70v-700h-70z" />
    <glyph glyph-name="I" unicode="I" horiz-adv-x="270" 
d="M100 0v700h70v-700h-70z" />
    <glyph glyph-name="J" unicode="J" horiz-adv-x="535" 
d="M240 -7q-93 0 -147.5 58.5t-62.5 163.5h70q4 -76 40.5 -116t99.5 -40q140 0 140 191v450h70v-450q0 -127 -56 -192t-154 -65z" />
    <glyph glyph-name="K" unicode="K" horiz-adv-x="635" 
d="M514 0l-250 339l-104 -118v-221h-70v700h70v-390l334 390h86l-268 -310l288 -390h-86z" />
    <glyph glyph-name="L" unicode="L" horiz-adv-x="515" 
d="M90 0v700h70v-636h330v-64h-400z" />
    <glyph glyph-name="M" unicode="M" horiz-adv-x="810" 
d="M370 205l-165 315l-45 97v-617h-70v700h94l222 -424l222 424h92v-700h-70v617l-45 -97l-165 -315h-70z" />
    <glyph glyph-name="N" unicode="N" horiz-adv-x="710" 
d="M522 0l-306 520l-56 103v-623h-70v700h98l306 -520l56 -103v623h70v-700h-98z" />
    <glyph glyph-name="O" unicode="O" horiz-adv-x="710" 
d="M355 -7q-129 0 -209.5 87.5t-80.5 237.5v64q0 149 81 237t209 88q129 0 209.5 -87.5t80.5 -237.5v-64q0 -149 -81 -237t-209 -88zM355 59q96 0 157 69t61 190v64q0 120 -61.5 189.5t-156.5 69.5q-96 0 -157 -69t-61 -190v-64q0 -120 61.5 -189.5t156.5 -69.5z" />
    <glyph glyph-name="P" unicode="P" horiz-adv-x="600" 
d="M90 0v700h220q250 0 250 -217q0 -104 -62.5 -160.5t-187.5 -56.5h-150v-266h-70zM310 636h-150v-306h150q178 0 178 153q0 76 -43 114.5t-135 38.5z" />
    <glyph glyph-name="Q" unicode="Q" horiz-adv-x="710" 
d="M355 -7q-129 0 -209.5 87.5t-80.5 237.5v64q0 149 81 237t209 88q129 0 209.5 -87.5t80.5 -237.5v-64q0 -159 -93 -249l93 -119h-82l-63 80q-65 -37 -145 -37zM355 59q57 0 103 25l-103 131h82l71 -91q65 70 65 194v64q0 120 -61.5 189.5t-156.5 69.5q-96 0 -157 -69
t-61 -190v-64q0 -120 61.5 -189.5t156.5 -69.5z" />
    <glyph glyph-name="R" unicode="R" horiz-adv-x="620" 
d="M502 0l-151 288q-26 -2 -41 -2h-150v-286h-70v700h220q125 0 187.5 -54t62.5 -153q0 -150 -140 -193l160 -300h-78zM310 636h-150v-286h150q90 0 134 37.5t44 105.5t-44 105.5t-134 37.5z" />
    <glyph glyph-name="S" unicode="S" horiz-adv-x="610" 
d="M305 -7q-230 0 -245 222h74q8 -80 49 -118t122 -38q85 0 129 35t44 91q0 45 -30 74.5t-75.5 43t-98.5 30.5t-98.5 35t-75.5 58t-30 99q0 80 61.5 131t173.5 51q219 0 235 -202h-74q-9 69 -46.5 102.5t-114.5 33.5q-80 0 -121.5 -32t-41.5 -84q0 -37 22.5 -62t58.5 -39.5
t79.5 -26t87 -26.5t79.5 -36t58.5 -59t22.5 -91q0 -88 -62.5 -140t-182.5 -52z" />
    <glyph glyph-name="T" unicode="T" horiz-adv-x="580" 
d="M25 636v64h530v-64h-230v-636h-70v636h-230z" />
    <glyph glyph-name="U" unicode="U" horiz-adv-x="690" 
d="M345 -7q-120 0 -190 74t-70 208v425h70v-425q0 -103 51.5 -159.5t138.5 -56.5q89 0 139.5 55.5t50.5 160.5v425h70v-425q0 -133 -70.5 -207.5t-189.5 -74.5z" />
    <glyph glyph-name="V" unicode="V" horiz-adv-x="660" 
d="M300 0l-270 700h76l235 -618l217 618h72l-250 -700h-80z" />
    <glyph glyph-name="W" unicode="W" horiz-adv-x="970" 
d="M655 0l-171 617l-159 -617h-90l-195 700h72l168 -617l160 617h90l170 -618l160 618h70l-185 -700h-90z" />
    <glyph glyph-name="X" unicode="X" horiz-adv-x="650" 
d="M529 0l-206 306l-204 -306h-84l246 363l-226 337h85l186 -277l186 277h83l-226 -333l246 -367h-86z" />
    <glyph glyph-name="Y" unicode="Y" horiz-adv-x="650" 
d="M295 0v255l-265 445h78l222 -374l214 374h76l-255 -445v-255h-70z" />
    <glyph glyph-name="Z" unicode="Z" horiz-adv-x="585" 
d="M60 636v64h480v-64l-411 -572h411v-64h-490v64l411 572h-401z" />
    <glyph glyph-name="bracketleft" unicode="[" horiz-adv-x="400" 
d="M120 -200v900h230v-64h-160v-772h160v-64h-230z" />
    <glyph glyph-name="backslash" unicode="\" horiz-adv-x="450" 
d="M351 -200l-326 900h74l326 -900h-74z" />
    <glyph glyph-name="bracketright" unicode="]" horiz-adv-x="400" 
d="M280 700v-900h-230v64h160v772h-160v64h230z" />
    <glyph glyph-name="asciicircum" unicode="^" 
d="M432 400l-141 240l-135 -240h-76l170 300h80l180 -300h-78z" />
    <glyph glyph-name="underscore" unicode="_" 
d="M0 -132v64h590v-64h-590z" />
    <glyph glyph-name="grave" unicode="`" horiz-adv-x="250" 
d="M155 560l-130 150h82l118 -150h-70z" />
    <glyph glyph-name="a" unicode="a" horiz-adv-x="520" 
d="M205 -7q-74 0 -114.5 38.5t-40.5 106.5q0 157 210 157h114v45q0 55 -27 80t-87 25q-106 0 -114 -80h-71q4 64 51 103t134 39q88 0 134 -43.5t46 -123.5v-340h-51l-10 94q-26 -47 -72 -74t-102 -27zM210 55q68 0 116 46.5t48 110.5v23h-114q-142 0 -142 -97q0 -39 24 -61
t68 -22z" />
    <glyph glyph-name="b" unicode="b" horiz-adv-x="560" 
d="M309 -7q-114 0 -165 91l-8 -84h-51v700h66v-273q51 80 158 80q89 0 142.5 -61t53.5 -174v-44q0 -112 -54 -173.5t-142 -61.5zM294 55q66 0 104.5 44t38.5 129v44q0 84 -38.5 128.5t-104.5 44.5q-62 0 -101.5 -43.5t-41.5 -121.5v-52q0 -82 40 -127.5t103 -45.5z" />
    <glyph glyph-name="c" unicode="c" horiz-adv-x="505" 
d="M270 -7q-97 0 -156 62.5t-59 172.5v44q0 109 59 172t156 63q79 0 129 -39.5t66 -102.5h-70q-35 80 -125 80q-65 0 -106 -46t-41 -127v-44q0 -81 41 -127t106 -46q93 0 125 90h70q-16 -69 -65.5 -110.5t-129.5 -41.5z" />
    <glyph glyph-name="d" unicode="d" horiz-adv-x="560" 
d="M251 -7q-89 0 -142.5 61t-53.5 174v44q0 112 54 173.5t142 61.5q107 0 158 -80v273h66v-700h-51l-9 84q-49 -91 -164 -91zM266 55q63 0 103 45.5t40 127.5v52q-2 78 -41.5 121.5t-101.5 43.5q-66 0 -104.5 -44t-38.5 -129v-44q0 -84 38.5 -128.5t104.5 -44.5z" />
    <glyph glyph-name="e" unicode="e" horiz-adv-x="540" 
d="M270 -7q-100 0 -157.5 61.5t-57.5 173.5v44q0 111 58 173t157 62t157 -62t58 -173v-41h-362v-3q0 -84 39.5 -128.5t107.5 -44.5q107 0 142 91h68q-16 -69 -69 -111t-141 -42zM270 445q-65 0 -104 -40.5t-43 -115.5h293q-4 76 -42.5 116t-103.5 40z" />
    <glyph glyph-name="f" unicode="f" horiz-adv-x="335" 
d="M30 440v60h90v68q0 64 34 98t98 34h78v-60h-70q-74 0 -74 -80v-60h124v-60h-124v-440h-66v440h-90z" />
    <glyph glyph-name="g" unicode="g" horiz-adv-x="560" 
d="M251 13q-89 0 -142.5 59t-53.5 166v44q0 105 54.5 165t141.5 60q115 0 165 -89l8 82h51v-500q0 -99 -53 -153t-149 -54q-177 0 -193 152h66q8 -45 37 -67.5t90 -22.5q69 0 102.5 35.5t33.5 109.5v91q-51 -78 -158 -78zM266 75q62 0 101.5 42t41.5 113v59q-2 73 -41 114.5
t-102 41.5q-66 0 -104.5 -42.5t-38.5 -120.5v-44q0 -77 39 -120t104 -43z" />
    <glyph glyph-name="h" unicode="h" horiz-adv-x="575" 
d="M85 0v700h66v-276q50 83 159 83q87 0 136 -53.5t49 -153.5v-300h-66v300q0 72 -33.5 108.5t-95.5 36.5q-65 0 -106 -38.5t-43 -100.5v-306h-66z" />
    <glyph glyph-name="i" unicode="i" horiz-adv-x="256" 
d="M95 0v500h66v-500h-66zM128 588q-20 0 -33.5 14t-13.5 33t13.5 33t33.5 14t33.5 -14t13.5 -33t-13.5 -33t-33.5 -14z" />
    <glyph glyph-name="j" unicode="j" horiz-adv-x="256" 
d="M-19 -200v60h34q42 0 61 25t19 85v530h66v-530q0 -92 -35 -131t-111 -39h-34zM128 588q-20 0 -33.5 14t-13.5 33t13.5 33t33.5 14t33.5 -14t13.5 -33t-13.5 -33t-33.5 -14z" />
    <glyph glyph-name="k" unicode="k" horiz-adv-x="510" 
d="M403 0l-164 233l-88 -104v-129h-66v700h66v-481l232 281h82l-182 -219l202 -281h-82z" />
    <glyph glyph-name="l" unicode="l" horiz-adv-x="285" 
d="M215 0q-63 0 -96.5 34t-33.5 98v568h66v-560q0 -80 72 -80h32v-60h-40z" />
    <glyph glyph-name="m" unicode="m" horiz-adv-x="875" 
d="M85 0v500h51l8 -82q50 89 155 89q113 0 155 -100q23 48 66.5 74t100.5 26q79 0 126.5 -53.5t47.5 -153.5v-300h-66v300q0 71 -33 108t-90 37q-55 0 -93 -39t-40 -100v-6v-300h-66v300q0 71 -33 108t-90 37q-55 0 -93 -39t-40 -100v-306h-66z" />
    <glyph glyph-name="n" unicode="n" horiz-adv-x="575" 
d="M85 0v500h51l8 -82q52 89 166 89q87 0 136 -53.5t49 -153.5v-300h-66v300q0 72 -33.5 108.5t-95.5 36.5q-66 0 -106.5 -38t-42.5 -101v-306h-66z" />
    <glyph glyph-name="o" unicode="o" horiz-adv-x="550" 
d="M275 -7q-101 0 -160.5 62.5t-59.5 172.5v44q0 109 60 172t160 63q101 0 160.5 -62.5t59.5 -172.5v-44q0 -109 -60 -172t-160 -63zM275 55q69 0 110.5 45.5t41.5 127.5v44q0 81 -42 127t-110 46q-69 0 -110.5 -45.5t-41.5 -127.5v-44q0 -81 42 -127t110 -46z" />
    <glyph glyph-name="p" unicode="p" horiz-adv-x="560" 
d="M309 -7q-108 0 -158 80v-273h-66v700h51l8 -84q51 91 165 91q89 0 142.5 -61t53.5 -174v-44q0 -112 -54 -173.5t-142 -61.5zM294 55q66 0 104.5 44t38.5 129v44q0 84 -38.5 128.5t-104.5 44.5q-62 0 -101.5 -43.5t-41.5 -121.5v-52q0 -82 39.5 -127.5t103.5 -45.5z" />
    <glyph glyph-name="q" unicode="q" horiz-adv-x="560" 
d="M251 -7q-89 0 -142.5 61t-53.5 174v44q0 112 54 173.5t142 61.5q115 0 164 -91l9 84h51v-700h-66v273q-50 -80 -158 -80zM266 55q64 0 103.5 45.5t39.5 127.5v44q0 82 -40 127.5t-103 45.5q-66 0 -104.5 -44t-38.5 -129v-44q0 -84 38.5 -128.5t104.5 -44.5z" />
    <glyph glyph-name="r" unicode="r" horiz-adv-x="380" 
d="M85 0v500h51l8 -82q50 89 161 89h50v-62h-50q-69 0 -110.5 -38t-43.5 -101v-306h-66z" />
    <glyph glyph-name="s" unicode="s" horiz-adv-x="490" 
d="M245 -7q-174 0 -190 152h68q8 -48 35 -69t87 -21q66 0 94 20t28 60q0 37 -31 57.5t-75.5 30t-89 21.5t-75.5 43t-31 83q0 61 46 99t134 38q81 0 126.5 -38t53.5 -104h-68q-8 40 -33.5 60t-78.5 20q-112 0 -112 -75q0 -28 22.5 -46t56 -25t72.5 -17.5t72.5 -23.5t56 -44.5
t22.5 -78.5q0 -65 -47.5 -103.5t-142.5 -38.5z" />
    <glyph glyph-name="t" unicode="t" horiz-adv-x="360" 
d="M25 440v60h90v140h66v-140h134v-60h-134v-300q0 -80 74 -80h70v-60h-78q-65 0 -98.5 34t-33.5 98v308h-90z" />
    <glyph glyph-name="u" unicode="u" horiz-adv-x="565" 
d="M260 -7q-83 0 -131.5 53.5t-48.5 153.5v300h66v-300q0 -71 33 -108t91 -37q64 0 104 40.5t40 104.5v300h66v-500h-51l-8 82q-52 -89 -161 -89z" />
    <glyph glyph-name="v" unicode="v" horiz-adv-x="510" 
d="M220 0l-195 500h74l162 -425l154 425h70l-185 -500h-80z" />
    <glyph glyph-name="w" unicode="w" horiz-adv-x="770" 
d="M515 0l-130 422l-120 -422h-80l-150 500h70l121 -417l119 417h80l128 -417l114 417h68l-140 -500h-80z" />
    <glyph glyph-name="x" unicode="x" horiz-adv-x="500" 
d="M395 0l-146 209l-146 -209h-78l183 257l-171 243h78l136 -194l136 194h76l-171 -241l183 -259h-80z" />
    <glyph glyph-name="y" unicode="y" horiz-adv-x="520" 
d="M155 -200l77 200l-207 500h74l169 -418l157 418h70l-270 -700h-70z" />
    <glyph glyph-name="z" unicode="z" horiz-adv-x="455" 
d="M50 440v60h370v-60l-304 -380h304v-60h-380v60l304 380h-294z" />
    <glyph glyph-name="braceleft" unicode="{" horiz-adv-x="400" 
d="M360 700v-64h-46q-114 0 -114 -120v-130q0 -51 -15 -84t-58 -52q43 -19 58 -52.5t15 -83.5v-130q0 -120 114 -120h46v-64h-46q-184 0 -184 184v130q0 94 -80 105v62q80 11 80 105v130q0 184 184 184h46z" />
    <glyph glyph-name="bar" unicode="|" horiz-adv-x="300" 
d="M115 -200v900h70v-900h-70z" />
    <glyph glyph-name="braceright" unicode="}" horiz-adv-x="400" 
d="M40 -200v64h46q114 0 114 120v130q0 51 15 84t58 52q-43 19 -58 52.5t-15 83.5v130q0 120 -114 120h-46v64h46q184 0 184 -184v-130q0 -94 80 -105v-62q-80 -11 -80 -105v-130q0 -184 -184 -184h-46z" />
    <glyph glyph-name="asciitilde" unicode="~" 
d="M403 270q-36 0 -69 18t-53 39t-45.5 39t-48.5 18q-30 0 -48.5 -19.5t-18.5 -54.5h-70q0 62 38.5 101t98.5 39q36 0 69 -18t53 -39t45.5 -39t48.5 -18q30 0 48.5 20t18.5 54h70q0 -62 -38.5 -101t-98.5 -39z" />
    <glyph glyph-name="uni00A0" unicode="&#xa0;" horiz-adv-x="250" 
 />
    <glyph glyph-name="exclamdown" unicode="&#xa1;" horiz-adv-x="300" 
d="M150 507q24 0 39.5 -16t15.5 -39t-15.5 -39t-39.5 -16t-39.5 16t-15.5 39t15.5 39t39.5 16zM185 300v-500h-70v500h70z" />
    <glyph glyph-name="cent" unicode="&#xa2;" horiz-adv-x="505" 
d="M239 -100v95q-85 10 -134.5 71.5t-49.5 161.5v44q0 99 50 160.5t134 72.5v95h62v-95q66 -8 108 -46t56 -94h-70q-35 80 -125 80q-65 0 -106 -46t-41 -127v-44q0 -81 41 -127t106 -46q93 0 125 90h70q-14 -62 -55.5 -102t-108.5 -48v-95h-62z" />
    <glyph glyph-name="sterling" unicode="&#xa3;" horiz-adv-x="580" 
d="M55 301v58h90v151q0 85 56 141t139 56q86 0 138.5 -55t56.5 -147h-70q-4 66 -36.5 101t-88.5 35q-55 0 -90 -36t-35 -95v-151h185v-58h-185v-51q0 -77 -15.5 -117.5t-52.5 -68.5h388v-64h-480v64q49 34 69.5 71t20.5 115v51h-90z" />
    <glyph glyph-name="currency" unicode="&#xa4;" 
d="M492 115l-85 85q-51 -35 -112 -35q-64 0 -114 36l-86 -86l-45 45l86 86q-36 50 -36 114q0 61 35 112l-85 85l48 48l85 -85q49 35 112 35q62 0 113 -37l87 87l45 -45l-87 -87q37 -51 37 -113q0 -63 -35 -112l85 -85zM295 229q52 0 89 38.5t37 92.5t-37 92.5t-89 38.5
t-89 -38.5t-37 -92.5t37 -92.5t89 -38.5z" />
    <glyph glyph-name="yen" unicode="&#xa5;" horiz-adv-x="650" 
d="M95 271v58h158l-223 371h78l222 -371l214 371h76l-214 -371h159v-58h-200v-82h200v-58h-200v-131h-70v131h-200v58h200v82h-200z" />
    <glyph glyph-name="brokenbar" unicode="&#xa6;" horiz-adv-x="300" 
d="M115 -200v370h70v-370h-70zM115 330v370h70v-370h-70z" />
    <glyph glyph-name="section" unicode="&#xa7;" horiz-adv-x="480" 
d="M240 707q71 0 116 -40t53 -103h-74q-5 34 -29.5 55t-65.5 21q-47 0 -72 -22t-25 -59t29.5 -65.5t71.5 -49.5t84.5 -44.5t72 -64.5t29.5 -95q0 -93 -101 -155q90 -56 90 -138q0 -68 -48 -111t-131 -43q-76 0 -123.5 42.5t-55.5 110.5h74q5 -38 32.5 -62t72.5 -24
q51 0 79 24t28 63q0 35 -30.5 61.5t-74 47t-87.5 44.5t-74.5 64.5t-30.5 95.5q0 95 106 157q-85 57 -85 142q0 65 45.5 106.5t123.5 41.5zM122 260q0 -21 9 -40t19 -30.5t34.5 -27t36.5 -21.5l44 -22q49 29 71 56t22 65q0 25 -9 44.5t-32 37.5t-37 26.5t-49 26.5
q-3 2 -4.5 2.5t-4 2t-4.5 2.5q-50 -29 -73 -56t-23 -66z" />
    <glyph glyph-name="dieresis" unicode="&#xa8;" horiz-adv-x="340" 
d="M72 588q-20 0 -33.5 14t-13.5 33t13.5 33t33.5 14t33.5 -14t13.5 -33t-13.5 -33t-33.5 -14zM268 588q-20 0 -33.5 14t-13.5 33t13.5 33t33.5 14t33.5 -14t13.5 -33t-13.5 -33t-33.5 -14z" />
    <glyph glyph-name="copyright" unicode="&#xa9;" horiz-adv-x="850" 
d="M425 -7q-151 0 -255 104t-104 253q0 148 105 252.5t254 104.5q151 0 255 -104t104 -253q0 -148 -105 -252.5t-254 -104.5zM425 54q124 0 209.5 85.5t85.5 210.5q0 124 -85.5 210t-209.5 86t-209.5 -86t-85.5 -210t85.5 -210t209.5 -86zM425 143q-80 0 -127 50t-47 140v34
q0 89 47.5 139.5t126.5 50.5q68 0 111.5 -34t52.5 -81h-66q-10 23 -35 40t-63 17q-52 0 -81.5 -33.5t-29.5 -98.5v-34q0 -63 30.5 -97.5t80.5 -34.5q82 0 101 67h63q-9 -52 -53 -88.5t-111 -36.5z" />
    <glyph glyph-name="ordfeminine" unicode="&#xaa;" horiz-adv-x="350" 
d="M140 373q-54 0 -82 25.5t-28 69.5q0 50 35 76.5t116 26.5h69v22q0 34 -16 49t-54 15q-62 0 -71 -44h-61q4 43 37 68.5t95 25.5q130 0 130 -114v-213h-48l-7 54q-36 -61 -115 -61zM149 423q45 0 73 26.5t28 66.5v13h-69q-88 0 -88 -55q0 -51 56 -51z" />
    <glyph glyph-name="guillemotleft" unicode="&#xab;" horiz-adv-x="505" 
d="M250 258l122 202h73l-121 -198l121 -202h-76zM45 258l122 202h73l-121 -198l121 -202h-76z" />
    <glyph glyph-name="logicalnot" unicode="&#xac;" 
d="M75 328v64h440v-250h-69v186h-371z" />
    <glyph glyph-name="uni00AD" unicode="&#xad;" horiz-adv-x="400" 
d="M50 228v64h300v-64h-300z" />
    <glyph glyph-name="registered" unicode="&#xae;" horiz-adv-x="650" 
d="M325 143q-118 0 -201 82.5t-83 199.5t83 199.5t201 82.5t201 -82.5t83 -199.5t-83 -199.5t-201 -82.5zM325 194q94 0 161.5 68t67.5 163t-67.5 163t-161.5 68t-161.5 -68t-67.5 -163t67.5 -163t161.5 -68zM388 275l-50 106h-58v-106h-53v300h104q116 0 116 -97
q0 -71 -62 -90l58 -113h-55zM331 527h-51v-98h51q61 0 61 49t-61 49z" />
    <glyph glyph-name="macron" unicode="&#xaf;" horiz-adv-x="300" 
d="M15 607v56h270v-56h-270z" />
    <glyph glyph-name="degree" unicode="&#xb0;" horiz-adv-x="360" 
d="M180 401q-64 0 -109.5 45t-45.5 108t45.5 108t109.5 45t109.5 -45t45.5 -108t-45.5 -108t-109.5 -45zM180 459q38 0 66 27.5t28 67.5t-28 67.5t-66 27.5t-66 -27.5t-28 -67.5t28 -67.5t66 -27.5z" />
    <glyph glyph-name="plusminus" unicode="&#xb1;" 
d="M75 375v64h185v192h70v-192h185v-64h-185v-142h-70v142h-185zM75 89v64h440v-64h-440z" />
    <glyph glyph-name="twosuperior" unicode="&#xb2;" horiz-adv-x="355" 
d="M26 380v56l151 146q48 46 63 72t15 54q0 32 -21.5 51t-60.5 19t-60.5 -19t-21.5 -51h-64q0 56 40 92.5t106 36.5t106 -36.5t40 -92.5q0 -41 -22 -78t-77 -89l-111 -105h211v-56h-294z" />
    <glyph glyph-name="threesuperior" unicode="&#xb3;" horiz-adv-x="370" 
d="M180 373q-147 0 -155 144h64q9 -85 91 -85q43 0 67 21t24 55q0 32 -24.5 53t-65.5 21h-59v56h59q38 0 59.5 19.5t21.5 50.5q0 32 -21 51t-61 19q-74 0 -82 -71h-64q4 60 42 95t104 35q67 0 106.5 -35t39.5 -88q0 -73 -64 -101q73 -33 73 -107q0 -61 -40.5 -97t-114.5 -36
z" />
    <glyph glyph-name="acute" unicode="&#xb4;" horiz-adv-x="250" 
d="M25 560l118 150h82l-130 -150h-70z" />
    <glyph glyph-name="mu" unicode="&#xb5;" horiz-adv-x="570" 
d="M265 -7q-70 0 -114 44v-237h-66v700h66v-300q0 -71 33 -108t91 -37q64 0 104 40.5t40 104.5v300h66v-500h-51l-8 82q-52 -89 -161 -89z" />
    <glyph glyph-name="paragraph" unicode="&#xb6;" horiz-adv-x="660" 
d="M472 -200v836h-157v-836h-70v463q-79 13 -132 74.5t-53 142.5q0 91 64.5 155.5t155.5 64.5h350v-64h-89v-836h-69z" />
    <glyph glyph-name="periodcentered" unicode="&#xb7;" horiz-adv-x="250" 
d="M125 205q-24 0 -39.5 16t-15.5 39t15.5 39t39.5 16t39.5 -16t15.5 -39t-15.5 -39t-39.5 -16z" />
    <glyph glyph-name="cedilla" unicode="&#xb8;" horiz-adv-x="190" 
d="M49 -82l22 91h52l-12 -49q64 -12 64 -76q0 -37 -24.5 -60.5t-65.5 -23.5h-70v50h65q37 0 37 34t-37 34h-31z" />
    <glyph glyph-name="onesuperior" unicode="&#xb9;" horiz-adv-x="260" 
d="M20 687v69l119 74h61v-450h-61v382z" />
    <glyph glyph-name="ordmasculine" unicode="&#xba;" horiz-adv-x="360" 
d="M180 373q-68 0 -109 41.5t-41 109.5v32q0 68 41 109.5t109 41.5t109 -41.5t41 -109.5v-32q0 -68 -41 -109.5t-109 -41.5zM180 431q39 0 62.5 24.5t23.5 68.5v32q0 44 -23.5 68.5t-62.5 24.5t-62.5 -24.5t-23.5 -68.5v-32q0 -44 23.5 -68.5t62.5 -24.5z" />
    <glyph glyph-name="guillemotright" unicode="&#xbb;" horiz-adv-x="505" 
d="M460 262l-122 -202h-73l121 198l-121 202h76zM255 262l-122 -202h-73l121 198l-121 202h76z" />
    <glyph glyph-name="onequarter" unicode="&#xbc;" horiz-adv-x="850" 
d="M185 0l406 700h74l-406 -700h-74zM50 564v69l110 67h60v-400h-60v332zM490 88v54l175 258h83v-258h52v-54h-52v-88h-60v88h-198zM554 142h134v196z" />
    <glyph glyph-name="onehalf" unicode="&#xbd;" horiz-adv-x="880" 
d="M185 0l406 700h74l-406 -700h-74zM50 564v69l110 67h60v-400h-60v332zM550 0v55l139 120q48 41 63 64t15 49q0 61 -77 61t-77 -61h-63q0 55 36 87t104 32t104 -32t36 -87q0 -39 -22 -73.5t-77 -80.5l-95 -79h194v-55h-280z" />
    <glyph glyph-name="threequarters" unicode="&#xbe;" horiz-adv-x="900" 
d="M235 0l406 700h74l-406 -700h-74zM540 88v54l175 258h83v-258h52v-54h-52v-88h-60v88h-198zM604 142h134v196zM200 293q-71 0 -108.5 34t-41.5 95h63q8 -71 87 -71q87 0 87 64q0 28 -21.5 45.5t-64.5 17.5h-56v55h56q77 0 77 58t-78 58q-70 0 -79 -61h-62q4 56 39 87.5
t102 31.5t104 -31.5t37 -80.5q0 -59 -58 -86q67 -28 67 -98q0 -54 -38.5 -86t-111.5 -32z" />
    <glyph glyph-name="questiondown" unicode="&#xbf;" horiz-adv-x="500" 
d="M290 310q0 -62 -18.5 -105.5t-44.5 -66.5t-52 -42.5t-44.5 -47.5t-18.5 -68q0 -55 37.5 -88t105.5 -33q65 0 102 34.5t41 96.5h72q-4 -91 -60.5 -144t-154.5 -53q-102 0 -158.5 51t-56.5 136q0 51 18.5 86.5t45 56.5t53 42.5t45 57.5t18.5 87h70zM255 507q24 0 39.5 -16
t15.5 -39t-15.5 -39t-39.5 -16t-39.5 16t-15.5 39t15.5 39t39.5 16z" />
    <glyph glyph-name="Agrave" unicode="&#xc0;" horiz-adv-x="650" 
d="M551 0l-75 203h-305l-74 -203h-72l260 700h80l260 -700h-74zM266 460l-71 -193h258l-71 193l-58 160zM289 760l-128 150h86l114 -150h-72z" />
    <glyph glyph-name="Aacute" unicode="&#xc1;" horiz-adv-x="650" 
d="M551 0l-75 203h-305l-74 -203h-72l260 700h80l260 -700h-74zM266 460l-71 -193h258l-71 193l-58 160zM289 760l114 150h86l-128 -150h-72z" />
    <glyph glyph-name="Acircumflex" unicode="&#xc2;" horiz-adv-x="650" 
d="M551 0l-75 203h-305l-74 -203h-72l260 700h80l260 -700h-74zM266 460l-71 -193h258l-71 193l-58 160zM408 760l-83 97l-83 -97h-72l114 150h82l114 -150h-72z" />
    <glyph glyph-name="Atilde" unicode="&#xc3;" horiz-adv-x="650" 
d="M551 0l-75 203h-305l-74 -203h-72l260 700h80l260 -700h-74zM266 460l-71 -193h258l-71 193l-58 160zM395 770q-32 0 -57 17.5t-45 35t-38 17.5q-45 0 -45 -55h-50q0 57 25 86t70 29q32 0 57 -17.5t45 -35t38 -17.5q45 0 45 55h50q0 -57 -25 -86t-70 -29z" />
    <glyph glyph-name="Adieresis" unicode="&#xc4;" horiz-adv-x="650" 
d="M551 0l-75 203h-305l-74 -203h-72l260 700h80l260 -700h-74zM266 460l-71 -193h258l-71 193l-58 160zM217 788q-19 0 -33 14t-14 33t14 33t33 14t33 -14t14 -33t-14 -33t-33 -14zM433 788q-19 0 -33 14t-14 33t14 33t33 14t33 -14t14 -33t-14 -33t-33 -14z" />
    <glyph glyph-name="Aring" unicode="&#xc5;" horiz-adv-x="650" 
d="M551 0l-75 203h-305l-74 -203h-72l260 700h80l260 -700h-74zM266 460l-71 -193h258l-71 193l-58 160zM325 734q-45 0 -75 29.5t-30 71.5t30 71.5t75 29.5t75 -29.5t30 -71.5t-30 -71.5t-75 -29.5zM325 786q22 0 35.5 13.5t13.5 35.5t-13.5 35.5t-35.5 13.5t-35.5 -13.5
t-13.5 -35.5t13.5 -35.5t35.5 -13.5z" />
    <glyph glyph-name="AE" unicode="&#xc6;" horiz-adv-x="930" 
d="M20 0l410 700h450v-64h-350v-244h290v-64h-290v-264h350v-64h-420v203h-247l-117 -203h-76zM250 267h210v360z" />
    <glyph glyph-name="Ccedilla" unicode="&#xc7;" horiz-adv-x="670" 
d="M304 -82l18 77q-115 9 -186 95t-71 228v64q0 150 79.5 237.5t205.5 87.5q106 0 177.5 -59t87.5 -143h-76q-16 57 -66 96.5t-123 39.5q-94 0 -153.5 -68t-59.5 -191v-64q0 -122 59.5 -190.5t153.5 -68.5q73 0 123 43.5t66 112.5h76q-15 -90 -79.5 -152t-161.5 -69l-8 -34
q64 -12 64 -76q0 -37 -24.5 -60.5t-65.5 -23.5h-70v50h66q36 0 36 34q0 32 -31 34h-37z" />
    <glyph glyph-name="Egrave" unicode="&#xc8;" horiz-adv-x="560" 
d="M90 0v700h420v-64h-350v-244h290v-64h-290v-264h350v-64h-420zM264 760l-128 150h86l114 -150h-72z" />
    <glyph glyph-name="Eacute" unicode="&#xc9;" horiz-adv-x="560" 
d="M90 0v700h420v-64h-350v-244h290v-64h-290v-264h350v-64h-420zM264 760l114 150h86l-128 -150h-72z" />
    <glyph glyph-name="Ecircumflex" unicode="&#xca;" horiz-adv-x="560" 
d="M90 0v700h420v-64h-350v-244h290v-64h-290v-264h350v-64h-420zM383 760l-83 97l-83 -97h-72l114 150h82l114 -150h-72z" />
    <glyph glyph-name="Edieresis" unicode="&#xcb;" horiz-adv-x="560" 
d="M90 0v700h420v-64h-350v-244h290v-64h-290v-264h350v-64h-420zM192 788q-20 0 -33.5 14t-13.5 33t13.5 33t33.5 14t33.5 -14t13.5 -33t-13.5 -33t-33.5 -14zM408 788q-20 0 -33.5 14t-13.5 33t13.5 33t33.5 14t33.5 -14t13.5 -33t-13.5 -33t-33.5 -14z" />
    <glyph glyph-name="Igrave" unicode="&#xcc;" horiz-adv-x="270" 
d="M100 0v700h70v-700h-70zM99 760l-128 150h86l114 -150h-72z" />
    <glyph glyph-name="Iacute" unicode="&#xcd;" horiz-adv-x="270" 
d="M100 0v700h70v-700h-70zM99 760l114 150h86l-128 -150h-72z" />
    <glyph glyph-name="Icircumflex" unicode="&#xce;" horiz-adv-x="270" 
d="M100 0v700h70v-700h-70zM218 760l-83 97l-83 -97h-72l114 150h82l114 -150h-72z" />
    <glyph glyph-name="Idieresis" unicode="&#xcf;" horiz-adv-x="270" 
d="M100 0v700h70v-700h-70zM27 788q-19 0 -33 14t-14 33t14 33t33 14t33 -14t14 -33t-14 -33t-33 -14zM243 788q-19 0 -33 14t-14 33t14 33t33 14t33 -14t14 -33t-14 -33t-33 -14z" />
    <glyph glyph-name="Eth" unicode="&#xd0;" horiz-adv-x="705" 
d="M25 323v54h90v323h210q150 0 232.5 -83t82.5 -235v-64q0 -151 -83 -234.5t-232 -83.5h-210v323h-90zM325 636h-140v-259h190v-54h-190v-259h140q118 0 180.5 64.5t62.5 189.5v64q0 124 -63 189t-180 65z" />
    <glyph glyph-name="Ntilde" unicode="&#xd1;" horiz-adv-x="710" 
d="M522 0l-306 520l-56 103v-623h-70v700h98l306 -520l56 -103v623h70v-700h-98zM425 770q-32 0 -57 17.5t-45 35t-38 17.5q-45 0 -45 -55h-50q0 57 25 86t70 29q32 0 57 -17.5t45 -35t38 -17.5q45 0 45 55h50q0 -57 -25 -86t-70 -29z" />
    <glyph glyph-name="Ograve" unicode="&#xd2;" horiz-adv-x="710" 
d="M355 -7q-129 0 -209.5 87.5t-80.5 237.5v64q0 149 81 237t209 88q129 0 209.5 -87.5t80.5 -237.5v-64q0 -149 -81 -237t-209 -88zM355 59q96 0 157 69t61 190v64q0 120 -61.5 189.5t-156.5 69.5q-96 0 -157 -69t-61 -190v-64q0 -120 61.5 -189.5t156.5 -69.5zM319 760
l-128 150h86l114 -150h-72z" />
    <glyph glyph-name="Oacute" unicode="&#xd3;" horiz-adv-x="710" 
d="M355 -7q-129 0 -209.5 87.5t-80.5 237.5v64q0 149 81 237t209 88q129 0 209.5 -87.5t80.5 -237.5v-64q0 -149 -81 -237t-209 -88zM355 59q96 0 157 69t61 190v64q0 120 -61.5 189.5t-156.5 69.5q-96 0 -157 -69t-61 -190v-64q0 -120 61.5 -189.5t156.5 -69.5zM319 760
l114 150h86l-128 -150h-72z" />
    <glyph glyph-name="Ocircumflex" unicode="&#xd4;" horiz-adv-x="710" 
d="M355 -7q-129 0 -209.5 87.5t-80.5 237.5v64q0 149 81 237t209 88q129 0 209.5 -87.5t80.5 -237.5v-64q0 -149 -81 -237t-209 -88zM355 59q96 0 157 69t61 190v64q0 120 -61.5 189.5t-156.5 69.5q-96 0 -157 -69t-61 -190v-64q0 -120 61.5 -189.5t156.5 -69.5zM438 760
l-83 97l-83 -97h-72l114 150h82l114 -150h-72z" />
    <glyph glyph-name="Otilde" unicode="&#xd5;" horiz-adv-x="710" 
d="M355 -7q-129 0 -209.5 87.5t-80.5 237.5v64q0 149 81 237t209 88q129 0 209.5 -87.5t80.5 -237.5v-64q0 -149 -81 -237t-209 -88zM355 59q96 0 157 69t61 190v64q0 120 -61.5 189.5t-156.5 69.5q-96 0 -157 -69t-61 -190v-64q0 -120 61.5 -189.5t156.5 -69.5zM425 770
q-32 0 -57 17.5t-45 35t-38 17.5q-45 0 -45 -55h-50q0 57 25 86t70 29q32 0 57 -17.5t45 -35t38 -17.5q45 0 45 55h50q0 -57 -25 -86t-70 -29z" />
    <glyph glyph-name="Odieresis" unicode="&#xd6;" horiz-adv-x="710" 
d="M355 -7q-129 0 -209.5 87.5t-80.5 237.5v64q0 149 81 237t209 88q129 0 209.5 -87.5t80.5 -237.5v-64q0 -149 -81 -237t-209 -88zM355 59q96 0 157 69t61 190v64q0 120 -61.5 189.5t-156.5 69.5q-96 0 -157 -69t-61 -190v-64q0 -120 61.5 -189.5t156.5 -69.5zM247 788
q-19 0 -33 14t-14 33t14 33t33 14t33 -14t14 -33t-14 -33t-33 -14zM463 788q-19 0 -33 14t-14 33t14 33t33 14t33 -14t14 -33t-14 -33t-33 -14z" />
    <glyph glyph-name="multiply" unicode="&#xd7;" 
d="M157 175l-47 47l138 138l-138 138l47 47l138 -138l138 138l47 -47l-138 -138l138 -138l-47 -47l-138 138z" />
    <glyph glyph-name="Oslash" unicode="&#xd8;" horiz-adv-x="710" 
d="M107 -7l-42 34l61 77q-61 84 -61 214v64q0 149 81 237t209 88q115 0 192 -71l56 71l42 -34l-62 -78q62 -86 62 -213v-64q0 -149 -81 -237t-209 -88q-117 0 -193 70zM137 318q0 -91 36 -154l330 416q-59 61 -148 61q-96 0 -157 -69t-61 -190v-64zM355 59q96 0 157 69
t61 190v64q0 88 -37 154l-329 -417q58 -60 148 -60z" />
    <glyph glyph-name="Ugrave" unicode="&#xd9;" horiz-adv-x="690" 
d="M345 -7q-120 0 -190 74t-70 208v425h70v-425q0 -103 51.5 -159.5t138.5 -56.5q89 0 139.5 55.5t50.5 160.5v425h70v-425q0 -133 -70.5 -207.5t-189.5 -74.5zM309 760l-128 150h86l114 -150h-72z" />
    <glyph glyph-name="Uacute" unicode="&#xda;" horiz-adv-x="690" 
d="M345 -7q-120 0 -190 74t-70 208v425h70v-425q0 -103 51.5 -159.5t138.5 -56.5q89 0 139.5 55.5t50.5 160.5v425h70v-425q0 -133 -70.5 -207.5t-189.5 -74.5zM309 760l114 150h86l-128 -150h-72z" />
    <glyph glyph-name="Ucircumflex" unicode="&#xdb;" horiz-adv-x="690" 
d="M345 -7q-120 0 -190 74t-70 208v425h70v-425q0 -103 51.5 -159.5t138.5 -56.5q89 0 139.5 55.5t50.5 160.5v425h70v-425q0 -133 -70.5 -207.5t-189.5 -74.5zM428 760l-83 97l-83 -97h-72l114 150h82l114 -150h-72z" />
    <glyph glyph-name="Udieresis" unicode="&#xdc;" horiz-adv-x="690" 
d="M345 -7q-120 0 -190 74t-70 208v425h70v-425q0 -103 51.5 -159.5t138.5 -56.5q89 0 139.5 55.5t50.5 160.5v425h70v-425q0 -133 -70.5 -207.5t-189.5 -74.5zM237 788q-19 0 -33 14t-14 33t14 33t33 14t33 -14t14 -33t-14 -33t-33 -14zM453 788q-19 0 -33 14t-14 33t14 33
t33 14t33 -14t14 -33t-14 -33t-33 -14z" />
    <glyph glyph-name="Yacute" unicode="&#xdd;" horiz-adv-x="650" 
d="M295 0v255l-265 445h78l222 -374l214 374h76l-255 -445v-255h-70zM290 760l114 150h86l-128 -150h-72z" />
    <glyph glyph-name="Thorn" unicode="&#xde;" horiz-adv-x="600" 
d="M90 0v700h70v-123h150q250 0 250 -217q0 -104 -62.5 -160.5t-187.5 -56.5h-150v-143h-70zM310 513h-150v-306h150q178 0 178 153q0 76 -43 114.5t-135 38.5z" />
    <glyph glyph-name="germandbls" unicode="&#xdf;" horiz-adv-x="560" 
d="M85 0v495q0 97 56 154.5t149 57.5q88 0 141.5 -51.5t53.5 -132.5q0 -47 -23.5 -85.5t-64.5 -61.5q108 -38 108 -154v-44q0 -84 -51.5 -131t-148.5 -47h-65v60h65q63 0 97.5 32t34.5 86v44q0 54 -34.5 86t-97.5 32h-65v60h50q57 0 92 34t35 89q0 54 -35 88t-92 34
q-64 0 -101.5 -40t-37.5 -110v-495h-66z" />
    <glyph glyph-name="agrave" unicode="&#xe0;" horiz-adv-x="520" 
d="M205 -7q-74 0 -114.5 38.5t-40.5 106.5q0 157 210 157h114v45q0 55 -27 80t-87 25q-106 0 -114 -80h-71q4 64 51 103t134 39q88 0 134 -43.5t46 -123.5v-340h-51l-10 94q-26 -47 -72 -74t-102 -27zM210 55q68 0 116 46.5t48 110.5v23h-114q-142 0 -142 -97q0 -39 24 -61
t68 -22zM220 560l-130 150h82l118 -150h-70z" />
    <glyph glyph-name="aacute" unicode="&#xe1;" horiz-adv-x="520" 
d="M205 -7q-74 0 -114.5 38.5t-40.5 106.5q0 157 210 157h114v45q0 55 -27 80t-87 25q-106 0 -114 -80h-71q4 64 51 103t134 39q88 0 134 -43.5t46 -123.5v-340h-51l-10 94q-26 -47 -72 -74t-102 -27zM210 55q68 0 116 46.5t48 110.5v23h-114q-142 0 -142 -97q0 -39 24 -61
t68 -22zM220 560l118 150h82l-130 -150h-70z" />
    <glyph glyph-name="acircumflex" unicode="&#xe2;" horiz-adv-x="520" 
d="M205 -7q-74 0 -114.5 38.5t-40.5 106.5q0 157 210 157h114v45q0 55 -27 80t-87 25q-106 0 -114 -80h-71q4 64 51 103t134 39q88 0 134 -43.5t46 -123.5v-340h-51l-10 94q-26 -47 -72 -74t-102 -27zM210 55q68 0 116 46.5t48 110.5v23h-114q-142 0 -142 -97q0 -39 24 -61
t68 -22zM342 560l-87 99l-87 -99h-68l118 150h74l118 -150h-68z" />
    <glyph glyph-name="atilde" unicode="&#xe3;" horiz-adv-x="520" 
d="M205 -7q-74 0 -114.5 38.5t-40.5 106.5q0 157 210 157h114v45q0 55 -27 80t-87 25q-106 0 -114 -80h-71q4 64 51 103t134 39q88 0 134 -43.5t46 -123.5v-340h-51l-10 94q-26 -47 -72 -74t-102 -27zM210 55q68 0 116 46.5t48 110.5v23h-114q-142 0 -142 -97q0 -39 24 -61
t68 -22zM320 570q-29 0 -53 18t-42.5 36t-34.5 18q-40 0 -40 -57h-50q0 57 24.5 86t65.5 29q29 0 53 -18t42.5 -36t34.5 -18q40 0 40 57h50q0 -57 -24.5 -86t-65.5 -29z" />
    <glyph glyph-name="adieresis" unicode="&#xe4;" horiz-adv-x="520" 
d="M205 -7q-74 0 -114.5 38.5t-40.5 106.5q0 157 210 157h114v45q0 55 -27 80t-87 25q-106 0 -114 -80h-71q4 64 51 103t134 39q88 0 134 -43.5t46 -123.5v-340h-51l-10 94q-26 -47 -72 -74t-102 -27zM210 55q68 0 116 46.5t48 110.5v23h-114q-142 0 -142 -97q0 -39 24 -61
t68 -22zM157 588q-19 0 -33 14t-14 33t14 33t33 14t33 -14t14 -33t-14 -33t-33 -14zM353 588q-19 0 -33 14t-14 33t14 33t33 14t33 -14t14 -33t-14 -33t-33 -14z" />
    <glyph glyph-name="aring" unicode="&#xe5;" horiz-adv-x="520" 
d="M205 -7q-74 0 -114.5 38.5t-40.5 106.5q0 157 210 157h114v45q0 55 -27 80t-87 25q-106 0 -114 -80h-71q4 64 51 103t134 39q88 0 134 -43.5t46 -123.5v-340h-51l-10 94q-26 -47 -72 -74t-102 -27zM210 55q68 0 116 46.5t48 110.5v23h-114q-142 0 -142 -97q0 -39 24 -61
t68 -22zM255 534q-45 0 -75 29.5t-30 71.5t30 71.5t75 29.5t75 -29.5t30 -71.5t-30 -71.5t-75 -29.5zM255 582q23 0 38 15t15 38t-15 38t-38 15t-38 -15t-15 -38t15 -38t38 -15z" />
    <glyph glyph-name="ae" unicode="&#xe6;" horiz-adv-x="855" 
d="M210 -7q-78 0 -119 38.5t-41 106.5q0 151 216 151h108v51q0 55 -27 80t-87 25q-106 0 -114 -80h-71q4 64 51 103t134 39q119 0 158 -85q57 85 169 85q97 0 155 -62t58 -173v-41h-360v-3q0 -85 39 -129t108 -44q105 0 140 91h68q-16 -69 -68.5 -111t-139.5 -42
q-135 0 -186 115q-25 -54 -75 -84.5t-116 -30.5zM589 445q-64 0 -104.5 -40.5t-44.5 -115.5h291q-4 76 -42 116t-100 40zM210 55q67 0 114 44t50 109v23h-108q-82 0 -115 -24t-33 -69q0 -39 24 -61t68 -22z" />
    <glyph glyph-name="ccedilla" unicode="&#xe7;" horiz-adv-x="505" 
d="M224 -82l18 77q-86 8 -136.5 70t-50.5 163v44q0 109 59 172t156 63q79 0 129 -39.5t66 -102.5h-70q-35 80 -125 80q-65 0 -106 -46t-41 -127v-44q0 -81 41 -127t106 -46q93 0 125 90h70q-15 -64 -58 -104t-113 -47l-8 -34q64 -12 64 -76q0 -37 -24.5 -60.5t-65.5 -23.5
h-70v50h65q37 0 37 34t-37 34h-31z" />
    <glyph glyph-name="egrave" unicode="&#xe8;" horiz-adv-x="540" 
d="M270 -7q-100 0 -157.5 61.5t-57.5 173.5v44q0 111 58 173t157 62t157 -62t58 -173v-41h-362v-3q0 -84 39.5 -128.5t107.5 -44.5q107 0 142 91h68q-16 -69 -69 -111t-141 -42zM270 445q-65 0 -104 -40.5t-43 -115.5h293q-4 76 -42.5 116t-103.5 40zM235 560l-130 150h82
l118 -150h-70z" />
    <glyph glyph-name="eacute" unicode="&#xe9;" horiz-adv-x="540" 
d="M270 -7q-100 0 -157.5 61.5t-57.5 173.5v44q0 111 58 173t157 62t157 -62t58 -173v-41h-362v-3q0 -84 39.5 -128.5t107.5 -44.5q107 0 142 91h68q-16 -69 -69 -111t-141 -42zM270 445q-65 0 -104 -40.5t-43 -115.5h293q-4 76 -42.5 116t-103.5 40zM235 560l118 150h82
l-130 -150h-70z" />
    <glyph glyph-name="ecircumflex" unicode="&#xea;" horiz-adv-x="540" 
d="M270 -7q-100 0 -157.5 61.5t-57.5 173.5v44q0 111 58 173t157 62t157 -62t58 -173v-41h-362v-3q0 -84 39.5 -128.5t107.5 -44.5q107 0 142 91h68q-16 -69 -69 -111t-141 -42zM270 445q-65 0 -104 -40.5t-43 -115.5h293q-4 76 -42.5 116t-103.5 40zM357 560l-87 99
l-87 -99h-68l118 150h74l118 -150h-68z" />
    <glyph glyph-name="edieresis" unicode="&#xeb;" horiz-adv-x="540" 
d="M270 -7q-100 0 -157.5 61.5t-57.5 173.5v44q0 111 58 173t157 62t157 -62t58 -173v-41h-362v-3q0 -84 39.5 -128.5t107.5 -44.5q107 0 142 91h68q-16 -69 -69 -111t-141 -42zM270 445q-65 0 -104 -40.5t-43 -115.5h293q-4 76 -42.5 116t-103.5 40zM172 588
q-20 0 -33.5 14t-13.5 33t13.5 33t33.5 14t33.5 -14t13.5 -33t-13.5 -33t-33.5 -14zM368 588q-20 0 -33.5 14t-13.5 33t13.5 33t33.5 14t33.5 -14t13.5 -33t-13.5 -33t-33.5 -14z" />
    <glyph glyph-name="igrave" unicode="&#xec;" horiz-adv-x="256" 
d="M95 0v500h66v-500h-66zM93 560l-130 150h82l118 -150h-70z" />
    <glyph glyph-name="iacute" unicode="&#xed;" horiz-adv-x="256" 
d="M95 0v500h66v-500h-66zM93 560l118 150h82l-130 -150h-70z" />
    <glyph glyph-name="icircumflex" unicode="&#xee;" horiz-adv-x="256" 
d="M95 0v500h66v-500h-66zM215 560l-87 99l-87 -99h-68l118 150h74l118 -150h-68z" />
    <glyph glyph-name="idieresis" unicode="&#xef;" horiz-adv-x="256" 
d="M95 0v500h66v-500h-66zM30 588q-20 0 -33.5 14t-13.5 33t13.5 33t33.5 14t33.5 -14t13.5 -33t-13.5 -33t-33.5 -14zM226 588q-20 0 -33.5 14t-13.5 33t13.5 33t33.5 14t33.5 -14t13.5 -33t-13.5 -33t-33.5 -14z" />
    <glyph glyph-name="eth" unicode="&#xf0;" horiz-adv-x="545" 
d="M165 530v50l71 39q-41 38 -92 81h87q3 -3 58 -52l96 52v-50l-64 -35q164 -170 164 -353v-44q0 -101 -60.5 -163t-154.5 -62q-95 0 -155 62t-60 163v44q0 100 58.5 162.5t144.5 62.5q68 0 117 -37q-39 68 -107 136zM270 55q66 0 106.5 43.5t40.5 119.5v51q-2 73 -42 114.5
t-105 41.5q-66 0 -106.5 -43.5t-40.5 -119.5v-44q0 -75 40.5 -119t106.5 -44z" />
    <glyph glyph-name="ntilde" unicode="&#xf1;" horiz-adv-x="575" 
d="M85 0v500h51l8 -82q52 89 166 89q87 0 136 -53.5t49 -153.5v-300h-66v300q0 72 -33.5 108.5t-95.5 36.5q-66 0 -106.5 -38t-42.5 -101v-306h-66zM355 570q-29 0 -53 18t-42.5 36t-34.5 18q-40 0 -40 -57h-50q0 57 24.5 86t65.5 29q29 0 53 -18t42.5 -36t34.5 -18
q40 0 40 57h50q0 -57 -24.5 -86t-65.5 -29z" />
    <glyph glyph-name="ograve" unicode="&#xf2;" horiz-adv-x="550" 
d="M275 -7q-101 0 -160.5 62.5t-59.5 172.5v44q0 109 60 172t160 63q101 0 160.5 -62.5t59.5 -172.5v-44q0 -109 -60 -172t-160 -63zM275 55q69 0 110.5 45.5t41.5 127.5v44q0 81 -42 127t-110 46q-69 0 -110.5 -45.5t-41.5 -127.5v-44q0 -81 42 -127t110 -46zM240 560
l-130 150h82l118 -150h-70z" />
    <glyph glyph-name="oacute" unicode="&#xf3;" horiz-adv-x="550" 
d="M275 -7q-101 0 -160.5 62.5t-59.5 172.5v44q0 109 60 172t160 63q101 0 160.5 -62.5t59.5 -172.5v-44q0 -109 -60 -172t-160 -63zM275 55q69 0 110.5 45.5t41.5 127.5v44q0 81 -42 127t-110 46q-69 0 -110.5 -45.5t-41.5 -127.5v-44q0 -81 42 -127t110 -46zM240 560
l118 150h82l-130 -150h-70z" />
    <glyph glyph-name="ocircumflex" unicode="&#xf4;" horiz-adv-x="550" 
d="M275 -7q-101 0 -160.5 62.5t-59.5 172.5v44q0 109 60 172t160 63q101 0 160.5 -62.5t59.5 -172.5v-44q0 -109 -60 -172t-160 -63zM275 55q69 0 110.5 45.5t41.5 127.5v44q0 81 -42 127t-110 46q-69 0 -110.5 -45.5t-41.5 -127.5v-44q0 -81 42 -127t110 -46zM362 560
l-87 99l-87 -99h-68l118 150h74l118 -150h-68z" />
    <glyph glyph-name="otilde" unicode="&#xf5;" horiz-adv-x="550" 
d="M275 -7q-101 0 -160.5 62.5t-59.5 172.5v44q0 109 60 172t160 63q101 0 160.5 -62.5t59.5 -172.5v-44q0 -109 -60 -172t-160 -63zM275 55q69 0 110.5 45.5t41.5 127.5v44q0 81 -42 127t-110 46q-69 0 -110.5 -45.5t-41.5 -127.5v-44q0 -81 42 -127t110 -46zM340 570
q-29 0 -53 18t-42.5 36t-34.5 18q-40 0 -40 -57h-50q0 57 24.5 86t65.5 29q29 0 53 -18t42.5 -36t34.5 -18q40 0 40 57h50q0 -57 -24.5 -86t-65.5 -29z" />
    <glyph glyph-name="odieresis" unicode="&#xf6;" horiz-adv-x="550" 
d="M275 -7q-101 0 -160.5 62.5t-59.5 172.5v44q0 109 60 172t160 63q101 0 160.5 -62.5t59.5 -172.5v-44q0 -109 -60 -172t-160 -63zM275 55q69 0 110.5 45.5t41.5 127.5v44q0 81 -42 127t-110 46q-69 0 -110.5 -45.5t-41.5 -127.5v-44q0 -81 42 -127t110 -46zM177 588
q-19 0 -33 14t-14 33t14 33t33 14t33 -14t14 -33t-14 -33t-33 -14zM373 588q-19 0 -33 14t-14 33t14 33t33 14t33 -14t14 -33t-14 -33t-33 -14z" />
    <glyph glyph-name="divide" unicode="&#xf7;" 
d="M75 328v64h440v-64h-440zM295 495q-24 0 -39.5 16t-15.5 39t15.5 39t39.5 16t39.5 -16t15.5 -39t-15.5 -39t-39.5 -16zM295 115q-24 0 -39.5 16t-15.5 39t15.5 39t39.5 16t39.5 -16t15.5 -39t-15.5 -39t-39.5 -16z" />
    <glyph glyph-name="oslash" unicode="&#xf8;" horiz-adv-x="550" 
d="M93 -7l-38 32l43 52q-43 58 -43 151v44q0 109 60 172t160 63q84 0 142 -47l40 47l38 -32l-43 -52q43 -62 43 -151v-44q0 -109 -60 -172t-160 -63q-87 0 -143 47zM275 55q69 0 110.5 45.5t41.5 127.5v44q0 54 -21 96l-232 -278q40 -35 101 -35zM123 228q0 -57 20 -97
l232 278q-39 36 -100 36q-69 0 -110.5 -45.5t-41.5 -127.5v-44z" />
    <glyph glyph-name="ugrave" unicode="&#xf9;" horiz-adv-x="565" 
d="M260 -7q-83 0 -131.5 53.5t-48.5 153.5v300h66v-300q0 -71 33 -108t91 -37q64 0 104 40.5t40 104.5v300h66v-500h-51l-8 82q-52 -89 -161 -89zM245 560l-130 150h82l118 -150h-70z" />
    <glyph glyph-name="uacute" unicode="&#xfa;" horiz-adv-x="565" 
d="M260 -7q-83 0 -131.5 53.5t-48.5 153.5v300h66v-300q0 -71 33 -108t91 -37q64 0 104 40.5t40 104.5v300h66v-500h-51l-8 82q-52 -89 -161 -89zM245 560l118 150h82l-130 -150h-70z" />
    <glyph glyph-name="ucircumflex" unicode="&#xfb;" horiz-adv-x="565" 
d="M260 -7q-83 0 -131.5 53.5t-48.5 153.5v300h66v-300q0 -71 33 -108t91 -37q64 0 104 40.5t40 104.5v300h66v-500h-51l-8 82q-52 -89 -161 -89zM367 560l-87 99l-87 -99h-68l118 150h74l118 -150h-68z" />
    <glyph glyph-name="udieresis" unicode="&#xfc;" horiz-adv-x="565" 
d="M260 -7q-83 0 -131.5 53.5t-48.5 153.5v300h66v-300q0 -71 33 -108t91 -37q64 0 104 40.5t40 104.5v300h66v-500h-51l-8 82q-52 -89 -161 -89zM183 588q-19 0 -33 14t-14 33t14 33t33 14t33 -14t14 -33t-14 -33t-33 -14zM379 588q-19 0 -33 14t-14 33t14 33t33 14t33 -14
t14 -33t-14 -33t-33 -14z" />
    <glyph glyph-name="yacute" unicode="&#xfd;" horiz-adv-x="520" 
d="M155 -200l77 200l-207 500h74l169 -418l157 418h70l-270 -700h-70zM227 560l118 150h82l-130 -150h-70z" />
    <glyph glyph-name="thorn" unicode="&#xfe;" horiz-adv-x="560" 
d="M309 -7q-108 0 -158 80v-273h-66v900h66v-273q51 80 158 80q89 0 142.5 -61t53.5 -174v-44q0 -112 -54 -173.5t-142 -61.5zM294 55q66 0 104.5 44t38.5 129v44q0 84 -38.5 128.5t-104.5 44.5q-62 0 -101.5 -43.5t-41.5 -121.5v-60q2 -78 41 -121.5t102 -43.5z" />
    <glyph glyph-name="ydieresis" unicode="&#xff;" horiz-adv-x="520" 
d="M155 -200l77 200l-207 500h74l169 -418l157 418h70l-270 -700h-70zM164 588q-20 0 -33.5 14t-13.5 33t13.5 33t33.5 14t33.5 -14t13.5 -33t-13.5 -33t-33.5 -14zM360 588q-20 0 -33.5 14t-13.5 33t13.5 33t33.5 14t33.5 -14t13.5 -33t-13.5 -33t-33.5 -14z" />
    <glyph glyph-name="Amacron" unicode="&#x100;" horiz-adv-x="650" 
d="M551 0l-75 203h-305l-74 -203h-72l260 700h80l260 -700h-74zM266 460l-71 -193h258l-71 193l-58 160zM180 806v58h290v-58h-290z" />
    <glyph glyph-name="amacron" unicode="&#x101;" horiz-adv-x="520" 
d="M205 -7q-74 0 -114.5 38.5t-40.5 106.5q0 157 210 157h114v45q0 55 -27 80t-87 25q-106 0 -114 -80h-71q4 64 51 103t134 39q88 0 134 -43.5t46 -123.5v-340h-51l-10 94q-26 -47 -72 -74t-102 -27zM210 55q68 0 116 46.5t48 110.5v23h-114q-142 0 -142 -97q0 -39 24 -61
t68 -22zM120 607v56h270v-56h-270z" />
    <glyph glyph-name="Abreve" unicode="&#x102;" horiz-adv-x="650" 
d="M551 0l-75 203h-305l-74 -203h-72l260 700h80l260 -700h-74zM266 460l-71 -193h258l-71 193l-58 160zM325 763q-70 0 -107.5 36t-37.5 101h62q0 -79 83 -79q85 0 85 79h60q0 -65 -37.5 -101t-107.5 -36z" />
    <glyph glyph-name="abreve" unicode="&#x103;" horiz-adv-x="520" 
d="M205 -7q-74 0 -114.5 38.5t-40.5 106.5q0 157 210 157h114v45q0 55 -27 80t-87 25q-106 0 -114 -80h-71q4 64 51 103t134 39q88 0 134 -43.5t46 -123.5v-340h-51l-10 94q-26 -47 -72 -74t-102 -27zM210 55q68 0 116 46.5t48 110.5v23h-114q-142 0 -142 -97q0 -39 24 -61
t68 -22zM255 563q-63 0 -99 36.5t-36 100.5h60q0 -39 19.5 -60t55.5 -21q77 0 77 81h58q0 -64 -36 -100.5t-99 -36.5z" />
    <glyph glyph-name="Aogonek" unicode="&#x104;" horiz-adv-x="650" 
d="M625 -200h-55q-47 0 -71 21t-24 59q0 30 14.5 56.5t59.5 66.5l-73 200h-305l-74 -203h-72l260 700h80l260 -700q-53 -49 -68.5 -69.5t-15.5 -40.5q0 -32 34 -32h50v-58zM266 460l-71 -193h258l-71 193l-58 160z" />
    <glyph glyph-name="aogonek" unicode="&#x105;" horiz-adv-x="520" 
d="M440 -200h-55q-47 0 -71 21t-24 59q0 32 19 62t78 78l-8 74q-26 -47 -72 -74t-102 -27q-74 0 -114.5 38.5t-40.5 106.5q0 157 210 157h114v45q0 55 -27 80t-87 25q-106 0 -114 -80h-71q4 64 51 103t134 39q88 0 134 -43.5t46 -123.5v-340q-56 -50 -72 -71t-16 -44
q0 -31 38 -31h50v-54zM210 55q68 0 116 46.5t48 110.5v23h-114q-142 0 -142 -97q0 -39 24 -61t68 -22z" />
    <glyph glyph-name="Cacute" unicode="&#x106;" horiz-adv-x="670" 
d="M350 -7q-126 0 -205.5 87t-79.5 238v64q0 150 79.5 237.5t205.5 87.5q106 0 177.5 -59t87.5 -143h-76q-16 57 -66 96.5t-123 39.5q-94 0 -153.5 -68t-59.5 -191v-64q0 -122 59.5 -190.5t153.5 -68.5q73 0 123 43.5t66 112.5h76q-16 -96 -87 -159t-178 -63zM314 760
l114 150h86l-128 -150h-72z" />
    <glyph glyph-name="cacute" unicode="&#x107;" horiz-adv-x="505" 
d="M270 -7q-97 0 -156 62.5t-59 172.5v44q0 109 59 172t156 63q79 0 129 -39.5t66 -102.5h-70q-35 80 -125 80q-65 0 -106 -46t-41 -127v-44q0 -81 41 -127t106 -46q93 0 125 90h70q-16 -69 -65.5 -110.5t-129.5 -41.5zM235 560l118 150h82l-130 -150h-70z" />
    <glyph glyph-name="Ccircumflex" unicode="&#x108;" horiz-adv-x="670" 
d="M350 -7q-126 0 -205.5 87t-79.5 238v64q0 150 79.5 237.5t205.5 87.5q106 0 177.5 -59t87.5 -143h-76q-16 57 -66 96.5t-123 39.5q-94 0 -153.5 -68t-59.5 -191v-64q0 -122 59.5 -190.5t153.5 -68.5q73 0 123 43.5t66 112.5h76q-16 -96 -87 -159t-178 -63zM433 760
l-83 97l-83 -97h-72l114 150h82l114 -150h-72z" />
    <glyph glyph-name="ccircumflex" unicode="&#x109;" horiz-adv-x="505" 
d="M270 -7q-97 0 -156 62.5t-59 172.5v44q0 109 59 172t156 63q79 0 129 -39.5t66 -102.5h-70q-35 80 -125 80q-65 0 -106 -46t-41 -127v-44q0 -81 41 -127t106 -46q93 0 125 90h70q-16 -69 -65.5 -110.5t-129.5 -41.5zM357 560l-87 99l-87 -99h-68l118 150h74l118 -150h-68
z" />
    <glyph glyph-name="Cdotaccent" unicode="&#x10a;" horiz-adv-x="670" 
d="M350 -7q-126 0 -205.5 87t-79.5 238v64q0 150 79.5 237.5t205.5 87.5q106 0 177.5 -59t87.5 -143h-76q-16 57 -66 96.5t-123 39.5q-94 0 -153.5 -68t-59.5 -191v-64q0 -122 59.5 -190.5t153.5 -68.5q73 0 123 43.5t66 112.5h76q-16 -96 -87 -159t-178 -63zM350 788
q-20 0 -33.5 14t-13.5 33t13.5 33t33.5 14t33.5 -14t13.5 -33t-13.5 -33t-33.5 -14z" />
    <glyph glyph-name="cdotaccent" unicode="&#x10b;" horiz-adv-x="505" 
d="M270 -7q-97 0 -156 62.5t-59 172.5v44q0 109 59 172t156 63q79 0 129 -39.5t66 -102.5h-70q-35 80 -125 80q-65 0 -106 -46t-41 -127v-44q0 -81 41 -127t106 -46q93 0 125 90h70q-16 -69 -65.5 -110.5t-129.5 -41.5zM270 588q-20 0 -33.5 14t-13.5 33t13.5 33t33.5 14
t33.5 -14t13.5 -33t-13.5 -33t-33.5 -14z" />
    <glyph glyph-name="Ccaron" unicode="&#x10c;" horiz-adv-x="670" 
d="M350 -7q-126 0 -205.5 87t-79.5 238v64q0 150 79.5 237.5t205.5 87.5q106 0 177.5 -59t87.5 -143h-76q-16 57 -66 96.5t-123 39.5q-94 0 -153.5 -68t-59.5 -191v-64q0 -122 59.5 -190.5t153.5 -68.5q73 0 123 43.5t66 112.5h76q-16 -96 -87 -159t-178 -63zM309 760
l-114 150h72l83 -98l83 98h72l-114 -150h-82z" />
    <glyph glyph-name="ccaron" unicode="&#x10d;" horiz-adv-x="505" 
d="M270 -7q-97 0 -156 62.5t-59 172.5v44q0 109 59 172t156 63q79 0 129 -39.5t66 -102.5h-70q-35 80 -125 80q-65 0 -106 -46t-41 -127v-44q0 -81 41 -127t106 -46q93 0 125 90h70q-16 -69 -65.5 -110.5t-129.5 -41.5zM233 560l-118 150h68l87 -100l87 100h68l-118 -150
h-74z" />
    <glyph glyph-name="Dcaron" unicode="&#x10e;" horiz-adv-x="680" 
d="M90 0v700h210q150 0 232.5 -83t82.5 -235v-64q0 -151 -83 -234.5t-232 -83.5h-210zM300 636h-140v-572h140q118 0 180.5 64.5t62.5 189.5v64q0 124 -63 189t-180 65zM279 760l-114 150h72l83 -98l83 98h72l-114 -150h-82z" />
    <glyph glyph-name="dcaron" unicode="&#x10f;" horiz-adv-x="560" 
d="M251 -7q-89 0 -142.5 61t-53.5 174v44q0 112 54 173.5t142 61.5q107 0 158 -80v273h66v-700h-51l-9 84q-49 -91 -164 -91zM266 55q63 0 103 45.5t40 127.5v44q0 81 -40 127t-103 46q-66 0 -104.5 -44t-38.5 -129v-44q0 -84 38.5 -128.5t104.5 -44.5zM545 525v175h66
l-10 -175h-56z" />
    <glyph glyph-name="Dcroat" unicode="&#x110;" horiz-adv-x="705" 
d="M25 323v54h90v323h210q150 0 232.5 -83t82.5 -235v-64q0 -151 -83 -234.5t-232 -83.5h-210v323h-90zM325 636h-140v-259h190v-54h-190v-259h140q118 0 180.5 64.5t62.5 189.5v64q0 124 -63 189t-180 65z" />
    <glyph glyph-name="dcroat" unicode="&#x111;" horiz-adv-x="560" 
d="M245 534v52h164v114h66v-114h90v-52h-90v-534h-51l-8 81q-50 -88 -165 -88q-87 0 -141.5 59t-54.5 161v44q0 102 54.5 161t141.5 59q106 0 158 -77v134h-164zM266 55q63 0 103 43t40 115v51q-2 68 -42 109.5t-101 41.5q-65 0 -104 -41.5t-39 -116.5v-44q0 -75 39 -116.5
t104 -41.5z" />
    <glyph glyph-name="Emacron" unicode="&#x112;" horiz-adv-x="560" 
d="M90 0v700h420v-64h-350v-244h290v-64h-290v-264h350v-64h-420zM155 806v58h290v-58h-290z" />
    <glyph glyph-name="emacron" unicode="&#x113;" horiz-adv-x="540" 
d="M270 -7q-100 0 -157.5 61.5t-57.5 173.5v44q0 111 58 173t157 62t157 -62t58 -173v-41h-362v-3q0 -84 39.5 -128.5t107.5 -44.5q107 0 142 91h68q-16 -69 -69 -111t-141 -42zM270 445q-65 0 -104 -40.5t-43 -115.5h293q-4 76 -42.5 116t-103.5 40zM135 607v56h270v-56
h-270z" />
    <glyph glyph-name="Ebreve" unicode="&#x114;" horiz-adv-x="560" 
d="M90 0v700h420v-64h-350v-244h290v-64h-290v-264h350v-64h-420zM300 763q-70 0 -107.5 36t-37.5 101h62q0 -79 83 -79q85 0 85 79h60q0 -65 -37.5 -101t-107.5 -36z" />
    <glyph glyph-name="ebreve" unicode="&#x115;" horiz-adv-x="540" 
d="M270 -7q-100 0 -157.5 61.5t-57.5 173.5v44q0 111 58 173t157 62t157 -62t58 -173v-41h-362v-3q0 -84 39.5 -128.5t107.5 -44.5q107 0 142 91h68q-16 -69 -69 -111t-141 -42zM270 445q-65 0 -104 -40.5t-43 -115.5h293q-4 76 -42.5 116t-103.5 40zM270 563
q-63 0 -99 36.5t-36 100.5h60q0 -39 19.5 -60t55.5 -21q77 0 77 81h58q0 -64 -36 -100.5t-99 -36.5z" />
    <glyph glyph-name="Edotaccent" unicode="&#x116;" horiz-adv-x="560" 
d="M90 0v700h420v-64h-350v-244h290v-64h-290v-264h350v-64h-420zM300 788q-20 0 -33.5 14t-13.5 33t13.5 33t33.5 14t33.5 -14t13.5 -33t-13.5 -33t-33.5 -14z" />
    <glyph glyph-name="edotaccent" unicode="&#x117;" horiz-adv-x="540" 
d="M270 -7q-100 0 -157.5 61.5t-57.5 173.5v44q0 111 58 173t157 62t157 -62t58 -173v-41h-362v-3q0 -84 39.5 -128.5t107.5 -44.5q107 0 142 91h68q-16 -69 -69 -111t-141 -42zM270 445q-65 0 -104 -40.5t-43 -115.5h293q-4 76 -42.5 116t-103.5 40zM270 588
q-20 0 -33.5 14t-13.5 33t13.5 33t33.5 14t33.5 -14t13.5 -33t-13.5 -33t-33.5 -14z" />
    <glyph glyph-name="Eogonek" unicode="&#x118;" horiz-adv-x="560" 
d="M90 0v700h420v-64h-350v-244h290v-64h-290v-264h350v-64q-53 -49 -68.5 -69.5t-15.5 -40.5q0 -32 34 -32h50v-58h-55q-47 0 -71 21t-24 59q0 29 14 55.5t56 64.5h-340z" />
    <glyph glyph-name="eogonek" unicode="&#x119;" horiz-adv-x="540" 
d="M450 -200h-55q-47 0 -71 21t-24 59q0 27 10 54t39 74q-34 -15 -79 -15q-99 0 -157 62t-58 173v44q0 111 58 173t157 62t157 -62t58 -173v-41h-362v-3q0 -85 39 -129t108 -44q107 0 142 91h68q-7 -32 -27 -66q-11 -20 -27 -46.5t-22.5 -37.5t-16 -28t-12.5 -24.5t-7 -19
t-5 -20t-1 -19.5q0 -31 38 -31h50v-54zM270 445q-65 0 -104 -40.5t-43 -115.5h293q-4 76 -42.5 116t-103.5 40z" />
    <glyph glyph-name="Ecaron" unicode="&#x11a;" horiz-adv-x="560" 
d="M90 0v700h420v-64h-350v-244h290v-64h-290v-264h350v-64h-420zM259 760l-114 150h72l83 -98l83 98h72l-114 -150h-82z" />
    <glyph glyph-name="ecaron" unicode="&#x11b;" horiz-adv-x="540" 
d="M270 -7q-100 0 -157.5 61.5t-57.5 173.5v44q0 111 58 173t157 62t157 -62t58 -173v-41h-362v-3q0 -84 39.5 -128.5t107.5 -44.5q107 0 142 91h68q-16 -69 -69 -111t-141 -42zM270 445q-65 0 -104 -40.5t-43 -115.5h293q-4 76 -42.5 116t-103.5 40zM233 560l-118 150h68
l87 -100l87 100h68l-118 -150h-74z" />
    <glyph glyph-name="Gcircumflex" unicode="&#x11c;" horiz-adv-x="680" 
d="M340 279v64h275v-33q0 -151 -73 -234t-192 -83q-128 0 -206.5 86.5t-78.5 238.5v64q0 151 79.5 238t205.5 87q105 0 174 -58t85 -144h-74q-16 59 -64 97.5t-121 38.5q-95 0 -154 -68.5t-59 -190.5v-64q0 -121 60 -190t153 -69q90 0 141.5 54.5t58.5 165.5h-210zM433 760
l-83 97l-83 -97h-72l114 150h82l114 -150h-72z" />
    <glyph glyph-name="gcircumflex" unicode="&#x11d;" horiz-adv-x="560" 
d="M251 13q-89 0 -142.5 59t-53.5 166v44q0 105 54.5 165t141.5 60q115 0 165 -89l8 82h51v-500q0 -99 -53 -153t-149 -54q-177 0 -193 152h66q8 -45 37 -67.5t90 -22.5q69 0 102.5 35.5t33.5 109.5v91q-51 -78 -158 -78zM266 75q62 0 101.5 42t41.5 113v59q-2 73 -41 114.5
t-102 41.5q-66 0 -104.5 -42.5t-38.5 -120.5v-44q0 -77 39 -120t104 -43zM352 560l-87 99l-87 -99h-68l118 150h74l118 -150h-68z" />
    <glyph glyph-name="Gbreve" unicode="&#x11e;" horiz-adv-x="680" 
d="M340 279v64h275v-33q0 -151 -73 -234t-192 -83q-128 0 -206.5 86.5t-78.5 238.5v64q0 151 79.5 238t205.5 87q105 0 174 -58t85 -144h-74q-16 59 -64 97.5t-121 38.5q-95 0 -154 -68.5t-59 -190.5v-64q0 -121 60 -190t153 -69q90 0 141.5 54.5t58.5 165.5h-210zM350 763
q-70 0 -107.5 36t-37.5 101h62q0 -79 83 -79q85 0 85 79h60q0 -65 -37.5 -101t-107.5 -36z" />
    <glyph glyph-name="gbreve" unicode="&#x11f;" horiz-adv-x="560" 
d="M251 13q-89 0 -142.5 59t-53.5 166v44q0 105 54.5 165t141.5 60q115 0 165 -89l8 82h51v-500q0 -99 -53 -153t-149 -54q-177 0 -193 152h66q8 -45 37 -67.5t90 -22.5q69 0 102.5 35.5t33.5 109.5v91q-51 -78 -158 -78zM266 75q62 0 101.5 42t41.5 113v59q-2 73 -41 114.5
t-102 41.5q-66 0 -104.5 -42.5t-38.5 -120.5v-44q0 -77 39 -120t104 -43zM265 563q-63 0 -99 36.5t-36 100.5h60q0 -39 19.5 -60t55.5 -21q77 0 77 81h58q0 -64 -36 -100.5t-99 -36.5z" />
    <glyph glyph-name="Gdotaccent" unicode="&#x120;" horiz-adv-x="680" 
d="M340 279v64h275v-33q0 -151 -73 -234t-192 -83q-128 0 -206.5 86.5t-78.5 238.5v64q0 151 79.5 238t205.5 87q105 0 174 -58t85 -144h-74q-16 59 -64 97.5t-121 38.5q-95 0 -154 -68.5t-59 -190.5v-64q0 -121 60 -190t153 -69q90 0 141.5 54.5t58.5 165.5h-210zM350 788
q-20 0 -33.5 14t-13.5 33t13.5 33t33.5 14t33.5 -14t13.5 -33t-13.5 -33t-33.5 -14z" />
    <glyph glyph-name="gdotaccent" unicode="&#x121;" horiz-adv-x="560" 
d="M251 13q-89 0 -142.5 59t-53.5 166v44q0 105 54.5 165t141.5 60q115 0 165 -89l8 82h51v-500q0 -99 -53 -153t-149 -54q-177 0 -193 152h66q8 -45 37 -67.5t90 -22.5q69 0 102.5 35.5t33.5 109.5v91q-51 -78 -158 -78zM266 75q62 0 101.5 42t41.5 113v59q-2 73 -41 114.5
t-102 41.5q-66 0 -104.5 -42.5t-38.5 -120.5v-44q0 -77 39 -120t104 -43zM265 588q-19 0 -33 14t-14 33t14 33t33 14t33 -14t14 -33t-14 -33t-33 -14z" />
    <glyph glyph-name="Gcommaaccent" unicode="&#x122;" horiz-adv-x="680" 
d="M340 279v64h275v-33q0 -151 -73 -234t-192 -83q-128 0 -206.5 86.5t-78.5 238.5v64q0 151 79.5 238t205.5 87q105 0 174 -58t85 -144h-74q-16 59 -64 97.5t-121 38.5q-95 0 -154 -68.5t-59 -190.5v-64q0 -121 60 -190t153 -69q90 0 141.5 54.5t58.5 165.5h-210zM237 -200
l76 150h74l-96 -150h-54z" />
    <glyph glyph-name="gcommaaccent" unicode="&#x123;" horiz-adv-x="560" 
d="M251 13q-89 0 -142.5 59t-53.5 166v44q0 105 54.5 165t141.5 60q115 0 165 -89l8 82h51v-500q0 -99 -53 -153t-149 -54q-177 0 -193 152h66q8 -45 37 -67.5t90 -22.5q69 0 102.5 35.5t33.5 109.5v91q-51 -78 -158 -78zM266 75q62 0 101.5 42t41.5 113v59q-2 73 -41 114.5
t-102 41.5q-66 0 -104.5 -42.5t-38.5 -120.5v-44q0 -77 39 -120t104 -43zM380 700l-80 -150h-70l100 150h50z" />
    <glyph glyph-name="Hcircumflex" unicode="&#x124;" horiz-adv-x="710" 
d="M550 0v328h-390v-328h-70v700h70v-308h390v308h70v-700h-70zM438 760l-83 97l-83 -97h-72l114 150h82l114 -150h-72z" />
    <glyph glyph-name="hcircumflex" unicode="&#x125;" horiz-adv-x="575" 
d="M85 0v700h66v-276q50 83 159 83q87 0 136 -53.5t49 -153.5v-300h-66v300q0 72 -33.5 108.5t-95.5 36.5q-65 0 -106 -38.5t-43 -100.5v-306h-66zM205 760l-87 99l-87 -99h-68l118 150h74l118 -150h-68z" />
    <glyph glyph-name="Hbar" unicode="&#x126;" horiz-adv-x="760" 
d="M15 531v58h100v111h70v-111h390v111h70v-111h100v-58h-100v-531h-70v328h-390v-328h-70v531h-100zM185 392h390v139h-390v-139z" />
    <glyph glyph-name="hbar" unicode="&#x127;" horiz-adv-x="575" 
d="M429 0v270q0 72 -33.5 108.5t-95.5 36.5q-65 0 -106 -38.5t-43 -100.5v-276h-66v534h-90v52h90v114h66v-114h164v-52h-164v-140q50 83 159 83q87 0 136 -53.5t49 -153.5v-270h-66z" />
    <glyph glyph-name="Itilde" unicode="&#x128;" horiz-adv-x="270" 
d="M100 0v700h70v-700h-70zM205 770q-32 0 -57 17.5t-45 35t-38 17.5q-45 0 -45 -55h-50q0 57 25 86t70 29q32 0 57 -17.5t45 -35t38 -17.5q45 0 45 55h50q0 -57 -25 -86t-70 -29z" />
    <glyph glyph-name="itilde" unicode="&#x129;" horiz-adv-x="256" 
d="M95 0v500h66v-500h-66zM193 570q-29 0 -53 18t-42.5 36t-34.5 18q-40 0 -40 -57h-50q0 57 24.5 86t65.5 29q29 0 53 -18t42.5 -36t34.5 -18q40 0 40 57h50q0 -57 -24.5 -86t-65.5 -29z" />
    <glyph glyph-name="Imacron" unicode="&#x12a;" horiz-adv-x="270" 
d="M100 0v700h70v-700h-70zM-10 806v58h290v-58h-290z" />
    <glyph glyph-name="imacron" unicode="&#x12b;" horiz-adv-x="256" 
d="M95 0v500h66v-500h-66zM-7 607v56h270v-56h-270z" />
    <glyph glyph-name="Ibreve" unicode="&#x12c;" horiz-adv-x="270" 
d="M100 0v700h70v-700h-70zM135 763q-70 0 -107.5 36t-37.5 101h62q0 -79 83 -79q85 0 85 79h60q0 -65 -37.5 -101t-107.5 -36z" />
    <glyph glyph-name="ibreve" unicode="&#x12d;" horiz-adv-x="256" 
d="M95 0v500h66v-500h-66zM128 563q-63 0 -99 36.5t-36 100.5h60q0 -39 19.5 -60t55.5 -21q77 0 77 81h58q0 -64 -36 -100.5t-99 -36.5z" />
    <glyph glyph-name="Iogonek" unicode="&#x12e;" horiz-adv-x="270" 
d="M170 -200h-55q-47 0 -71 21t-24 59q0 31 15.5 58.5t64.5 69.5v692h70v-700q-53 -49 -68.5 -69.5t-15.5 -40.5q0 -32 34 -32h50v-58z" />
    <glyph glyph-name="iogonek" unicode="&#x12f;" horiz-adv-x="256" 
d="M161 -200h-55q-47 0 -71 21t-24 59q0 30 16.5 58.5t67.5 71.5v490h66v-500q-56 -50 -72 -71t-16 -44q0 -31 38 -31h50v-54zM128 588q-20 0 -33.5 14t-13.5 33t13.5 33t33.5 14t33.5 -14t13.5 -33t-13.5 -33t-33.5 -14z" />
    <glyph glyph-name="Idotaccent" unicode="&#x130;" horiz-adv-x="270" 
d="M100 0v700h70v-700h-70zM135 788q-19 0 -33 14t-14 33t14 33t33 14t33 -14t14 -33t-14 -33t-33 -14z" />
    <glyph glyph-name="dotlessi" unicode="&#x131;" horiz-adv-x="256" 
d="M95 0v500h66v-500h-66z" />
    <glyph glyph-name="IJ" unicode="&#x132;" horiz-adv-x="800" 
d="M100 0v700h70v-700h-70zM505 -7q-93 0 -147.5 58.5t-62.5 163.5h70q4 -76 40.5 -116t99.5 -40q140 0 140 191v450h70v-450q0 -127 -56 -192t-154 -65z" />
    <glyph glyph-name="ij" unicode="&#x133;" horiz-adv-x="492" 
d="M95 0v500h66v-500h-66zM217 -200v60h34q42 0 61 25t19 85v530h66v-530q0 -92 -35 -131t-111 -39h-34zM364 588q-20 0 -33.5 14t-13.5 33t13.5 33t33.5 14t33.5 -14t13.5 -33t-13.5 -33t-33.5 -14zM128 588q-20 0 -33.5 14t-13.5 33t13.5 33t33.5 14t33.5 -14t13.5 -33
t-13.5 -33t-33.5 -14z" />
    <glyph glyph-name="Jcircumflex" unicode="&#x134;" horiz-adv-x="535" 
d="M240 -7q-93 0 -147.5 58.5t-62.5 163.5h70q4 -76 40.5 -116t99.5 -40q140 0 140 191v450h70v-450q0 -127 -56 -192t-154 -65zM498 760l-83 97l-83 -97h-72l114 150h82l114 -150h-72z" />
    <glyph glyph-name="jcircumflex" unicode="&#x135;" horiz-adv-x="256" 
d="M-19 -200v60h34q42 0 61 25t19 85v530h66v-530q0 -92 -35 -131t-111 -39h-34zM215 560l-87 99l-87 -99h-68l118 150h74l118 -150h-68z" />
    <glyph glyph-name="Kcommaaccent" unicode="&#x136;" horiz-adv-x="635" 
d="M514 0l-250 339l-104 -118v-221h-70v700h70v-390l334 390h86l-268 -310l288 -390h-86zM224 -200l76 150h74l-96 -150h-54z" />
    <glyph glyph-name="kcommaaccent" unicode="&#x137;" horiz-adv-x="510" 
d="M403 0l-164 233l-88 -104v-129h-66v700h66v-481l232 281h82l-182 -219l202 -281h-82zM162 -200l80 150h70l-100 -150h-50z" />
    <glyph glyph-name="kgreenlandic" unicode="&#x138;" horiz-adv-x="510" 
d="M403 0l-164 233l-88 -104v-129h-66v500h66v-281l232 281h82l-182 -219l202 -281h-82z" />
    <glyph glyph-name="Lacute" unicode="&#x139;" horiz-adv-x="515" 
d="M90 0v700h70v-636h330v-64h-400zM89 760l114 150h86l-128 -150h-72z" />
    <glyph glyph-name="lacute" unicode="&#x13a;" horiz-adv-x="285" 
d="M215 0q-63 0 -96.5 34t-33.5 98v568h66v-560q0 -80 72 -80h32v-60h-40zM83 760l118 150h82l-130 -150h-70z" />
    <glyph glyph-name="Lcommaaccent" unicode="&#x13b;" horiz-adv-x="515" 
d="M90 0v700h70v-636h330v-64h-400zM177 -200l76 150h74l-96 -150h-54z" />
    <glyph glyph-name="lcommaaccent" unicode="&#x13c;" horiz-adv-x="285" 
d="M215 0q-63 0 -96.5 34t-33.5 98v568h66v-560q0 -80 72 -80h32v-60h-40zM65 -200l80 150h70l-100 -150h-50z" />
    <glyph glyph-name="Lcaron" unicode="&#x13d;" horiz-adv-x="515" 
d="M295 450v250h70l-15 -250h-55zM90 0v700h70v-636h330v-64h-400z" />
    <glyph glyph-name="lcaron" unicode="&#x13e;" horiz-adv-x="285" 
d="M226 525v175h66l-10 -175h-56zM220 0q-63 0 -96.5 34t-33.5 98v568h66v-560q0 -80 72 -80h32v-60h-40z" />
    <glyph glyph-name="Ldot" unicode="&#x13f;" horiz-adv-x="515" 
d="M90 0v700h70v-636h330v-64h-400zM382 343q-20 0 -33.5 13.5t-13.5 33.5t13.5 33.5t33.5 13.5t33.5 -13.5t13.5 -33.5t-13.5 -33.5t-33.5 -13.5z" />
    <glyph glyph-name="ldot" unicode="&#x140;" horiz-adv-x="325" 
d="M215 0q-63 0 -96.5 34t-33.5 98v568h66v-560q0 -80 72 -80h32v-60h-40zM280 323q-20 0 -33.5 13.5t-13.5 33.5t13.5 33.5t33.5 13.5t33.5 -13.5t13.5 -33.5t-13.5 -33.5t-33.5 -13.5z" />
    <glyph glyph-name="Lslash" unicode="&#x141;" horiz-adv-x="540" 
d="M15 232v66l100 60v342h70v-299l175 106v-66l-175 -106v-271h330v-64h-400v292z" />
    <glyph glyph-name="lslash" unicode="&#x142;" horiz-adv-x="305" 
d="M15 293v64l90 55v288h66v-248l90 55v-64l-90 -55v-248q0 -80 72 -80h32v-60h-40q-63 0 -96.5 34t-33.5 98v216z" />
    <glyph glyph-name="Nacute" unicode="&#x143;" horiz-adv-x="710" 
d="M522 0l-306 520l-56 103v-623h-70v700h98l306 -520l56 -103v623h70v-700h-98zM319 760l114 150h86l-128 -150h-72z" />
    <glyph glyph-name="nacute" unicode="&#x144;" horiz-adv-x="575" 
d="M85 0v500h51l8 -82q52 89 166 89q87 0 136 -53.5t49 -153.5v-300h-66v300q0 72 -33.5 108.5t-95.5 36.5q-66 0 -106.5 -38t-42.5 -101v-306h-66zM255 560l118 150h82l-130 -150h-70z" />
    <glyph glyph-name="Ncommaaccent" unicode="&#x145;" horiz-adv-x="710" 
d="M522 0l-306 520l-56 103v-623h-70v700h98l306 -520l56 -103v623h70v-700h-98zM242 -200l76 150h74l-96 -150h-54z" />
    <glyph glyph-name="ncommaaccent" unicode="&#x146;" horiz-adv-x="575" 
d="M85 0v500h51l8 -82q52 89 166 89q87 0 136 -53.5t49 -153.5v-300h-66v300q0 72 -33.5 108.5t-95.5 36.5q-66 0 -106.5 -38t-42.5 -101v-306h-66zM175 -200l80 150h70l-100 -150h-50z" />
    <glyph glyph-name="Ncaron" unicode="&#x147;" horiz-adv-x="710" 
d="M522 0l-306 520l-56 103v-623h-70v700h98l306 -520l56 -103v623h70v-700h-98zM314 760l-114 150h72l83 -98l83 98h72l-114 -150h-82z" />
    <glyph glyph-name="ncaron" unicode="&#x148;" horiz-adv-x="575" 
d="M85 0v500h51l8 -82q52 89 166 89q87 0 136 -53.5t49 -153.5v-300h-66v300q0 72 -33.5 108.5t-95.5 36.5q-66 0 -106.5 -38t-42.5 -101v-306h-66zM253 560l-118 150h68l87 -100l87 100h68l-118 -150h-74z" />
    <glyph glyph-name="napostrophe" unicode="&#x149;" horiz-adv-x="660" 
d="M150 0v500h51l8 -82q52 89 166 89q87 0 136 -53.5t49 -153.5v-300h-66v300q0 72 -33.5 108.5t-95.5 36.5q-66 0 -106.5 -38t-42.5 -101v-306h-66zM10 460l70 240h70l-78 -240h-62z" />
    <glyph glyph-name="Eng" unicode="&#x14a;" horiz-adv-x="710" 
d="M436 -200v64h34q42 0 61 24.5t19 81.5v30l-329 520l-61 106v-626h-70v700h98l303 -480l59 -104v584h70v-730q0 -92 -35.5 -131t-114.5 -39h-34z" />
    <glyph glyph-name="eng" unicode="&#x14b;" horiz-adv-x="575" 
d="M315 -200v60h34q42 0 61 25t19 85v330q0 72 -33.5 108.5t-95.5 36.5q-67 0 -108 -40t-41 -105v-300h-66v500h51l8 -82q52 89 166 89q87 0 136 -53.5t49 -153.5v-330q0 -92 -35 -131t-111 -39h-34z" />
    <glyph glyph-name="Omacron" unicode="&#x14c;" horiz-adv-x="710" 
d="M355 -7q-129 0 -209.5 87.5t-80.5 237.5v64q0 149 81 237t209 88q129 0 209.5 -87.5t80.5 -237.5v-64q0 -149 -81 -237t-209 -88zM355 59q96 0 157 69t61 190v64q0 120 -61.5 189.5t-156.5 69.5q-96 0 -157 -69t-61 -190v-64q0 -120 61.5 -189.5t156.5 -69.5zM210 806v58
h290v-58h-290z" />
    <glyph glyph-name="omacron" unicode="&#x14d;" horiz-adv-x="550" 
d="M275 -7q-101 0 -160.5 62.5t-59.5 172.5v44q0 109 60 172t160 63q101 0 160.5 -62.5t59.5 -172.5v-44q0 -109 -60 -172t-160 -63zM275 55q69 0 110.5 45.5t41.5 127.5v44q0 81 -42 127t-110 46q-69 0 -110.5 -45.5t-41.5 -127.5v-44q0 -81 42 -127t110 -46zM140 607v56
h270v-56h-270z" />
    <glyph glyph-name="Obreve" unicode="&#x14e;" horiz-adv-x="710" 
d="M355 -7q-129 0 -209.5 87.5t-80.5 237.5v64q0 149 81 237t209 88q129 0 209.5 -87.5t80.5 -237.5v-64q0 -149 -81 -237t-209 -88zM355 59q96 0 157 69t61 190v64q0 120 -61.5 189.5t-156.5 69.5q-96 0 -157 -69t-61 -190v-64q0 -120 61.5 -189.5t156.5 -69.5zM355 763
q-70 0 -107.5 36t-37.5 101h62q0 -79 83 -79q85 0 85 79h60q0 -65 -37.5 -101t-107.5 -36z" />
    <glyph glyph-name="obreve" unicode="&#x14f;" horiz-adv-x="550" 
d="M275 -7q-101 0 -160.5 62.5t-59.5 172.5v44q0 109 60 172t160 63q101 0 160.5 -62.5t59.5 -172.5v-44q0 -109 -60 -172t-160 -63zM275 55q69 0 110.5 45.5t41.5 127.5v44q0 81 -42 127t-110 46q-69 0 -110.5 -45.5t-41.5 -127.5v-44q0 -81 42 -127t110 -46zM275 563
q-63 0 -99 36.5t-36 100.5h60q0 -39 19.5 -60t55.5 -21q77 0 77 81h58q0 -64 -36 -100.5t-99 -36.5z" />
    <glyph glyph-name="Ohungarumlaut" unicode="&#x150;" horiz-adv-x="710" 
d="M355 -7q-129 0 -209.5 87.5t-80.5 237.5v64q0 149 81 237t209 88q129 0 209.5 -87.5t80.5 -237.5v-64q0 -149 -81 -237t-209 -88zM355 59q96 0 157 69t61 190v64q0 120 -61.5 189.5t-156.5 69.5q-96 0 -157 -69t-61 -190v-64q0 -120 61.5 -189.5t156.5 -69.5zM249 760
l100 150h84l-114 -150h-70zM389 760l114 150h86l-128 -150h-72z" />
    <glyph glyph-name="ohungarumlaut" unicode="&#x151;" horiz-adv-x="550" 
d="M275 -7q-101 0 -160.5 62.5t-59.5 172.5v44q0 109 60 172t160 63q101 0 160.5 -62.5t59.5 -172.5v-44q0 -109 -60 -172t-160 -63zM275 55q69 0 110.5 45.5t41.5 127.5v44q0 81 -42 127t-110 46q-69 0 -110.5 -45.5t-41.5 -127.5v-44q0 -81 42 -127t110 -46zM170 560
l106 150h80l-118 -150h-68zM310 560l118 150h82l-130 -150h-70z" />
    <glyph glyph-name="OE" unicode="&#x152;" horiz-adv-x="960" 
d="M500 0v27q-61 -34 -140 -34q-132 0 -213.5 87t-81.5 238v64q0 149 82 237t214 88q75 0 139 -34v27h420v-64h-350v-244h290v-64h-290v-264h350v-64h-420zM360 59q78 0 140 44v494q-65 44 -139 44q-100 0 -162 -69t-62 -190v-64q0 -120 62.5 -189.5t160.5 -69.5z" />
    <glyph glyph-name="oe" unicode="&#x153;" horiz-adv-x="910" 
d="M641 -7q-129 0 -181 104q-27 -50 -75.5 -77t-109.5 -27q-100 0 -160 63t-60 172v44q0 109 60 172t160 63q129 0 185 -104q52 104 181 104q98 0 156 -62t58 -173v-41h-360v-3q0 -85 39 -129t107 -44q106 0 141 91h68q-16 -69 -69 -111t-140 -42zM275 55q69 0 110.5 45.5
t41.5 127.5v44q0 82 -41.5 127.5t-110.5 45.5t-110.5 -45.5t-41.5 -127.5v-44q0 -82 41.5 -127.5t110.5 -45.5zM641 445q-64 0 -103 -41t-43 -115h291q-4 76 -42.5 116t-102.5 40z" />
    <glyph glyph-name="Racute" unicode="&#x154;" horiz-adv-x="620" 
d="M502 0l-151 288q-26 -2 -41 -2h-150v-286h-70v700h220q125 0 187.5 -54t62.5 -153q0 -150 -140 -193l160 -300h-78zM310 636h-150v-286h150q90 0 134 37.5t44 105.5t-44 105.5t-134 37.5zM254 760l114 150h86l-128 -150h-72z" />
    <glyph glyph-name="racute" unicode="&#x155;" horiz-adv-x="380" 
d="M85 0v500h51l8 -82q50 89 161 89h50v-62h-50q-69 0 -110.5 -38t-43.5 -101v-306h-66zM185 560l118 150h82l-130 -150h-70z" />
    <glyph glyph-name="Rcommaaccent" unicode="&#x156;" horiz-adv-x="620" 
d="M502 0l-151 288q-26 -2 -41 -2h-150v-286h-70v700h220q125 0 187.5 -54t62.5 -153q0 -150 -140 -193l160 -300h-78zM310 636h-150v-286h150q90 0 134 37.5t44 105.5t-44 105.5t-134 37.5zM218 -200l76 150h74l-96 -150h-54z" />
    <glyph glyph-name="rcommaaccent" unicode="&#x157;" horiz-adv-x="380" 
d="M85 0v500h51l8 -82q50 89 161 89h50v-62h-50q-69 0 -110.5 -38t-43.5 -101v-306h-66zM3 -200l80 150h70l-100 -150h-50z" />
    <glyph glyph-name="Rcaron" unicode="&#x158;" horiz-adv-x="620" 
d="M502 0l-151 288q-26 -2 -41 -2h-150v-286h-70v700h220q125 0 187.5 -54t62.5 -153q0 -150 -140 -193l160 -300h-78zM310 636h-150v-286h150q90 0 134 37.5t44 105.5t-44 105.5t-134 37.5zM249 760l-114 150h72l83 -98l83 98h72l-114 -150h-82z" />
    <glyph glyph-name="rcaron" unicode="&#x159;" horiz-adv-x="380" 
d="M85 0v500h51l8 -82q50 89 161 89h50v-62h-50q-69 0 -110.5 -38t-43.5 -101v-306h-66zM183 560l-118 150h68l87 -100l87 100h68l-118 -150h-74z" />
    <glyph glyph-name="Sacute" unicode="&#x15a;" horiz-adv-x="610" 
d="M305 -7q-230 0 -245 222h74q8 -80 49 -118t122 -38q85 0 129 35t44 91q0 45 -30 74.5t-75.5 43t-98.5 30.5t-98.5 35t-75.5 58t-30 99q0 80 61.5 131t173.5 51q219 0 235 -202h-74q-9 69 -46.5 102.5t-114.5 33.5q-80 0 -121.5 -32t-41.5 -84q0 -37 22.5 -62t58.5 -39.5
t79.5 -26t87 -26.5t79.5 -36t58.5 -59t22.5 -91q0 -88 -62.5 -140t-182.5 -52zM269 760l114 150h86l-128 -150h-72z" />
    <glyph glyph-name="sacute" unicode="&#x15b;" horiz-adv-x="490" 
d="M245 -7q-174 0 -190 152h68q8 -48 35 -69t87 -21q66 0 94 20t28 60q0 37 -31 57.5t-75.5 30t-89 21.5t-75.5 43t-31 83q0 61 46 99t134 38q81 0 126.5 -38t53.5 -104h-68q-8 40 -33.5 60t-78.5 20q-112 0 -112 -75q0 -28 22.5 -46t56 -25t72.5 -17.5t72.5 -23.5t56 -44.5
t22.5 -78.5q0 -65 -47.5 -103.5t-142.5 -38.5zM210 560l118 150h82l-130 -150h-70z" />
    <glyph glyph-name="Scircumflex" unicode="&#x15c;" horiz-adv-x="610" 
d="M305 -7q-230 0 -245 222h74q8 -80 49 -118t122 -38q85 0 129 35t44 91q0 45 -30 74.5t-75.5 43t-98.5 30.5t-98.5 35t-75.5 58t-30 99q0 80 61.5 131t173.5 51q219 0 235 -202h-74q-9 69 -46.5 102.5t-114.5 33.5q-80 0 -121.5 -32t-41.5 -84q0 -37 22.5 -62t58.5 -39.5
t79.5 -26t87 -26.5t79.5 -36t58.5 -59t22.5 -91q0 -88 -62.5 -140t-182.5 -52zM388 760l-83 97l-83 -97h-72l114 150h82l114 -150h-72z" />
    <glyph glyph-name="scircumflex" unicode="&#x15d;" horiz-adv-x="490" 
d="M245 -7q-174 0 -190 152h68q8 -48 35 -69t87 -21q66 0 94 20t28 60q0 37 -31 57.5t-75.5 30t-89 21.5t-75.5 43t-31 83q0 61 46 99t134 38q81 0 126.5 -38t53.5 -104h-68q-8 40 -33.5 60t-78.5 20q-112 0 -112 -75q0 -28 22.5 -46t56 -25t72.5 -17.5t72.5 -23.5t56 -44.5
t22.5 -78.5q0 -65 -47.5 -103.5t-142.5 -38.5zM332 560l-87 99l-87 -99h-68l118 150h74l118 -150h-68z" />
    <glyph glyph-name="Scedilla" unicode="&#x15e;" horiz-adv-x="610" 
d="M259 -82l18 76q-203 12 -217 221h74q8 -80 49 -118t122 -38q85 0 129 35t44 91q0 45 -30 74.5t-75.5 43t-98.5 30.5t-98.5 35t-75.5 58t-30 99q0 80 61.5 131t173.5 51q219 0 235 -202h-74q-9 69 -46.5 102.5t-114.5 33.5q-80 0 -121.5 -32t-41.5 -84q0 -37 22.5 -62
t58.5 -39.5t79.5 -26t87 -26.5t79.5 -36t58.5 -59t22.5 -91q0 -83 -56 -134.5t-165 -56.5l-8 -34q64 -12 64 -76q0 -37 -24.5 -60.5t-65.5 -23.5h-70v50h66q36 0 36 34t-36 34h-32z" />
    <glyph glyph-name="scedilla" unicode="&#x15f;" horiz-adv-x="490" 
d="M199 -82l18 76q-148 11 -162 151h68q8 -48 35 -69t87 -21q66 0 94 20t28 60q0 37 -31 57.5t-75.5 30t-89 21.5t-75.5 43t-31 83q0 61 46 99t134 38q81 0 126.5 -38t53.5 -104h-68q-8 40 -33.5 60t-78.5 20q-112 0 -112 -75q0 -28 22.5 -46t56 -25t72.5 -17.5t72.5 -23.5
t56 -44.5t22.5 -78.5q0 -61 -41.5 -98.5t-124.5 -42.5l-8 -34q64 -12 64 -76q0 -37 -24.5 -60.5t-65.5 -23.5h-70v50h65q37 0 37 34t-37 34h-31z" />
    <glyph glyph-name="Scaron" unicode="&#x160;" horiz-adv-x="610" 
d="M305 -7q-230 0 -245 222h74q8 -80 49 -118t122 -38q85 0 129 35t44 91q0 45 -30 74.5t-75.5 43t-98.5 30.5t-98.5 35t-75.5 58t-30 99q0 80 61.5 131t173.5 51q219 0 235 -202h-74q-9 69 -46.5 102.5t-114.5 33.5q-80 0 -121.5 -32t-41.5 -84q0 -37 22.5 -62t58.5 -39.5
t79.5 -26t87 -26.5t79.5 -36t58.5 -59t22.5 -91q0 -88 -62.5 -140t-182.5 -52zM264 760l-114 150h72l83 -98l83 98h72l-114 -150h-82z" />
    <glyph glyph-name="scaron" unicode="&#x161;" horiz-adv-x="490" 
d="M245 -7q-174 0 -190 152h68q8 -48 35 -69t87 -21q66 0 94 20t28 60q0 37 -31 57.5t-75.5 30t-89 21.5t-75.5 43t-31 83q0 61 46 99t134 38q81 0 126.5 -38t53.5 -104h-68q-8 40 -33.5 60t-78.5 20q-112 0 -112 -75q0 -28 22.5 -46t56 -25t72.5 -17.5t72.5 -23.5t56 -44.5
t22.5 -78.5q0 -65 -47.5 -103.5t-142.5 -38.5zM208 560l-118 150h68l87 -100l87 100h68l-118 -150h-74z" />
    <glyph glyph-name="Tcedilla" unicode="&#x162;" horiz-adv-x="580" 
d="M244 -82l20 82h-9v636h-230v64h530v-64h-230v-636h-9l-10 -40q64 -12 64 -76q0 -37 -24.5 -60.5t-65.5 -23.5h-70v50h66q36 0 36 34t-36 34h-32z" />
    <glyph glyph-name="tcedilla" unicode="&#x163;" horiz-adv-x="360" 
d="M184 -82l21 86q-90 20 -90 128v308h-90v60h90v140h66v-140h134v-60h-134v-300q0 -80 74 -80h70v-60h-69l-10 -40q64 -12 64 -76q0 -37 -24.5 -60.5t-65.5 -23.5h-70v50h65q37 0 37 34t-37 34h-31z" />
    <glyph glyph-name="Tcaron" unicode="&#x164;" horiz-adv-x="580" 
d="M25 636v64h530v-64h-230v-636h-70v636h-230zM249 760l-114 150h72l83 -98l83 98h72l-114 -150h-82z" />
    <glyph glyph-name="tcaron" unicode="&#x165;" horiz-adv-x="360" 
d="M25 440v60h90v140h66v-140h134v-60h-134v-300q0 -80 74 -80h70v-60h-78q-65 0 -98.5 34t-33.5 98v308h-90zM251 550v175h66l-10 -175h-56z" />
    <glyph glyph-name="Tbar" unicode="&#x166;" horiz-adv-x="580" 
d="M25 636v64h530v-64h-230v-257h115v-58h-115v-321h-70v321h-115v58h115v257h-230z" />
    <glyph glyph-name="tbar" unicode="&#x167;" horiz-adv-x="380" 
d="M35 440v60h90v140h66v-140h134v-60h-134v-150h134v-60h-134v-90q0 -80 74 -80h70v-60h-78q-65 0 -98.5 34t-33.5 98v98h-90v60h90v150h-90z" />
    <glyph glyph-name="Utilde" unicode="&#x168;" horiz-adv-x="690" 
d="M345 -7q-120 0 -190 74t-70 208v425h70v-425q0 -103 51.5 -159.5t138.5 -56.5q89 0 139.5 55.5t50.5 160.5v425h70v-425q0 -133 -70.5 -207.5t-189.5 -74.5zM415 770q-32 0 -57 17.5t-45 35t-38 17.5q-45 0 -45 -55h-50q0 57 25 86t70 29q32 0 57 -17.5t45 -35t38 -17.5
q45 0 45 55h50q0 -57 -25 -86t-70 -29z" />
    <glyph glyph-name="utilde" unicode="&#x169;" horiz-adv-x="565" 
d="M260 -7q-83 0 -131.5 53.5t-48.5 153.5v300h66v-300q0 -71 33 -108t91 -37q64 0 104 40.5t40 104.5v300h66v-500h-51l-8 82q-52 -89 -161 -89zM345 570q-29 0 -53 18t-42.5 36t-34.5 18q-40 0 -40 -57h-50q0 57 24.5 86t65.5 29q29 0 53 -18t42.5 -36t34.5 -18
q40 0 40 57h50q0 -57 -24.5 -86t-65.5 -29z" />
    <glyph glyph-name="Umacron" unicode="&#x16a;" horiz-adv-x="690" 
d="M345 -7q-120 0 -190 74t-70 208v425h70v-425q0 -103 51.5 -159.5t138.5 -56.5q89 0 139.5 55.5t50.5 160.5v425h70v-425q0 -133 -70.5 -207.5t-189.5 -74.5zM200 806v58h290v-58h-290z" />
    <glyph glyph-name="umacron" unicode="&#x16b;" horiz-adv-x="565" 
d="M260 -7q-83 0 -131.5 53.5t-48.5 153.5v300h66v-300q0 -71 33 -108t91 -37q64 0 104 40.5t40 104.5v300h66v-500h-51l-8 82q-52 -89 -161 -89zM145 607v56h270v-56h-270z" />
    <glyph glyph-name="Ubreve" unicode="&#x16c;" horiz-adv-x="690" 
d="M345 -7q-120 0 -190 74t-70 208v425h70v-425q0 -103 51.5 -159.5t138.5 -56.5q89 0 139.5 55.5t50.5 160.5v425h70v-425q0 -133 -70.5 -207.5t-189.5 -74.5zM345 763q-70 0 -107.5 36t-37.5 101h62q0 -79 83 -79q85 0 85 79h60q0 -65 -37.5 -101t-107.5 -36z" />
    <glyph glyph-name="ubreve" unicode="&#x16d;" horiz-adv-x="565" 
d="M260 -7q-83 0 -131.5 53.5t-48.5 153.5v300h66v-300q0 -71 33 -108t91 -37q64 0 104 40.5t40 104.5v300h66v-500h-51l-8 82q-52 -89 -161 -89zM280 563q-63 0 -99 36.5t-36 100.5h60q0 -39 19.5 -60t55.5 -21q77 0 77 81h58q0 -64 -36 -100.5t-99 -36.5z" />
    <glyph glyph-name="Uring" unicode="&#x16e;" horiz-adv-x="690" 
d="M345 -7q-120 0 -190 74t-70 208v425h70v-425q0 -103 51.5 -159.5t138.5 -56.5q89 0 139.5 55.5t50.5 160.5v425h70v-425q0 -133 -70.5 -207.5t-189.5 -74.5zM345 734q-45 0 -75 29.5t-30 71.5t30 71.5t75 29.5t75 -29.5t30 -71.5t-30 -71.5t-75 -29.5zM345 786
q22 0 35.5 13.5t13.5 35.5t-13.5 35.5t-35.5 13.5t-35.5 -13.5t-13.5 -35.5t13.5 -35.5t35.5 -13.5z" />
    <glyph glyph-name="uring" unicode="&#x16f;" horiz-adv-x="565" 
d="M260 -7q-83 0 -131.5 53.5t-48.5 153.5v300h66v-300q0 -71 33 -108t91 -37q64 0 104 40.5t40 104.5v300h66v-500h-51l-8 82q-52 -89 -161 -89zM280 534q-45 0 -75 29.5t-30 71.5t30 71.5t75 29.5t75 -29.5t30 -71.5t-30 -71.5t-75 -29.5zM280 582q23 0 38 15t15 38
t-15 38t-38 15t-38 -15t-15 -38t15 -38t38 -15z" />
    <glyph glyph-name="Uhungarumlaut" unicode="&#x170;" horiz-adv-x="690" 
d="M345 -7q-120 0 -190 74t-70 208v425h70v-425q0 -103 51.5 -159.5t138.5 -56.5q89 0 139.5 55.5t50.5 160.5v425h70v-425q0 -133 -70.5 -207.5t-189.5 -74.5zM239 760l100 150h84l-114 -150h-70zM379 760l114 150h86l-128 -150h-72z" />
    <glyph glyph-name="uhungarumlaut" unicode="&#x171;" horiz-adv-x="565" 
d="M260 -7q-83 0 -131.5 53.5t-48.5 153.5v300h66v-300q0 -71 33 -108t91 -37q64 0 104 40.5t40 104.5v300h66v-500h-51l-8 82q-52 -89 -161 -89zM175 560l106 150h80l-118 -150h-68zM315 560l118 150h82l-130 -150h-70z" />
    <glyph glyph-name="Uogonek" unicode="&#x172;" horiz-adv-x="690" 
d="M345 -7q-120 0 -190 74t-70 208v425h70v-425q0 -103 51.5 -159.5t138.5 -56.5q89 0 139.5 55.5t50.5 160.5v425h70v-425q0 -156 -97 -231q-9 -9 -29.5 -27t-28.5 -25.5t-22.5 -21.5t-20 -22t-13.5 -19t-10.5 -20.5t-2.5 -18.5q0 -32 34 -32h50v-58h-55q-47 0 -71 21
t-24 59q0 29 12 53.5t48 60.5q-10 -1 -30 -1z" />
    <glyph glyph-name="uogonek" unicode="&#x173;" horiz-adv-x="565" 
d="M480 -200h-55q-47 0 -71 21t-24 59q0 32 19 62t78 78l-6 62q-52 -89 -161 -89q-83 0 -131.5 53.5t-48.5 153.5v300h66v-300q0 -71 33 -108t91 -37q64 0 104 40.5t40 104.5v300h66v-500q-56 -50 -72 -71t-16 -44q0 -31 38 -31h50v-54z" />
    <glyph glyph-name="Wcircumflex" unicode="&#x174;" horiz-adv-x="970" 
d="M655 0l-171 617l-159 -617h-90l-195 700h72l168 -617l160 617h90l170 -618l160 618h70l-185 -700h-90zM568 760l-83 97l-83 -97h-72l114 150h82l114 -150h-72z" />
    <glyph glyph-name="wcircumflex" unicode="&#x175;" horiz-adv-x="770" 
d="M515 0l-130 422l-120 -422h-80l-150 500h70l121 -417l119 417h80l128 -417l114 417h68l-140 -500h-80zM472 560l-87 99l-87 -99h-68l118 150h74l118 -150h-68z" />
    <glyph glyph-name="Ycircumflex" unicode="&#x176;" horiz-adv-x="650" 
d="M295 0v255l-265 445h78l222 -374l214 374h76l-255 -445v-255h-70zM409 760l-83 97l-83 -97h-72l114 150h82l114 -150h-72z" />
    <glyph glyph-name="ycircumflex" unicode="&#x177;" horiz-adv-x="520" 
d="M155 -200l77 200l-207 500h74l169 -418l157 418h70l-270 -700h-70zM349 560l-87 99l-87 -99h-68l118 150h74l118 -150h-68z" />
    <glyph glyph-name="Ydieresis" unicode="&#x178;" horiz-adv-x="650" 
d="M295 0v255l-265 445h78l222 -374l214 374h76l-255 -445v-255h-70zM218 788q-20 0 -33.5 14t-13.5 33t13.5 33t33.5 14t33.5 -14t13.5 -33t-13.5 -33t-33.5 -14zM434 788q-20 0 -33.5 14t-13.5 33t13.5 33t33.5 14t33.5 -14t13.5 -33t-13.5 -33t-33.5 -14z" />
    <glyph glyph-name="Zacute" unicode="&#x179;" horiz-adv-x="585" 
d="M60 636v64h480v-64l-411 -572h411v-64h-490v64l411 572h-401zM264 760l114 150h86l-128 -150h-72z" />
    <glyph glyph-name="zacute" unicode="&#x17a;" horiz-adv-x="455" 
d="M50 440v60h370v-60l-304 -380h304v-60h-380v60l304 380h-294zM200 560l118 150h82l-130 -150h-70z" />
    <glyph glyph-name="Zdotaccent" unicode="&#x17b;" horiz-adv-x="585" 
d="M60 636v64h480v-64l-411 -572h411v-64h-490v64l411 572h-401zM300 788q-20 0 -33.5 14t-13.5 33t13.5 33t33.5 14t33.5 -14t13.5 -33t-13.5 -33t-33.5 -14z" />
    <glyph glyph-name="zdotaccent" unicode="&#x17c;" horiz-adv-x="455" 
d="M50 440v60h370v-60l-304 -380h304v-60h-380v60l304 380h-294zM235 588q-19 0 -33 14t-14 33t14 33t33 14t33 -14t14 -33t-14 -33t-33 -14z" />
    <glyph glyph-name="Zcaron" unicode="&#x17d;" horiz-adv-x="585" 
d="M60 636v64h480v-64l-411 -572h411v-64h-490v64l411 572h-401zM259 760l-114 150h72l83 -98l83 98h72l-114 -150h-82z" />
    <glyph glyph-name="zcaron" unicode="&#x17e;" horiz-adv-x="455" 
d="M50 440v60h370v-60l-304 -380h304v-60h-380v60l304 380h-294zM198 560l-118 150h68l87 -100l87 100h68l-118 -150h-74z" />
    <glyph glyph-name="longs" unicode="&#x17f;" horiz-adv-x="305" 
d="M30 439v61h90v68q0 64 34 98t98 34h78v-60h-70q-74 0 -74 -80v-560h-66v439h-90z" />
    <glyph glyph-name="uni018F" unicode="&#x18f;" horiz-adv-x="710" 
d="M355 -7q-129 0 -209.5 87t-80.5 238v60h70v-1h440v5q0 121 -61 190t-159 69q-78 0 -128 -40t-69 -96h-76q21 80 89 141t184 61q129 0 209.5 -87t80.5 -238v-64q0 -150 -81 -237.5t-209 -87.5zM355 59q97 0 158 67t62 187h-440q1 -119 62.5 -186.5t157.5 -67.5z" />
    <glyph glyph-name="florin" unicode="&#x192;" horiz-adv-x="480" 
d="M99 444l10 56h110l9 50q14 79 54 114.5t121 35.5h52l-11 -60h-52q-41 0 -63.5 -21t-30.5 -69l-9 -50h131l-10 -56h-130l-77 -444q-14 -79 -53.5 -114.5t-117.5 -35.5h-37l11 60h37q75 0 90 90l76 444h-110z" />
    <glyph glyph-name="uni01CF" unicode="&#x1cf;" horiz-adv-x="270" 
d="M100 0v700h70v-700h-70zM94 760l-114 150h72l83 -98l83 98h72l-114 -150h-82z" />
    <glyph glyph-name="uni01D0" unicode="&#x1d0;" horiz-adv-x="256" 
d="M95 0v500h66v-500h-66zM91 560l-118 150h68l87 -100l87 100h68l-118 -150h-74z" />
    <glyph glyph-name="uni01DD" unicode="&#x1dd;" horiz-adv-x="540" 
d="M270 -7q-99 0 -157 62t-58 173v41h362v3q0 86 -39.5 129.5t-112.5 43.5q-101 0 -137 -80h-68q16 61 69 101.5t136 40.5q102 0 161 -62t59 -173v-44q0 -111 -58 -173t-157 -62zM270 55q65 0 103.5 40.5t42.5 115.5h-293q4 -77 43 -116.5t104 -39.5z" />
    <glyph glyph-name="Gcaron" unicode="&#x1e6;" horiz-adv-x="680" 
d="M340 279v64h275v-33q0 -151 -73 -234t-192 -83q-128 0 -206.5 86.5t-78.5 238.5v64q0 151 79.5 238t205.5 87q105 0 174 -58t85 -144h-74q-16 59 -64 97.5t-121 38.5q-95 0 -154 -68.5t-59 -190.5v-64q0 -121 60 -190t153 -69q90 0 141.5 54.5t58.5 165.5h-210zM309 760
l-114 150h72l83 -98l83 98h72l-114 -150h-82z" />
    <glyph glyph-name="gcaron" unicode="&#x1e7;" horiz-adv-x="560" 
d="M251 13q-89 0 -142.5 59t-53.5 166v44q0 105 54.5 165t141.5 60q115 0 165 -89l8 82h51v-500q0 -99 -53 -153t-149 -54q-177 0 -193 152h66q8 -45 37 -67.5t90 -22.5q69 0 102.5 35.5t33.5 109.5v91q-51 -78 -158 -78zM266 75q62 0 101.5 42t41.5 113v59q-2 73 -41 114.5
t-102 41.5q-66 0 -104.5 -42.5t-38.5 -120.5v-44q0 -77 39 -120t104 -43zM228 560l-118 150h68l87 -100l87 100h68l-118 -150h-74z" />
    <glyph glyph-name="Aringacute" unicode="&#x1fa;" horiz-adv-x="650" 
d="M551 0l-75 203h-305l-74 -203h-72l246 662q-51 28 -51 87q0 42 30 71.5t75 29.5t75 -29.5t30 -71.5q0 -59 -51 -87l246 -662h-74zM266 460l-71 -193h258l-71 193l-58 160zM287 886l100 102h100l-124 -102h-76zM325 700q22 0 35.5 13.5t13.5 35.5t-13.5 35.5t-35.5 13.5
t-35.5 -13.5t-13.5 -35.5t13.5 -35.5t35.5 -13.5z" />
    <glyph glyph-name="aringacute" unicode="&#x1fb;" horiz-adv-x="520" 
d="M230 770l108 130h82l-120 -130h-70zM205 -7q-74 0 -114.5 38.5t-40.5 106.5q0 157 210 157h114v45q0 55 -27 80t-87 25q-106 0 -114 -80h-71q4 64 51 103t134 39q88 0 134 -43.5t46 -123.5v-340h-51l-10 94q-26 -47 -72 -74t-102 -27zM210 55q68 0 116 46.5t48 110.5v23
h-114q-142 0 -142 -97q0 -39 24 -61t68 -22zM265 534q-45 0 -75 29.5t-30 71.5t30 71.5t75 29.5t75 -29.5t30 -71.5t-30 -71.5t-75 -29.5zM265 582q23 0 38 15t15 38t-15 38t-38 15t-38 -15t-15 -38t15 -38t38 -15z" />
    <glyph glyph-name="AEacute" unicode="&#x1fc;" horiz-adv-x="930" 
d="M20 0l410 700h450v-64h-350v-244h290v-64h-290v-264h350v-64h-420v203h-247l-117 -203h-76zM250 267h210v360zM619 760l114 150h86l-128 -150h-72z" />
    <glyph glyph-name="aeacute" unicode="&#x1fd;" horiz-adv-x="855" 
d="M210 -7q-78 0 -119 38.5t-41 106.5q0 151 216 151h108v51q0 55 -27 80t-87 25q-106 0 -114 -80h-71q4 64 51 103t134 39q119 0 158 -85q57 85 169 85q97 0 155 -62t58 -173v-41h-360v-3q0 -85 39 -129t108 -44q105 0 140 91h68q-16 -69 -68.5 -111t-139.5 -42
q-135 0 -186 115q-25 -54 -75 -84.5t-116 -30.5zM589 445q-64 0 -104.5 -40.5t-44.5 -115.5h291q-4 76 -42 116t-100 40zM210 55q67 0 114 44t50 109v23h-108q-82 0 -115 -24t-33 -69q0 -39 24 -61t68 -22zM390 560l118 150h82l-130 -150h-70z" />
    <glyph glyph-name="Oslashacute" unicode="&#x1fe;" horiz-adv-x="710" 
d="M107 -7l-42 34l61 77q-61 84 -61 214v64q0 149 81 237t209 88q115 0 192 -71l56 71l42 -34l-62 -78q62 -86 62 -213v-64q0 -149 -81 -237t-209 -88q-117 0 -193 70zM137 318q0 -91 36 -154l330 416q-59 61 -148 61q-96 0 -157 -69t-61 -190v-64zM355 59q96 0 157 69
t61 190v64q0 88 -37 154l-329 -417q58 -60 148 -60zM319 760l114 150h86l-128 -150h-72z" />
    <glyph glyph-name="oslashacute" unicode="&#x1ff;" horiz-adv-x="550" 
d="M93 -7l-38 32l43 52q-43 58 -43 151v44q0 109 60 172t160 63q84 0 142 -47l40 47l38 -32l-43 -52q43 -62 43 -151v-44q0 -109 -60 -172t-160 -63q-87 0 -143 47zM275 55q69 0 110.5 45.5t41.5 127.5v44q0 54 -21 96l-232 -278q40 -35 101 -35zM123 228q0 -57 20 -97
l232 278q-39 36 -100 36q-69 0 -110.5 -45.5t-41.5 -127.5v-44zM240 560l118 150h82l-130 -150h-70z" />
    <glyph glyph-name="Scommaaccent" unicode="&#x218;" horiz-adv-x="610" 
d="M305 -7q-230 0 -245 222h74q8 -80 49 -118t122 -38q85 0 129 35t44 91q0 45 -30 74.5t-75.5 43t-98.5 30.5t-98.5 35t-75.5 58t-30 99q0 80 61.5 131t173.5 51q219 0 235 -202h-74q-9 69 -46.5 102.5t-114.5 33.5q-80 0 -121.5 -32t-41.5 -84q0 -37 22.5 -62t58.5 -39.5
t79.5 -26t87 -26.5t79.5 -36t58.5 -59t22.5 -91q0 -88 -62.5 -140t-182.5 -52zM192 -200l76 150h74l-96 -150h-54z" />
    <glyph glyph-name="scommaaccent" unicode="&#x219;" horiz-adv-x="490" 
d="M245 -7q-174 0 -190 152h68q8 -48 35 -69t87 -21q66 0 94 20t28 60q0 37 -31 57.5t-75.5 30t-89 21.5t-75.5 43t-31 83q0 61 46 99t134 38q81 0 126.5 -38t53.5 -104h-68q-8 40 -33.5 60t-78.5 20q-112 0 -112 -75q0 -28 22.5 -46t56 -25t72.5 -17.5t72.5 -23.5t56 -44.5
t22.5 -78.5q0 -65 -47.5 -103.5t-142.5 -38.5zM130 -200l80 150h70l-100 -150h-50z" />
    <glyph glyph-name="Tcommaaccent" unicode="&#x21a;" horiz-adv-x="580" 
d="M25 636v64h530v-64h-230v-636h-70v636h-230zM177 -200l76 150h74l-96 -150h-54z" />
    <glyph glyph-name="tcommaaccent" unicode="&#x21b;" horiz-adv-x="360" 
d="M25 440v60h90v140h66v-140h134v-60h-134v-300q0 -80 74 -80h70v-60h-78q-65 0 -98.5 34t-33.5 98v308h-90zM115 -200l80 150h70l-100 -150h-50z" />
    <glyph glyph-name="uni0237" unicode="&#x237;" horiz-adv-x="256" 
d="M-19 -200v60h34q42 0 61 25t19 85v530h66v-530q0 -92 -35 -131t-111 -39h-34z" />
    <glyph glyph-name="uni0259" unicode="&#x259;" horiz-adv-x="540" 
d="M270 -7q-99 0 -157 62t-58 173v41h362v3q0 86 -39.5 129.5t-112.5 43.5q-101 0 -137 -80h-68q16 61 69 101.5t136 40.5q102 0 161 -62t59 -173v-44q0 -111 -58 -173t-157 -62zM270 55q65 0 103.5 40.5t42.5 115.5h-293q4 -77 43 -116.5t104 -39.5z" />
    <glyph glyph-name="uni027C" unicode="&#x27c;" horiz-adv-x="370" 
d="M85 -200v700h51l8 -82q50 89 161 89h50v-62h-50q-69 0 -110.5 -38t-43.5 -101v-506h-66z" />
    <glyph glyph-name="afii57929" unicode="&#x2bc;" horiz-adv-x="190" 
d="M25 460l70 240h70l-78 -240h-62z" />
    <glyph glyph-name="circumflex" unicode="&#x2c6;" horiz-adv-x="360" 
d="M267 560l-87 99l-87 -99h-68l118 150h74l118 -150h-68z" />
    <glyph glyph-name="caron" unicode="&#x2c7;" horiz-adv-x="360" 
d="M143 560l-118 150h68l87 -100l87 100h68l-118 -150h-74z" />
    <glyph glyph-name="breve" unicode="&#x2d8;" horiz-adv-x="300" 
d="M150 563q-63 0 -99 36.5t-36 100.5h60q0 -39 19.5 -60t55.5 -21q77 0 77 81h58q0 -64 -36 -100.5t-99 -36.5z" />
    <glyph glyph-name="dotaccent" unicode="&#x2d9;" horiz-adv-x="160" 
d="M80 588q-20 0 -33.5 14t-13.5 33t13.5 33t33.5 14t33.5 -14t13.5 -33t-13.5 -33t-33.5 -14z" />
    <glyph glyph-name="ring" unicode="&#x2da;" horiz-adv-x="240" 
d="M120 534q-45 0 -75 29.5t-30 71.5t30 71.5t75 29.5t75 -29.5t30 -71.5t-30 -71.5t-75 -29.5zM120 582q23 0 38 15t15 38t-15 38t-38 15t-38 -15t-15 -38t15 -38t38 -15z" />
    <glyph glyph-name="ogonek" unicode="&#x2db;" horiz-adv-x="180" 
d="M165 -200h-55q-47 0 -71 21t-24 59q0 34 22.5 66.5t92.5 88.5l35 -35q-56 -50 -72 -71t-16 -44q0 -31 38 -31h50v-54z" />
    <glyph glyph-name="tilde" unicode="&#x2dc;" horiz-adv-x="340" 
d="M235 570q-29 0 -53 18t-42.5 36t-34.5 18q-40 0 -40 -57h-50q0 57 24.5 86t65.5 29q29 0 53 -18t42.5 -36t34.5 -18q40 0 40 57h50q0 -57 -24.5 -86t-65.5 -29z" />
    <glyph glyph-name="hungarumlaut" unicode="&#x2dd;" horiz-adv-x="390" 
d="M25 560l106 150h80l-118 -150h-68zM165 560l118 150h82l-130 -150h-70z" />
    <glyph glyph-name="acutecomb" unicode="&#x301;" horiz-adv-x="0" 
d="M-310 560l118 150h82l-130 -150h-70z" />
    <glyph glyph-name="uni039E" unicode="&#x39e;" horiz-adv-x="510" 
d="M45 0v64h420v-64h-420zM125 328v64h260v-64h-260zM45 636v64h420v-64h-420z" />
    <glyph glyph-name="pi" unicode="&#x3c0;" horiz-adv-x="620" 
d="M564 0q-63 0 -96.5 34t-33.5 98v308h-248v-440h-66v440h-90v60h560v-60h-90v-300q0 -80 72 -80h28v-60h-36z" />
    <glyph glyph-name="uni0400" unicode="&#x400;" horiz-adv-x="560" 
d="M90 0v700h420v-64h-350v-244h290v-64h-290v-264h350v-64h-420zM264 760l-128 150h86l114 -150h-72z" />
    <glyph glyph-name="afii10023" unicode="&#x401;" horiz-adv-x="560" 
d="M90 0v700h420v-64h-350v-244h290v-64h-290v-264h350v-64h-420zM192 788q-20 0 -33.5 14t-13.5 33t13.5 33t33.5 14t33.5 -14t13.5 -33t-13.5 -33t-33.5 -14zM408 788q-20 0 -33.5 14t-13.5 33t13.5 33t33.5 14t33.5 -14t13.5 -33t-13.5 -33t-33.5 -14z" />
    <glyph glyph-name="afii10051" unicode="&#x402;" horiz-adv-x="740" 
d="M25 636v64h530v-64h-230v-224h130q120 0 182.5 -55t62.5 -151t-62.5 -151t-182.5 -55h-50v64h50q86 0 129.5 37.5t43.5 104.5t-43.5 104.5t-129.5 37.5h-130v-348h-70v636h-230z" />
    <glyph glyph-name="afii10052" unicode="&#x403;" horiz-adv-x="515" 
d="M90 0v700h400v-64h-330v-636h-70zM254 760l114 150h86l-128 -150h-72z" />
    <glyph glyph-name="afii10053" unicode="&#x404;" horiz-adv-x="670" 
d="M350 -7q-127 0 -206 88t-79 242v64q0 147 80 233.5t205 86.5q106 0 177.5 -59t87.5 -143h-76q-16 57 -66 96.5t-123 39.5q-94 0 -153.5 -67.5t-59.5 -186.5h298v-64h-298q0 -125 59.5 -194.5t153.5 -69.5q73 0 123 43.5t66 112.5h76q-16 -96 -87 -159t-178 -63z" />
    <glyph glyph-name="afii10054" unicode="&#x405;" horiz-adv-x="610" 
d="M305 -7q-230 0 -245 222h74q8 -80 49 -118t122 -38q85 0 129 35t44 91q0 45 -30 74.5t-75.5 43t-98.5 30.5t-98.5 35t-75.5 58t-30 99q0 80 61.5 131t173.5 51q219 0 235 -202h-74q-9 69 -46.5 102.5t-114.5 33.5q-80 0 -121.5 -32t-41.5 -84q0 -37 22.5 -62t58.5 -39.5
t79.5 -26t87 -26.5t79.5 -36t58.5 -59t22.5 -91q0 -88 -62.5 -140t-182.5 -52z" />
    <glyph glyph-name="afii10055" unicode="&#x406;" horiz-adv-x="270" 
d="M100 0v700h70v-700h-70z" />
    <glyph glyph-name="afii10056" unicode="&#x407;" horiz-adv-x="270" 
d="M100 0v700h70v-700h-70zM27 788q-19 0 -33 14t-14 33t14 33t33 14t33 -14t14 -33t-14 -33t-33 -14zM243 788q-19 0 -33 14t-14 33t14 33t33 14t33 -14t14 -33t-14 -33t-33 -14z" />
    <glyph glyph-name="afii10057" unicode="&#x408;" horiz-adv-x="535" 
d="M240 -7q-93 0 -147.5 58.5t-62.5 163.5h70q4 -76 40.5 -116t99.5 -40q140 0 140 191v450h70v-450q0 -127 -56 -192t-154 -65z" />
    <glyph glyph-name="afii10058" unicode="&#x409;" horiz-adv-x="1020" 
d="M20 -7v66h20q26 0 44.5 11.5t34 42.5t23.5 92.5t8 154.5v340h435v-266h145q125 0 187.5 -56.5t62.5 -160.5q0 -217 -250 -217h-215v636h-295v-276q0 -147 -22 -229t-59 -110t-99 -28h-20zM730 370h-145v-306h145q92 0 135 38.5t43 114.5q0 153 -178 153z" />
    <glyph glyph-name="afii10059" unicode="&#x40a;" horiz-adv-x="1030" 
d="M535 0v348h-375v-348h-70v700h70v-288h375v288h70v-288h145q117 0 178.5 -55t61.5 -151q0 -97 -61 -151.5t-179 -54.5h-215zM750 348h-145v-284h145q168 0 168 142q0 67 -42.5 104.5t-125.5 37.5z" />
    <glyph glyph-name="afii10060" unicode="&#x40b;" horiz-adv-x="775" 
d="M25 636v64h530v-64h-230v-265q53 86 170 86q94 0 147 -60t53 -177v-220h-70v220q0 89 -36 130t-109 41q-71 0 -112 -42t-43 -121v-228h-70v636h-230z" />
    <glyph glyph-name="afii10061" unicode="&#x40c;" horiz-adv-x="635" 
d="M514 0l-243 328h-111v-328h-70v700h70v-308h110l226 308h84l-251 -339l271 -361h-86zM292 760l114 150h86l-128 -150h-72z" />
    <glyph glyph-name="uni040D" unicode="&#x40d;" horiz-adv-x="710" 
d="M551 0v626l-59 -106l-306 -520h-96v700h70v-625l58 105l306 520h96v-700h-69zM319 760l-128 150h86l114 -150h-72z" />
    <glyph glyph-name="afii10062" unicode="&#x40e;" horiz-adv-x="610" 
d="M195 0l88 200l-253 500h78l212 -425l184 425h76l-309 -700h-76zM306 763q-70 0 -107.5 36t-37.5 101h66q0 -85 79 -85q81 0 81 85h64q0 -65 -37.5 -101t-107.5 -36z" />
    <glyph glyph-name="afii10145" unicode="&#x40f;" horiz-adv-x="700" 
d="M90 0v700h70v-636h380v636h70v-700h-225v-150h-70v150h-225z" />
    <glyph glyph-name="afii10017" unicode="&#x410;" horiz-adv-x="650" 
d="M551 0l-75 203h-305l-74 -203h-72l260 700h80l260 -700h-74zM266 460l-71 -193h258l-71 193l-58 160z" />
    <glyph glyph-name="afii10018" unicode="&#x411;" horiz-adv-x="610" 
d="M90 0v700h420v-64h-350v-222h160q117 0 178.5 -55t61.5 -152q0 -98 -61 -152.5t-179 -54.5h-230zM320 350h-160v-286h160q168 0 168 143q0 68 -42.5 105.5t-125.5 37.5z" />
    <glyph glyph-name="afii10019" unicode="&#x412;" horiz-adv-x="620" 
d="M90 0v700h215q235 0 235 -186q0 -106 -96 -150q116 -43 116 -168q0 -196 -235 -196h-235zM325 328h-165v-264h165q86 0 124.5 33t38.5 99t-38.5 99t-124.5 33zM305 636h-145v-244h145q163 0 163 122t-163 122z" />
    <glyph glyph-name="afii10020" unicode="&#x413;" horiz-adv-x="515" 
d="M90 0v700h400v-64h-330v-636h-70z" />
    <glyph glyph-name="afii10021" unicode="&#x414;" horiz-adv-x="690" 
d="M595 -150v150h-505v-150h-70v214h63q45 65 61 146t16 260v230h430v-636h75v-214h-70zM230 470q0 -167 -14 -257t-51 -149h355v572h-290v-166z" />
    <glyph glyph-name="afii10022" unicode="&#x415;" horiz-adv-x="560" 
d="M90 0v700h420v-64h-350v-244h290v-64h-290v-264h350v-64h-420z" />
    <glyph glyph-name="afii10024" unicode="&#x416;" horiz-adv-x="920" 
d="M801 0l-196 328h-110v-328h-70v328h-110l-197 -328h-83l221 362l-201 338h81l179 -308h110v308h70v-308h109l182 308h79l-201 -336l221 -364h-84z" />
    <glyph glyph-name="afii10025" unicode="&#x417;" horiz-adv-x="595" 
d="M300 -7q-112 0 -174.5 58t-70.5 164h72q15 -156 173 -156q79 0 121 37t42 99q0 60 -42 96t-121 36h-85v66h85q72 0 110 33.5t38 89.5q0 58 -38 91.5t-110 33.5q-142 0 -158 -136h-72q8 95 66.5 148.5t163.5 53.5q104 0 162 -52t58 -139q0 -107 -98 -154q113 -47 113 -167
q0 -91 -61.5 -146.5t-173.5 -55.5z" />
    <glyph glyph-name="afii10026" unicode="&#x418;" horiz-adv-x="710" 
d="M551 0v626l-59 -106l-306 -520h-96v700h70v-625l58 105l306 520h96v-700h-69z" />
    <glyph glyph-name="afii10027" unicode="&#x419;" horiz-adv-x="710" 
d="M551 0v626l-59 -106l-306 -520h-96v700h70v-625l58 105l306 520h96v-700h-69zM355 763q-70 0 -107.5 36t-37.5 101h66q0 -85 79 -85q81 0 81 85h64q0 -65 -37.5 -101t-107.5 -36z" />
    <glyph glyph-name="afii10028" unicode="&#x41a;" horiz-adv-x="635" 
d="M514 0l-243 328h-111v-328h-70v700h70v-308h110l226 308h84l-251 -339l271 -361h-86z" />
    <glyph glyph-name="afii10029" unicode="&#x41b;" horiz-adv-x="680" 
d="M20 -7v66h20q26 0 44.5 11.5t34 42.5t23.5 92.5t8 154.5v340h440v-700h-70v636h-300v-276q0 -147 -22 -229t-59 -110t-99 -28h-20z" />
    <glyph glyph-name="afii10030" unicode="&#x41c;" horiz-adv-x="810" 
d="M370 205l-165 315l-45 97v-617h-70v700h94l222 -424l222 424h92v-700h-70v617l-45 -97l-165 -315h-70z" />
    <glyph glyph-name="afii10031" unicode="&#x41d;" horiz-adv-x="710" 
d="M550 0v328h-390v-328h-70v700h70v-308h390v308h70v-700h-70z" />
    <glyph glyph-name="afii10032" unicode="&#x41e;" horiz-adv-x="710" 
d="M355 -7q-129 0 -209.5 87.5t-80.5 237.5v64q0 149 81 237t209 88q129 0 209.5 -87.5t80.5 -237.5v-64q0 -149 -81 -237t-209 -88zM355 59q96 0 157 69t61 190v64q0 120 -61.5 189.5t-156.5 69.5q-96 0 -157 -69t-61 -190v-64q0 -120 61.5 -189.5t156.5 -69.5z" />
    <glyph glyph-name="afii10033" unicode="&#x41f;" horiz-adv-x="700" 
d="M540 0v636h-380v-636h-70v700h520v-700h-70z" />
    <glyph glyph-name="afii10034" unicode="&#x420;" horiz-adv-x="600" 
d="M90 0v700h220q250 0 250 -217q0 -104 -62.5 -160.5t-187.5 -56.5h-150v-266h-70zM310 636h-150v-306h150q178 0 178 153q0 76 -43 114.5t-135 38.5z" />
    <glyph glyph-name="afii10035" unicode="&#x421;" horiz-adv-x="670" 
d="M350 -7q-126 0 -205.5 87t-79.5 238v64q0 150 79.5 237.5t205.5 87.5q106 0 177.5 -59t87.5 -143h-76q-16 57 -66 96.5t-123 39.5q-94 0 -153.5 -68t-59.5 -191v-64q0 -122 59.5 -190.5t153.5 -68.5q73 0 123 43.5t66 112.5h76q-16 -96 -87 -159t-178 -63z" />
    <glyph glyph-name="afii10036" unicode="&#x422;" horiz-adv-x="580" 
d="M25 636v64h530v-64h-230v-636h-70v636h-230z" />
    <glyph glyph-name="afii10037" unicode="&#x423;" horiz-adv-x="610" 
d="M195 0l88 200l-253 500h78l212 -425l184 425h76l-309 -700h-76z" />
    <glyph glyph-name="afii10038" unicode="&#x424;" horiz-adv-x="840" 
d="M785 328q0 -127 -84 -204t-231 -77h-15v-54h-70v54h-15q-150 0 -232.5 75t-82.5 206v44q0 127 84 204t231 77h15v54h70v-54h15q150 0 232.5 -75.5t82.5 -205.5v-44zM127 328q0 -99 64 -157t179 -58h15v474h-15q-116 0 -179.5 -57.5t-63.5 -157.5v-44zM470 587h-15v-474
h15q116 0 179.5 57.5t63.5 157.5v44q0 99 -64 157t-179 58z" />
    <glyph glyph-name="afii10039" unicode="&#x425;" horiz-adv-x="650" 
d="M529 0l-206 306l-204 -306h-84l246 363l-226 337h85l186 -277l186 277h83l-226 -333l246 -367h-86z" />
    <glyph glyph-name="afii10040" unicode="&#x426;" horiz-adv-x="720" 
d="M90 0v700h70v-636h380v636h70v-636h85v-214h-70v150h-535z" />
    <glyph glyph-name="afii10041" unicode="&#x427;" horiz-adv-x="630" 
d="M470 0v282q-91 -24 -170 -24q-128 0 -184 56t-56 186v200h70v-200q0 -96 39.5 -137t130.5 -41q76 0 170 24v354h70v-700h-70z" />
    <glyph glyph-name="afii10042" unicode="&#x428;" horiz-adv-x="940" 
d="M90 0v700h70v-636h275v636h70v-636h275v636h70v-700h-760z" />
    <glyph glyph-name="afii10043" unicode="&#x429;" horiz-adv-x="960" 
d="M90 0v700h70v-636h275v636h70v-636h275v636h70v-636h85v-214h-70v150h-775z" />
    <glyph glyph-name="afii10044" unicode="&#x42a;" horiz-adv-x="715" 
d="M25 636v64h250v-266h150q125 0 187.5 -56.5t62.5 -160.5q0 -217 -250 -217h-220v636h-180zM425 370h-150v-306h150q92 0 135 38.5t43 114.5q0 153 -178 153z" />
    <glyph glyph-name="afii10045" unicode="&#x42b;" horiz-adv-x="830" 
d="M90 0v700h70v-266h145q125 0 187.5 -56.5t62.5 -160.5q0 -217 -250 -217h-215zM305 370h-145v-306h145q92 0 135 38.5t43 114.5q0 153 -178 153zM670 0v700h70v-700h-70z" />
    <glyph glyph-name="afii10046" unicode="&#x42c;" horiz-adv-x="600" 
d="M90 0v700h70v-266h150q125 0 187.5 -56.5t62.5 -160.5q0 -217 -250 -217h-220zM310 370h-150v-306h150q92 0 135 38.5t43 114.5q0 153 -178 153z" />
    <glyph glyph-name="afii10047" unicode="&#x42d;" horiz-adv-x="670" 
d="M235 323v64h298q0 118 -60 186t-153 68q-73 0 -123 -39.5t-66 -96.5h-76q16 84 87.5 143t177.5 59q126 0 205.5 -86.5t79.5 -233.5v-64q0 -153 -79.5 -241.5t-205.5 -88.5q-107 0 -178 63t-87 159h76q16 -69 66 -112.5t123 -43.5q95 0 154 69t59 195h-298z" />
    <glyph glyph-name="afii10048" unicode="&#x42e;" horiz-adv-x="905" 
d="M565 -7q-127 0 -201 85.5t-74 249.5h-130v-328h-70v700h70v-308h130q0 150 74.5 232.5t200.5 82.5t200.5 -82t74.5 -233v-64q0 -164 -74 -249.5t-201 -85.5zM565 59q92 0 147.5 68t55.5 201v64q0 119 -56 184t-147 65t-147 -64.5t-56 -184.5v-64q0 -132 55.5 -200.5
t147.5 -68.5z" />
    <glyph glyph-name="afii10049" unicode="&#x42f;" horiz-adv-x="620" 
d="M40 0l168 298q-148 40 -148 195q0 99 62.5 153t187.5 54h220v-700h-70v286h-150q-23 0 -34 1l-160 -287h-76zM132 493q0 -68 44 -105.5t134 -37.5h150v286h-150q-90 0 -134 -37.5t-44 -105.5z" />
    <glyph glyph-name="afii10065" unicode="&#x430;" horiz-adv-x="520" 
d="M205 -7q-74 0 -114.5 38.5t-40.5 106.5q0 157 210 157h114v45q0 55 -27 80t-87 25q-106 0 -114 -80h-71q4 64 51 103t134 39q88 0 134 -43.5t46 -123.5v-340h-51l-10 94q-26 -47 -72 -74t-102 -27zM210 55q68 0 116 46.5t48 110.5v23h-114q-142 0 -142 -97q0 -39 24 -61
t68 -22z" />
    <glyph glyph-name="afii10066" unicode="&#x431;" horiz-adv-x="550" 
d="M276 -7q-105 0 -163 68t-58 207v64q0 246 114 314q36 21 78.5 27.5t99.5 12t108 21.5v-61q-41 -15 -93 -20t-94 -10.5t-69 -22.5q-37 -25 -56 -68t-25 -116q53 88 170 88q92 0 149.5 -62t57.5 -168v-44q0 -105 -60.5 -167.5t-158.5 -62.5zM276 435q-69 0 -110 -42
t-43 -118v-52q0 -78 42 -123t111 -45t110 44t41 124v44q0 79 -41 123.5t-110 44.5z" />
    <glyph glyph-name="afii10067" unicode="&#x432;" horiz-adv-x="520" 
d="M85 0v500h185q88 0 131.5 -36.5t43.5 -100.5q0 -68 -64 -104q84 -33 84 -116q0 -143 -175 -143h-205zM290 225h-139v-165h139q57 0 82 20.5t25 62.5q0 41 -25 61.5t-82 20.5zM270 440h-119v-155h119q107 0 107 78q0 77 -107 77z" />
    <glyph glyph-name="afii10068" unicode="&#x433;" horiz-adv-x="430" 
d="M85 0v500h320v-60h-254v-440h-66z" />
    <glyph glyph-name="afii10069" unicode="&#x434;" horiz-adv-x="550" 
d="M464 -130v130h-383v-130h-66v190h53q35 53 46 109t11 181v150h335v-440h70v-190h-66zM191 350q0 -120 -10 -180.5t-36 -109.5h249v380h-203v-90z" />
    <glyph glyph-name="afii10070" unicode="&#x435;" horiz-adv-x="540" 
d="M270 -7q-100 0 -157.5 61.5t-57.5 173.5v44q0 111 58 173t157 62t157 -62t58 -173v-41h-362v-3q0 -84 39.5 -128.5t107.5 -44.5q107 0 142 91h68q-16 -69 -69 -111t-141 -42zM270 445q-65 0 -104 -40.5t-43 -115.5h293q-4 76 -42.5 116t-103.5 40z" />
    <glyph glyph-name="afii10072" unicode="&#x436;" horiz-adv-x="720" 
d="M614 0l-131 230h-90v-230h-66v230h-90l-133 -230h-79l153 258l-133 242h79l113 -210h90v210h66v-210h90l114 210h78l-132 -238l152 -262h-81z" />
    <glyph glyph-name="afii10073" unicode="&#x437;" horiz-adv-x="485" 
d="M240 507q85 0 130 -39t45 -103q0 -75 -65 -108q80 -33 80 -117q0 -67 -48 -107t-142 -40q-93 0 -142.5 40.5t-57.5 111.5h68q8 -44 38.5 -67t93.5 -23q122 0 122 85t-122 85h-55v60h55q107 0 107 80t-107 80q-100 0 -117 -80h-68q8 65 54.5 103.5t130.5 38.5z" />
    <glyph glyph-name="afii10074" unicode="&#x438;" horiz-adv-x="580" 
d="M429 0v424l-62 -104l-200 -320h-82v500h66v-425l62 105l200 320h82v-500h-66z" />
    <glyph glyph-name="afii10075" unicode="&#x439;" horiz-adv-x="580" 
d="M429 0v424l-62 -104l-200 -320h-82v500h66v-425l62 105l200 320h82v-500h-66zM290 563q-63 0 -99 36.5t-36 100.5h64q0 -85 71 -85q73 0 73 85h62q0 -64 -36 -100.5t-99 -36.5z" />
    <glyph glyph-name="afii10076" unicode="&#x43a;" horiz-adv-x="510" 
d="M403 0l-163 230h-89v-230h-66v500h66v-210h89l143 210h82l-165 -241l185 -259h-82z" />
    <glyph glyph-name="afii10077" unicode="&#x43b;" horiz-adv-x="545" 
d="M20 -7v62h15q40 0 62.5 44.5t22.5 160.5v240h340v-500h-66v440h-208v-180q0 -148 -38.5 -207.5t-112.5 -59.5h-15z" />
    <glyph glyph-name="afii10078" unicode="&#x43c;" horiz-adv-x="680" 
d="M307 125l-102 195l-54 108v-428h-66v500h92l164 -309l164 309h90v-500h-66v428l-54 -108l-102 -195h-66z" />
    <glyph glyph-name="afii10079" unicode="&#x43d;" horiz-adv-x="580" 
d="M429 0v225h-278v-225h-66v500h66v-215h278v215h66v-500h-66z" />
    <glyph glyph-name="afii10080" unicode="&#x43e;" horiz-adv-x="550" 
d="M275 -7q-101 0 -160.5 62.5t-59.5 172.5v44q0 109 60 172t160 63q101 0 160.5 -62.5t59.5 -172.5v-44q0 -109 -60 -172t-160 -63zM275 55q69 0 110.5 45.5t41.5 127.5v44q0 81 -42 127t-110 46q-69 0 -110.5 -45.5t-41.5 -127.5v-44q0 -81 42 -127t110 -46z" />
    <glyph glyph-name="afii10081" unicode="&#x43f;" horiz-adv-x="560" 
d="M409 0v440h-258v-440h-66v500h390v-500h-66z" />
    <glyph glyph-name="afii10082" unicode="&#x440;" horiz-adv-x="560" 
d="M309 -7q-108 0 -158 80v-273h-66v700h51l8 -84q51 91 165 91q89 0 142.5 -61t53.5 -174v-44q0 -112 -54 -173.5t-142 -61.5zM294 55q66 0 104.5 44t38.5 129v44q0 84 -38.5 128.5t-104.5 44.5q-62 0 -101.5 -43.5t-41.5 -121.5v-52q0 -82 39.5 -127.5t103.5 -45.5z" />
    <glyph glyph-name="afii10083" unicode="&#x441;" horiz-adv-x="505" 
d="M270 -7q-97 0 -156 62.5t-59 172.5v44q0 109 59 172t156 63q79 0 129 -39.5t66 -102.5h-70q-35 80 -125 80q-65 0 -106 -46t-41 -127v-44q0 -81 41 -127t106 -46q93 0 125 90h70q-16 -69 -65.5 -110.5t-129.5 -41.5z" />
    <glyph glyph-name="afii10084" unicode="&#x442;" horiz-adv-x="450" 
d="M25 440v60h400v-60h-167v-440h-66v440h-167z" />
    <glyph glyph-name="afii10085" unicode="&#x443;" horiz-adv-x="520" 
d="M155 -200l77 200l-207 500h74l169 -418l157 418h70l-270 -700h-70z" />
    <glyph glyph-name="afii10086" unicode="&#x444;" horiz-adv-x="700" 
d="M280 -7q-102 0 -163.5 63.5t-61.5 171.5v44q0 107 62 171t163 64h37v193h66v-193h37q102 0 163.5 -63.5t61.5 -171.5v-44q0 -107 -62 -171t-163 -64h-37v-193h-66v193h-37zM123 228q0 -82 42.5 -127.5t114.5 -45.5h37v390h-37q-73 0 -115 -45t-42 -128v-44zM420 445h-37
v-390h37q73 0 115 45t42 128v44q0 82 -42.5 127.5t-114.5 45.5z" />
    <glyph glyph-name="afii10087" unicode="&#x445;" horiz-adv-x="500" 
d="M395 0l-146 209l-146 -209h-78l183 257l-171 243h78l136 -194l136 194h76l-171 -241l183 -259h-80z" />
    <glyph glyph-name="afii10088" unicode="&#x446;" horiz-adv-x="565" 
d="M85 0v500h66v-440h253v440h66v-440h75v-190h-66v130h-394z" />
    <glyph glyph-name="afii10089" unicode="&#x447;" horiz-adv-x="520" 
d="M369 0v185q-62 -15 -124 -15q-99 0 -144.5 43.5t-45.5 136.5v150h66v-150q0 -66 27.5 -93t96.5 -27q62 0 124 15v255h66v-500h-66z" />
    <glyph glyph-name="afii10090" unicode="&#x448;" horiz-adv-x="760" 
d="M85 0v500h66v-440h196v440h66v-440h196v440h66v-500h-590z" />
    <glyph glyph-name="afii10091" unicode="&#x449;" horiz-adv-x="770" 
d="M85 0v500h66v-440h196v440h66v-440h196v440h66v-440h75v-190h-66v130h-599z" />
    <glyph glyph-name="afii10092" unicode="&#x44a;" horiz-adv-x="575" 
d="M15 440v60h211v-180h111q203 0 203 -160q0 -75 -50.5 -117.5t-152.5 -42.5h-177v440h-145zM337 260h-111v-200h111q135 0 135 100t-135 100z" />
    <glyph glyph-name="afii10093" unicode="&#x44b;" horiz-adv-x="710" 
d="M85 0v500h66v-180h111q103 0 153 -42t50 -118q0 -75 -51 -117.5t-152 -42.5h-177zM262 260h-111v-200h111q135 0 135 100t-135 100zM559 0v500h66v-500h-66z" />
    <glyph glyph-name="afii10094" unicode="&#x44c;" horiz-adv-x="500" 
d="M85 0v500h66v-180h111q203 0 203 -160q0 -75 -50.5 -117.5t-152.5 -42.5h-177zM262 260h-111v-200h111q135 0 135 100t-135 100z" />
    <glyph glyph-name="afii10095" unicode="&#x44d;" horiz-adv-x="505" 
d="M180 225v60h202q-2 74 -43 117t-104 43q-90 0 -125 -80h-70q16 63 66 102.5t129 39.5q97 0 156 -63t59 -167v-44q0 -112 -59 -176t-156 -64q-80 0 -129.5 41.5t-65.5 110.5h70q32 -90 125 -90q64 0 104.5 44.5t42.5 125.5h-202z" />
    <glyph glyph-name="afii10096" unicode="&#x44e;" horiz-adv-x="740" 
d="M474 -7q-95 0 -152.5 61.5t-58.5 170.5h-112v-225h-66v500h66v-215h112q4 104 61.5 163t149.5 59q95 0 153 -62.5t58 -172.5v-44q0 -109 -58 -172t-153 -63zM474 55q64 0 103.5 45t39.5 128v44q0 82 -40 127.5t-103 45.5q-64 0 -103.5 -45t-39.5 -128v-44
q0 -82 40 -127.5t103 -45.5z" />
    <glyph glyph-name="afii10097" unicode="&#x44f;" horiz-adv-x="510" 
d="M55 343q0 157 205 157h165v-500h-66v186h-99q-33 0 -48 2l-101 -188h-76l112 202q-92 34 -92 141zM123 343q0 -49 31 -73t106 -24h99v194h-99q-75 0 -106 -24t-31 -73z" />
    <glyph glyph-name="uni0450" unicode="&#x450;" horiz-adv-x="540" 
d="M270 -7q-100 0 -157.5 61.5t-57.5 173.5v44q0 111 58 173t157 62t157 -62t58 -173v-41h-362v-3q0 -84 39.5 -128.5t107.5 -44.5q107 0 142 91h68q-16 -69 -69 -111t-141 -42zM270 445q-65 0 -104 -40.5t-43 -115.5h293q-4 76 -42.5 116t-103.5 40zM235 560l-130 150h82
l118 -150h-70z" />
    <glyph glyph-name="afii10071" unicode="&#x451;" horiz-adv-x="540" 
d="M270 -7q-100 0 -157.5 61.5t-57.5 173.5v44q0 111 58 173t157 62t157 -62t58 -173v-41h-362v-3q0 -84 39.5 -128.5t107.5 -44.5q107 0 142 91h68q-16 -69 -69 -111t-141 -42zM270 445q-65 0 -104 -40.5t-43 -115.5h293q-4 76 -42.5 116t-103.5 40zM172 588
q-20 0 -33.5 14t-13.5 33t13.5 33t33.5 14t33.5 -14t13.5 -33t-13.5 -33t-33.5 -14zM368 588q-20 0 -33.5 14t-13.5 33t13.5 33t33.5 14t33.5 -14t13.5 -33t-13.5 -33t-33.5 -14z" />
    <glyph glyph-name="afii10099" unicode="&#x452;" horiz-adv-x="575" 
d="M315 -200v60h34q42 0 61 25t19 85v300q0 72 -33.5 108.5t-95.5 36.5q-67 0 -108 -40.5t-41 -104.5v-270h-66v534h-90v52h90v114h66v-114h164v-52h-164v-140q50 83 159 83q87 0 136 -53.5t49 -153.5v-300q0 -92 -35 -131t-111 -39h-34z" />
    <glyph glyph-name="afii10100" unicode="&#x453;" horiz-adv-x="430" 
d="M85 0v500h320v-60h-254v-440h-66zM210 560l118 150h82l-130 -150h-70z" />
    <glyph glyph-name="afii10101" unicode="&#x454;" horiz-adv-x="505" 
d="M270 -7q-98 0 -156.5 63.5t-58.5 176.5v44q0 105 59.5 167.5t155.5 62.5q79 0 129 -39.5t66 -102.5h-70q-35 80 -125 80q-63 0 -104 -43t-43 -117h202v-60h-202q2 -80 43 -125t104 -45q93 0 125 90h70q-16 -69 -65.5 -110.5t-129.5 -41.5z" />
    <glyph glyph-name="afii10102" unicode="&#x455;" horiz-adv-x="490" 
d="M245 -7q-174 0 -190 152h68q8 -48 35 -69t87 -21q66 0 94 20t28 60q0 37 -31 57.5t-75.5 30t-89 21.5t-75.5 43t-31 83q0 61 46 99t134 38q81 0 126.5 -38t53.5 -104h-68q-8 40 -33.5 60t-78.5 20q-112 0 -112 -75q0 -28 22.5 -46t56 -25t72.5 -17.5t72.5 -23.5t56 -44.5
t22.5 -78.5q0 -65 -47.5 -103.5t-142.5 -38.5z" />
    <glyph glyph-name="afii10103" unicode="&#x456;" horiz-adv-x="256" 
d="M95 0v500h66v-500h-66zM128 588q-20 0 -33.5 14t-13.5 33t13.5 33t33.5 14t33.5 -14t13.5 -33t-13.5 -33t-33.5 -14z" />
    <glyph glyph-name="afii10104" unicode="&#x457;" horiz-adv-x="256" 
d="M95 0v500h66v-500h-66zM30 588q-20 0 -33.5 14t-13.5 33t13.5 33t33.5 14t33.5 -14t13.5 -33t-13.5 -33t-33.5 -14zM226 588q-20 0 -33.5 14t-13.5 33t13.5 33t33.5 14t33.5 -14t13.5 -33t-13.5 -33t-33.5 -14z" />
    <glyph glyph-name="afii10105" unicode="&#x458;" horiz-adv-x="256" 
d="M-19 -200v60h34q42 0 61 25t19 85v530h66v-530q0 -92 -35 -131t-111 -39h-34zM128 588q-20 0 -33.5 14t-13.5 33t13.5 33t33.5 14t33.5 -14t13.5 -33t-13.5 -33t-33.5 -14z" />
    <glyph glyph-name="afii10106" unicode="&#x459;" horiz-adv-x="800" 
d="M20 -7v62h15q40 0 62.5 44.5t22.5 160.5v240h335v-180h107q203 0 203 -159q0 -76 -50.5 -118.5t-152.5 -42.5h-173v440h-203v-180q0 -148 -38.5 -207.5t-112.5 -59.5h-15zM562 260h-107v-200h107q72 0 103.5 25.5t31.5 75.5q0 99 -135 99z" />
    <glyph glyph-name="afii10107" unicode="&#x45a;" horiz-adv-x="820" 
d="M418 0v245h-267v-245h-66v500h66v-195h267v195h66v-195h111q100 0 145 -38t45 -114q0 -77 -45 -115t-145 -38h-177zM595 245h-111v-185h111q122 0 122 93q0 92 -122 92z" />
    <glyph glyph-name="afii10108" unicode="&#x45b;" horiz-adv-x="575" 
d="M429 0v270q0 72 -33.5 108.5t-95.5 36.5q-65 0 -106 -38.5t-43 -100.5v-276h-66v534h-90v52h90v114h66v-114h164v-52h-164v-140q50 83 159 83q87 0 136 -53.5t49 -153.5v-270h-66z" />
    <glyph glyph-name="afii10109" unicode="&#x45c;" horiz-adv-x="510" 
d="M403 0l-163 230h-89v-230h-66v500h66v-210h89l143 210h82l-165 -241l185 -259h-82zM232 560l118 150h82l-130 -150h-70z" />
    <glyph glyph-name="uni045D" unicode="&#x45d;" horiz-adv-x="565" 
d="M260 -7q-83 0 -131.5 53.5t-48.5 153.5v300h66v-300q0 -71 33 -108t91 -37q64 0 104 40.5t40 104.5v300h66v-500h-51l-8 82q-52 -89 -161 -89zM245 560l-130 150h82l118 -150h-70z" />
    <glyph glyph-name="afii10110" unicode="&#x45e;" horiz-adv-x="520" 
d="M155 -200l77 200l-207 500h74l169 -418l157 418h70l-270 -700h-70zM262 563q-63 0 -99 36.5t-36 100.5h64q0 -85 71 -85q73 0 73 85h62q0 -64 -36 -100.5t-99 -36.5z" />
    <glyph glyph-name="afii10193" unicode="&#x45f;" horiz-adv-x="560" 
d="M85 0v500h66v-440h258v440h66v-500h-161v-130h-66v130h-163z" />
    <glyph glyph-name="afii10146" unicode="&#x462;" horiz-adv-x="635" 
d="M15 531v58h110v111h70v-111h175v-58h-175v-97h150q125 0 187.5 -56.5t62.5 -160.5q0 -217 -250 -217h-220v531h-110zM345 370h-150v-306h150q92 0 135 38.5t43 114.5q0 153 -178 153z" />
    <glyph glyph-name="afii10194" unicode="&#x463;" horiz-adv-x="540" 
d="M15 440v60h110v200h66v-200h159v-60h-159v-120h111q203 0 203 -160q0 -75 -50.5 -117.5t-152.5 -42.5h-177v440h-110zM302 260h-111v-200h111q135 0 135 100t-135 100z" />
    <glyph glyph-name="afii10147" unicode="&#x472;" horiz-adv-x="710" 
d="M355 -7q-129 0 -209.5 87.5t-80.5 237.5v64q0 149 81 237t209 88q129 0 209.5 -87.5t80.5 -237.5v-64q0 -149 -81 -237t-209 -88zM465 350q14 0 29 3t28.5 8t23.5 9t18 8l9 5q-1 119 -62.5 188.5t-155.5 69.5q-96 0 -156.5 -68t-61.5 -189q53 32 108 32t119 -33t101 -33z
M355 59q96 0 156.5 68t61.5 188l-6 -3q-6 -3 -13 -6t-18 -7t-21.5 -7.5t-24 -5.5t-25.5 -2q-55 0 -119 33t-101 33q-22 0 -48.5 -8t-40 -15t-19.5 -11q0 -119 61.5 -188t156.5 -69z" />
    <glyph glyph-name="afii10195" unicode="&#x473;" horiz-adv-x="550" 
d="M275 -7q-101 0 -160.5 62.5t-59.5 172.5v44q0 109 60 172t160 63q101 0 160.5 -62.5t59.5 -172.5v-44q0 -109 -60 -172t-160 -63zM275 55q66 0 107.5 42.5t44.5 119.5q-35 -21 -75 -21t-85 23t-69 23q-37 0 -75 -23q2 -77 43.5 -120.5t108.5 -43.5zM352 258q40 0 75 23
q-3 77 -44.5 120.5t-107.5 43.5t-107.5 -42.5t-44.5 -119.5q35 21 75 21t85 -23t69 -23z" />
    <glyph glyph-name="afii10148" unicode="&#x474;" horiz-adv-x="710" 
d="M300 0l-270 700h76l233 -613l147 473q28 91 64 119t115 28h45v-64h-45q-50 0 -71 -17t-36 -66l-178 -560h-80z" />
    <glyph glyph-name="afii10196" unicode="&#x475;" horiz-adv-x="555" 
d="M220 0l-195 500h74l160 -420l90 280q28 90 63 118.5t108 28.5h35v-61h-35q-46 0 -68 -17.5t-38 -68.5l-114 -360h-80z" />
    <glyph glyph-name="afii10050" unicode="&#x490;" horiz-adv-x="515" 
d="M90 0v700h330v120h70v-184h-330v-636h-70z" />
    <glyph glyph-name="afii10098" unicode="&#x491;" horiz-adv-x="430" 
d="M85 0v500h254v100h66v-160h-254v-440h-66z" />
    <glyph glyph-name="uni0492" unicode="&#x492;" horiz-adv-x="540" 
d="M15 297v58h100v345h400v-64h-330v-281h165v-58h-165v-297h-70v297h-100z" />
    <glyph glyph-name="uni0493" unicode="&#x493;" horiz-adv-x="450" 
d="M15 202v52h90v246h320v-60h-254v-186h129v-52h-129v-202h-66v202h-90z" />
    <glyph glyph-name="uni0496" unicode="&#x496;" horiz-adv-x="945" 
d="M801 0l-196 328h-110v-328h-70v328h-110l-197 -328h-83l221 362l-201 338h81l179 -308h110v308h70v-308h109l182 308h79l-201 -336l182 -300h84v-214h-70v150h-59z" />
    <glyph glyph-name="uni0497" unicode="&#x497;" horiz-adv-x="760" 
d="M614 0l-131 230h-90v-230h-66v230h-90l-133 -230h-79l153 258l-133 242h79l113 -210h90v210h66v-210h90l114 210h78l-132 -238l117 -202h85v-190h-66v130h-65z" />
    <glyph glyph-name="uni0498" unicode="&#x498;" horiz-adv-x="595" 
d="M260 -150v145q-94 10 -146 67t-59 153h72q15 -156 173 -156q79 0 121 37t42 99q0 60 -42 96t-121 36h-85v66h85q72 0 110 33.5t38 89.5q0 58 -38 91.5t-110 33.5q-142 0 -158 -136h-72q8 95 66.5 148.5t163.5 53.5q104 0 162 -52t58 -139q0 -107 -98 -154
q113 -47 113 -167q0 -85 -53.5 -139.5t-151.5 -61.5v-144h-70z" />
    <glyph glyph-name="uni0499" unicode="&#x499;" horiz-adv-x="485" 
d="M240 507q85 0 130 -39t45 -103q0 -75 -65 -108q80 -33 80 -117q0 -62 -41 -101t-121 -45v-124h-66v125q-147 16 -162 150h68q8 -44 38.5 -67t93.5 -23q122 0 122 85t-122 85h-55v60h55q107 0 107 80t-107 80q-100 0 -117 -80h-68q8 65 54.5 103.5t130.5 38.5z" />
    <glyph glyph-name="uni049A" unicode="&#x49a;" horiz-adv-x="655" 
d="M514 0l-243 328h-111v-328h-70v700h70v-308h110l226 308h84l-251 -339l223 -297h88v-214h-70v150h-56z" />
    <glyph glyph-name="uni049B" unicode="&#x49b;" horiz-adv-x="545" 
d="M403 0l-163 230h-89v-230h-66v500h66v-210h89l143 210h82l-165 -241l142 -199h88v-190h-66v130h-61z" />
    <glyph glyph-name="uni049C" unicode="&#x49c;" horiz-adv-x="705" 
d="M232 215v113h-72v-328h-70v700h70v-308h72v123h60v-123h48l226 308h84l-251 -339l271 -361h-86l-243 328h-49v-113h-60z" />
    <glyph glyph-name="uni049D" unicode="&#x49d;" horiz-adv-x="580" 
d="M213 140v90h-62v-230h-66v500h66v-210h62v100h56v-100h41l143 210h82l-165 -241l185 -259h-82l-163 230h-41v-90h-56z" />
    <glyph glyph-name="uni04A0" unicode="&#x4a0;" horiz-adv-x="750" 
d="M25 636v64h250v-308h110l226 308h84l-251 -339l271 -361h-86l-243 328h-111v-328h-70v636h-180z" />
    <glyph glyph-name="uni04A1" unicode="&#x4a1;" horiz-adv-x="585" 
d="M15 440v60h211v-210h89l143 210h82l-165 -241l185 -259h-82l-163 230h-89v-230h-66v440h-145z" />
    <glyph glyph-name="uni04A2" unicode="&#x4a2;" horiz-adv-x="735" 
d="M550 0v328h-390v-328h-70v700h70v-308h390v308h70v-636h90v-214h-70v150h-90z" />
    <glyph glyph-name="uni04A3" unicode="&#x4a3;" horiz-adv-x="595" 
d="M429 0v225h-278v-225h-66v500h66v-215h278v215h66v-440h80v-190h-66v130h-80z" />
    <glyph glyph-name="uni04A4" unicode="&#x4a4;" horiz-adv-x="975" 
d="M550 0v328h-390v-328h-70v700h70v-308h390v308h400v-64h-330v-636h-70z" />
    <glyph glyph-name="uni04A5" unicode="&#x4a5;" horiz-adv-x="770" 
d="M424 0v225h-273v-225h-66v500h66v-215h273v215h321v-60h-255v-440h-66z" />
    <glyph glyph-name="uni04AA" unicode="&#x4aa;" horiz-adv-x="670" 
d="M315 -150v145q-113 12 -181.5 97.5t-68.5 225.5v64q0 150 79.5 237.5t205.5 87.5q106 0 177.5 -59t87.5 -143h-76q-16 57 -66 96.5t-123 39.5q-94 0 -153.5 -68t-59.5 -191v-64q0 -122 59.5 -190.5t153.5 -68.5q73 0 123 43.5t66 112.5h76q-15 -88 -76 -149t-154 -71
v-145h-70z" />
    <glyph glyph-name="uni04AB" unicode="&#x4ab;" horiz-adv-x="505" 
d="M237 -130v125q-84 11 -133 72t-49 161v44q0 109 59 172t156 63q79 0 129 -39.5t66 -102.5h-70q-35 80 -125 80q-65 0 -106 -46t-41 -127v-44q0 -81 41 -127t106 -46q93 0 125 90h70q-14 -62 -55 -102t-107 -48v-125h-66z" />
    <glyph glyph-name="uni04AE" unicode="&#x4ae;" horiz-adv-x="650" 
d="M295 0v255l-265 445h78l222 -374l214 374h76l-255 -445v-255h-70z" />
    <glyph glyph-name="uni04AF" unicode="&#x4af;" horiz-adv-x="510" 
d="M227 -200v200l-202 500h74l162 -412l154 412h70l-192 -500v-200h-66z" />
    <glyph glyph-name="uni04B0" unicode="&#x4b0;" horiz-adv-x="650" 
d="M135 197v58h160l-265 445h78l222 -374l214 374h76l-255 -445h150v-58h-150v-197h-70v197h-160z" />
    <glyph glyph-name="uni04B1" unicode="&#x4b1;" horiz-adv-x="510" 
d="M100 -52v52h127l-202 500h74l162 -412l154 412h70l-192 -500h127v-52h-127v-148h-66v148h-127z" />
    <glyph glyph-name="uni04B2" unicode="&#x4b2;" horiz-adv-x="675" 
d="M529 0l-206 306l-204 -306h-84l246 363l-226 337h85l186 -277l186 277h83l-226 -333l203 -303h88v-214h-70v150h-61z" />
    <glyph glyph-name="uni04B3" unicode="&#x4b3;" horiz-adv-x="535" 
d="M395 0l-146 209l-146 -209h-78l183 257l-171 243h78l136 -194l136 194h76l-171 -241l140 -199h88v-190h-66v130h-59z" />
    <glyph glyph-name="uni04B6" unicode="&#x4b6;" horiz-adv-x="655" 
d="M470 0v282q-91 -24 -170 -24q-128 0 -184 56t-56 186v200h70v-200q0 -96 39.5 -137t130.5 -41q76 0 170 24v354h70v-636h90v-214h-70v150h-90z" />
    <glyph glyph-name="uni04B7" unicode="&#x4b7;" horiz-adv-x="535" 
d="M369 0v185q-62 -15 -124 -15q-99 0 -144.5 43.5t-45.5 136.5v150h66v-150q0 -66 27.5 -93t96.5 -27q62 0 124 15v255h66v-440h80v-190h-66v130h-80z" />
    <glyph glyph-name="uni04B8" unicode="&#x4b8;" horiz-adv-x="630" 
d="M470 0v282q-75 -21 -140 -24v-113h-60v113q-112 6 -161 63t-49 179v200h70v-200q0 -88 33 -129.5t107 -47.5v122h60v-123q65 3 140 24v354h70v-700h-70z" />
    <glyph glyph-name="uni04B9" unicode="&#x4b9;" horiz-adv-x="520" 
d="M369 0v185q-51 -13 -96 -15v-90h-56v91q-84 6 -123 49.5t-39 129.5v150h66v-150q0 -60 21.5 -87.5t74.5 -31.5v99h56v-100q46 2 96 15v255h66v-500h-66z" />
    <glyph glyph-name="uni04BA" unicode="&#x4ba;" horiz-adv-x="615" 
d="M465 0v220q0 89 -36.5 130t-111.5 41q-73 0 -114.5 -41.5t-43.5 -121.5v-228h-69v701h69v-330q53 86 173 86q96 0 149.5 -60t53.5 -177v-220h-70z" />
    <glyph glyph-name="uni04BB" unicode="&#x4bb;" horiz-adv-x="575" 
d="M85 0v700h66v-276q50 83 159 83q87 0 136 -53.5t49 -153.5v-300h-66v300q0 72 -33.5 108.5t-95.5 36.5q-65 0 -106 -38.5t-43 -100.5v-306h-66z" />
    <glyph glyph-name="uni04C0" unicode="&#x4c0;" horiz-adv-x="270" 
d="M100 0v700h70v-700h-70z" />
    <glyph glyph-name="uni04C1" unicode="&#x4c1;" horiz-adv-x="920" 
d="M801 0l-196 328h-110v-328h-70v328h-110l-197 -328h-83l221 362l-201 338h81l179 -308h110v308h70v-308h109l182 308h79l-201 -336l221 -364h-84zM460 763q-70 0 -107.5 36t-37.5 101h66q0 -85 79 -85q81 0 81 85h64q0 -65 -37.5 -101t-107.5 -36z" />
    <glyph glyph-name="uni04C2" unicode="&#x4c2;" horiz-adv-x="720" 
d="M614 0l-131 230h-90v-230h-66v230h-90l-133 -230h-79l153 258l-133 242h79l113 -210h90v210h66v-210h90l114 210h78l-132 -238l152 -262h-81zM360 563q-63 0 -99 36.5t-36 100.5h64q0 -85 71 -85q73 0 73 85h62q0 -64 -36 -100.5t-99 -36.5z" />
    <glyph glyph-name="uni04C7" unicode="&#x4c7;" horiz-adv-x="710" 
d="M436 -200v64h34q42 0 61 24.5t19 81.5v358h-390v-328h-70v700h70v-308h390v308h70v-730q0 -92 -35.5 -131t-114.5 -39h-34z" />
    <glyph glyph-name="uni04C8" unicode="&#x4c8;" horiz-adv-x="580" 
d="M315 -200v60h34q42 0 61 25t19 85v255h-278v-225h-66v500h66v-215h278v215h66v-530q0 -92 -35 -131t-111 -39h-34z" />
    <glyph glyph-name="uni04CF" unicode="&#x4cf;" horiz-adv-x="256" 
d="M95 0v700h66v-700h-66z" />
    <glyph glyph-name="uni04D2" unicode="&#x4d2;" horiz-adv-x="650" 
d="M551 0l-75 203h-305l-74 -203h-72l260 700h80l260 -700h-74zM266 460l-71 -193h258l-71 193l-58 160zM217 788q-19 0 -33 14t-14 33t14 33t33 14t33 -14t14 -33t-14 -33t-33 -14zM433 788q-19 0 -33 14t-14 33t14 33t33 14t33 -14t14 -33t-14 -33t-33 -14z" />
    <glyph glyph-name="uni04D3" unicode="&#x4d3;" horiz-adv-x="520" 
d="M205 -7q-74 0 -114.5 38.5t-40.5 106.5q0 157 210 157h114v45q0 55 -27 80t-87 25q-106 0 -114 -80h-71q4 64 51 103t134 39q88 0 134 -43.5t46 -123.5v-340h-51l-10 94q-26 -47 -72 -74t-102 -27zM210 55q68 0 116 46.5t48 110.5v23h-114q-142 0 -142 -97q0 -39 24 -61
t68 -22zM157 588q-19 0 -33 14t-14 33t14 33t33 14t33 -14t14 -33t-14 -33t-33 -14zM353 588q-19 0 -33 14t-14 33t14 33t33 14t33 -14t14 -33t-14 -33t-33 -14z" />
    <glyph glyph-name="uni04D4" unicode="&#x4d4;" horiz-adv-x="930" 
d="M20 0l410 700h450v-64h-350v-244h290v-64h-290v-264h350v-64h-420v203h-247l-117 -203h-76zM250 267h210v360z" />
    <glyph glyph-name="uni04D5" unicode="&#x4d5;" horiz-adv-x="855" 
d="M210 -7q-78 0 -119 38.5t-41 106.5q0 151 216 151h108v51q0 55 -27 80t-87 25q-106 0 -114 -80h-71q4 64 51 103t134 39q119 0 158 -85q57 85 169 85q97 0 155 -62t58 -173v-41h-360v-3q0 -85 39 -129t108 -44q105 0 140 91h68q-16 -69 -68.5 -111t-139.5 -42
q-135 0 -186 115q-25 -54 -75 -84.5t-116 -30.5zM589 445q-64 0 -104.5 -40.5t-44.5 -115.5h291q-4 76 -42 116t-100 40zM210 55q67 0 114 44t50 109v23h-108q-82 0 -115 -24t-33 -69q0 -39 24 -61t68 -22z" />
    <glyph glyph-name="uni04D8" unicode="&#x4d8;" horiz-adv-x="710" 
d="M355 -7q-129 0 -209.5 87t-80.5 238v60h70v-1h440v5q0 121 -61 190t-159 69q-78 0 -128 -40t-69 -96h-76q21 80 89 141t184 61q129 0 209.5 -87t80.5 -238v-64q0 -150 -81 -237.5t-209 -87.5zM355 59q97 0 158 67t62 187h-440q1 -119 62.5 -186.5t157.5 -67.5z" />
    <glyph glyph-name="afii10846" unicode="&#x4d9;" horiz-adv-x="540" 
d="M270 -7q-99 0 -157 62t-58 173v41h362v3q0 86 -39.5 129.5t-112.5 43.5q-101 0 -137 -80h-68q16 61 69 101.5t136 40.5q102 0 161 -62t59 -173v-44q0 -111 -58 -173t-157 -62zM270 55q65 0 103.5 40.5t42.5 115.5h-293q4 -77 43 -116.5t104 -39.5z" />
    <glyph glyph-name="uni04E2" unicode="&#x4e2;" horiz-adv-x="710" 
d="M551 0v626l-59 -106l-306 -520h-96v700h70v-625l58 105l306 520h96v-700h-69zM210 806v58h290v-58h-290z" />
    <glyph glyph-name="uni04E3" unicode="&#x4e3;" horiz-adv-x="580" 
d="M429 0v424l-62 -104l-200 -320h-82v500h66v-425l62 105l200 320h82v-500h-66zM155 607v56h270v-56h-270z" />
    <glyph glyph-name="uni04E6" unicode="&#x4e6;" horiz-adv-x="710" 
d="M355 -7q-129 0 -209.5 87.5t-80.5 237.5v64q0 149 81 237t209 88q129 0 209.5 -87.5t80.5 -237.5v-64q0 -149 -81 -237t-209 -88zM355 59q96 0 157 69t61 190v64q0 120 -61.5 189.5t-156.5 69.5q-96 0 -157 -69t-61 -190v-64q0 -120 61.5 -189.5t156.5 -69.5zM247 788
q-19 0 -33 14t-14 33t14 33t33 14t33 -14t14 -33t-14 -33t-33 -14zM463 788q-19 0 -33 14t-14 33t14 33t33 14t33 -14t14 -33t-14 -33t-33 -14z" />
    <glyph glyph-name="uni04E7" unicode="&#x4e7;" horiz-adv-x="550" 
d="M275 -7q-101 0 -160.5 62.5t-59.5 172.5v44q0 109 60 172t160 63q101 0 160.5 -62.5t59.5 -172.5v-44q0 -109 -60 -172t-160 -63zM275 55q69 0 110.5 45.5t41.5 127.5v44q0 81 -42 127t-110 46q-69 0 -110.5 -45.5t-41.5 -127.5v-44q0 -81 42 -127t110 -46zM177 588
q-19 0 -33 14t-14 33t14 33t33 14t33 -14t14 -33t-14 -33t-33 -14zM373 588q-19 0 -33 14t-14 33t14 33t33 14t33 -14t14 -33t-14 -33t-33 -14z" />
    <glyph glyph-name="uni04E8" unicode="&#x4e8;" horiz-adv-x="710" 
d="M355 -7q-129 0 -209.5 87.5t-80.5 237.5v64q0 149 81 237t209 88q129 0 209.5 -87.5t80.5 -237.5v-64q0 -149 -81 -237t-209 -88zM355 641q-96 0 -157 -69t-61 -190h436q0 120 -61.5 189.5t-156.5 69.5zM355 59q96 0 157 69t61 190h-436q0 -120 61.5 -189.5t156.5 -69.5z
" />
    <glyph glyph-name="uni04E9" unicode="&#x4e9;" horiz-adv-x="550" 
d="M275 -7q-101 0 -160.5 62.5t-59.5 172.5v44q0 109 60 172t160 63q101 0 160.5 -62.5t59.5 -172.5v-44q0 -109 -60 -172t-160 -63zM275 55q67 0 108.5 43.5t43.5 121.5h-304q2 -77 44 -121t108 -44zM275 445q-67 0 -108.5 -43.5t-43.5 -121.5h304q-2 77 -44 121t-108 44z
" />
    <glyph glyph-name="uni04EE" unicode="&#x4ee;" horiz-adv-x="610" 
d="M195 0l88 200l-253 500h78l212 -425l184 425h76l-309 -700h-76zM161 806v58h290v-58h-290z" />
    <glyph glyph-name="uni04EF" unicode="&#x4ef;" horiz-adv-x="520" 
d="M155 -200l77 200l-207 500h74l169 -418l157 418h70l-270 -700h-70zM127 607v56h270v-56h-270z" />
    <glyph glyph-name="uni04F0" unicode="&#x4f0;" horiz-adv-x="610" 
d="M195 0l88 200l-253 500h78l212 -425l184 425h76l-309 -700h-76zM198 788q-20 0 -33.5 14t-13.5 33t13.5 33t33.5 14t33.5 -14t13.5 -33t-13.5 -33t-33.5 -14zM414 788q-20 0 -33.5 14t-13.5 33t13.5 33t33.5 14t33.5 -14t13.5 -33t-13.5 -33t-33.5 -14z" />
    <glyph glyph-name="uni04F1" unicode="&#x4f1;" horiz-adv-x="520" 
d="M155 -200l77 200l-207 500h74l169 -418l157 418h70l-270 -700h-70zM164 588q-20 0 -33.5 14t-13.5 33t13.5 33t33.5 14t33.5 -14t13.5 -33t-13.5 -33t-33.5 -14zM360 588q-20 0 -33.5 14t-13.5 33t13.5 33t33.5 14t33.5 -14t13.5 -33t-13.5 -33t-33.5 -14z" />
    <glyph glyph-name="uni1E9E" unicode="&#x1e9e;" horiz-adv-x="610" 
d="M85 0v495q0 95 57 153.5t148 58.5q85 0 139.5 -51t70.5 -134l-102 -114q104 -78 135.5 -121t31.5 -107q0 -79 -54.5 -129.5t-145.5 -50.5h-120v64h120q57 0 92.5 33t35.5 83q0 44 -29 80.5t-134 112.5v54l92 106q-12 49 -45 78.5t-87 29.5q-60 0 -97.5 -39.5
t-37.5 -106.5v-495h-70z" />
    <glyph glyph-name="Ygrave" unicode="&#x1ef2;" horiz-adv-x="650" 
d="M295 0v255l-265 445h78l222 -374l214 374h76l-255 -445v-255h-70zM290 760l-128 150h86l114 -150h-72z" />
    <glyph glyph-name="ygrave" unicode="&#x1ef3;" horiz-adv-x="520" 
d="M155 -200l77 200l-207 500h74l169 -418l157 418h70l-270 -700h-70zM227 560l-130 150h82l118 -150h-70z" />
    <glyph glyph-name="uni2010" unicode="&#x2010;" horiz-adv-x="400" 
d="M50 228v64h300v-64h-300z" />
    <glyph glyph-name="uni2011" unicode="&#x2011;" horiz-adv-x="400" 
d="M50 228v64h300v-64h-300z" />
    <glyph glyph-name="figuredash" unicode="&#x2012;" 
d="M50 288v64h490v-64h-490z" />
    <glyph glyph-name="endash" unicode="&#x2013;" 
d="M50 228v64h490v-64h-490z" />
    <glyph glyph-name="emdash" unicode="&#x2014;" horiz-adv-x="700" 
d="M50 228v64h600v-64h-600z" />
    <glyph glyph-name="afii00208" unicode="&#x2015;" horiz-adv-x="700" 
d="M50 228v64h600v-64h-600z" />
    <glyph glyph-name="quoteleft" unicode="&#x2018;" horiz-adv-x="250" 
d="M190 700l-50 -235h-80l75 235h55z" />
    <glyph glyph-name="quoteright" unicode="&#x2019;" horiz-adv-x="250" 
d="M60 465l50 235h80l-75 -235h-55z" />
    <glyph glyph-name="quotesinglbase" unicode="&#x201a;" horiz-adv-x="250" 
d="M45 -150l50 235h80l-75 -235h-55z" />
    <glyph glyph-name="quotedblleft" unicode="&#x201c;" horiz-adv-x="420" 
d="M360 700l-50 -235h-80l75 235h55zM190 700l-50 -235h-80l75 235h55z" />
    <glyph glyph-name="quotedblright" unicode="&#x201d;" horiz-adv-x="420" 
d="M230 465l50 235h80l-75 -235h-55zM60 465l50 235h80l-75 -235h-55z" />
    <glyph glyph-name="quotedblbase" unicode="&#x201e;" horiz-adv-x="420" 
d="M215 -150l50 235h80l-75 -235h-55zM45 -150l50 235h80l-75 -235h-55z" />
    <glyph glyph-name="dagger" unicode="&#x2020;" horiz-adv-x="460" 
d="M30 436v64h165v200h70v-200h165v-64h-165v-636h-70v636h-165z" />
    <glyph glyph-name="daggerdbl" unicode="&#x2021;" horiz-adv-x="460" 
d="M30 436v64h165v200h70v-200h165v-64h-165v-372h165v-64h-165v-200h-70v200h-165v64h165v372h-165z" />
    <glyph glyph-name="bullet" unicode="&#x2022;" horiz-adv-x="450" 
d="M225 145q-47 0 -81 34t-34 81t34 81t81 34t81 -34t34 -81t-34 -81t-81 -34z" />
    <glyph glyph-name="uni2023" unicode="&#x2023;" horiz-adv-x="450" 
d="M127 113v294l238 -147z" />
    <glyph glyph-name="onedotenleader" unicode="&#x2024;" horiz-adv-x="250" 
d="M125 -7q-24 0 -39.5 16t-15.5 39t15.5 39t39.5 16t39.5 -16t15.5 -39t-15.5 -39t-39.5 -16z" />
    <glyph glyph-name="twodotenleader" unicode="&#x2025;" horiz-adv-x="555" 
d="M125 -7q-24 0 -39.5 16t-15.5 39t15.5 39t39.5 16t39.5 -16t15.5 -39t-15.5 -39t-39.5 -16zM430 -7q-24 0 -39.5 16t-15.5 39t15.5 39t39.5 16t39.5 -16t15.5 -39t-15.5 -39t-39.5 -16z" />
    <glyph glyph-name="ellipsis" unicode="&#x2026;" horiz-adv-x="860" 
d="M125 -7q-24 0 -39.5 16t-15.5 39t15.5 39t39.5 16t39.5 -16t15.5 -39t-15.5 -39t-39.5 -16zM430 -7q-24 0 -39.5 16t-15.5 39t15.5 39t39.5 16t39.5 -16t15.5 -39t-15.5 -39t-39.5 -16zM735 -7q-24 0 -39.5 16t-15.5 39t15.5 39t39.5 16t39.5 -16t15.5 -39t-15.5 -39
t-39.5 -16z" />
    <glyph glyph-name="uni2027" unicode="&#x2027;" horiz-adv-x="250" 
d="M125 205q-24 0 -39.5 16t-15.5 39t15.5 39t39.5 16t39.5 -16t15.5 -39t-15.5 -39t-39.5 -16z" />
    <glyph glyph-name="perthousand" unicode="&#x2030;" horiz-adv-x="1300" 
d="M210 343q-71 0 -115.5 45t-44.5 117v40q0 72 44.5 117t115.5 45t115.5 -45t44.5 -117v-40q0 -72 -44.5 -117t-115.5 -45zM210 401q42 0 69 28.5t27 75.5v40q0 47 -27 75.5t-69 28.5t-69 -28.5t-27 -75.5v-40q0 -47 27 -75.5t69 -28.5zM690 -7q-71 0 -115.5 45t-44.5 117
v40q0 72 44.5 117t115.5 45t115.5 -45t44.5 -117v-40q0 -72 -44.5 -117t-115.5 -45zM690 51q42 0 69 28.5t27 75.5v40q0 47 -27 75.5t-69 28.5t-69 -28.5t-27 -75.5v-40q0 -47 27 -75.5t69 -28.5zM1090 -7q-71 0 -115.5 45t-44.5 117v40q0 72 44.5 117t115.5 45t115.5 -45
t44.5 -117v-40q0 -72 -44.5 -117t-115.5 -45zM1090 51q42 0 69 28.5t27 75.5v40q0 47 -27 75.5t-69 28.5t-69 -28.5t-27 -75.5v-40q0 -47 27 -75.5t69 -28.5zM210 0l406 700h74l-406 -700h-74z" />
    <glyph glyph-name="uni2031" unicode="&#x2031;" horiz-adv-x="1700" 
d="M210 343q-71 0 -115.5 45t-44.5 117v40q0 72 44.5 117t115.5 45t115.5 -45t44.5 -117v-40q0 -72 -44.5 -117t-115.5 -45zM210 401q42 0 69 28.5t27 75.5v40q0 47 -27 75.5t-69 28.5t-69 -28.5t-27 -75.5v-40q0 -47 27 -75.5t69 -28.5zM690 -7q-71 0 -115.5 45t-44.5 117
v40q0 72 44.5 117t115.5 45t115.5 -45t44.5 -117v-40q0 -72 -44.5 -117t-115.5 -45zM690 51q42 0 69 28.5t27 75.5v40q0 47 -27 75.5t-69 28.5t-69 -28.5t-27 -75.5v-40q0 -47 27 -75.5t69 -28.5zM1090 -7q-71 0 -115.5 45t-44.5 117v40q0 72 44.5 117t115.5 45t115.5 -45
t44.5 -117v-40q0 -72 -44.5 -117t-115.5 -45zM1090 51q42 0 69 28.5t27 75.5v40q0 47 -27 75.5t-69 28.5t-69 -28.5t-27 -75.5v-40q0 -47 27 -75.5t69 -28.5zM1490 -7q-71 0 -115.5 45t-44.5 117v40q0 72 44.5 117t115.5 45t115.5 -45t44.5 -117v-40q0 -72 -44.5 -117
t-115.5 -45zM1490 51q42 0 69 28.5t27 75.5v40q0 47 -27 75.5t-69 28.5t-69 -28.5t-27 -75.5v-40q0 -47 27 -75.5t69 -28.5zM210 0l406 700h74l-406 -700h-74z" />
    <glyph glyph-name="guilsinglleft" unicode="&#x2039;" horiz-adv-x="300" 
d="M45 258l122 202h73l-121 -198l121 -202h-76z" />
    <glyph glyph-name="guilsinglright" unicode="&#x203a;" horiz-adv-x="300" 
d="M255 262l-122 -202h-73l121 198l-121 202h76z" />
    <glyph glyph-name="exclamdbl" unicode="&#x203c;" horiz-adv-x="550" 
d="M400 -7q-24 0 -39.5 16t-15.5 39t15.5 39t39.5 16t39.5 -16t15.5 -39t-15.5 -39t-39.5 -16zM365 200v500h70v-500h-70zM150 -7q-24 0 -39.5 16t-15.5 39t15.5 39t39.5 16t39.5 -16t15.5 -39t-15.5 -39t-39.5 -16zM115 200v500h70v-500h-70z" />
    <glyph glyph-name="uni203D" unicode="&#x203d;" horiz-adv-x="510" 
d="M215 190v370h70v-203q14 16 37.5 36.5t38 34t26 38t11.5 54.5q0 55 -38 88t-110 33q-69 0 -106.5 -34.5t-41.5 -96.5h-72q4 92 61 144.5t159 52.5q106 0 163 -51t57 -136q0 -43 -13.5 -75.5t-34.5 -50.5t-44.5 -38t-44.5 -38.5t-34.5 -51.5t-13.5 -76h-70zM250 -7
q-24 0 -39.5 16t-15.5 39t15.5 39t39.5 16t39.5 -16t15.5 -39t-15.5 -39t-39.5 -16z" />
    <glyph glyph-name="uni2043" unicode="&#x2043;" horiz-adv-x="450" 
d="M60 224v72h330v-72h-330z" />
    <glyph glyph-name="fraction" unicode="&#x2044;" horiz-adv-x="150" 
d="M-165 0l406 700h74l-406 -700h-74z" />
    <glyph glyph-name="uni2047" unicode="&#x2047;" horiz-adv-x="990" 
d="M700 190q0 62 18.5 105.5t44.5 66.5t52 42.5t44.5 47.5t18.5 68q0 55 -37.5 88t-105.5 33q-65 0 -102 -34.5t-41 -96.5h-72q4 91 60.5 144t154.5 53q102 0 158.5 -51t56.5 -136q0 -51 -18.5 -86.5t-45 -56.5t-53 -42.5t-45 -57.5t-18.5 -87h-70zM735 -7q-24 0 -39.5 16
t-15.5 39t15.5 39t39.5 16t39.5 -16t15.5 -39t-15.5 -39t-39.5 -16zM210 190q0 62 18.5 105.5t44.5 66.5t52 42.5t44.5 47.5t18.5 68q0 55 -37.5 88t-105.5 33q-65 0 -102 -34.5t-41 -96.5h-72q4 91 60.5 144t154.5 53q102 0 158.5 -51t56.5 -136q0 -51 -18.5 -86.5
t-45 -56.5t-53 -42.5t-45 -57.5t-18.5 -87h-70zM245 -7q-24 0 -39.5 16t-15.5 39t15.5 39t39.5 16t39.5 -16t15.5 -39t-15.5 -39t-39.5 -16z" />
    <glyph glyph-name="uni2048" unicode="&#x2048;" horiz-adv-x="750" 
d="M600 -7q-24 0 -39.5 16t-15.5 39t15.5 39t39.5 16t39.5 -16t15.5 -39t-15.5 -39t-39.5 -16zM565 200v500h70v-500h-70zM210 190q0 62 18.5 105.5t44.5 66.5t52 42.5t44.5 47.5t18.5 68q0 55 -37.5 88t-105.5 33q-65 0 -102 -34.5t-41 -96.5h-72q4 91 60.5 144t154.5 53
q102 0 158.5 -51t56.5 -136q0 -51 -18.5 -86.5t-45 -56.5t-53 -42.5t-45 -57.5t-18.5 -87h-70zM245 -7q-24 0 -39.5 16t-15.5 39t15.5 39t39.5 16t39.5 -16t15.5 -39t-15.5 -39t-39.5 -16z" />
    <glyph glyph-name="uni2049" unicode="&#x2049;" horiz-adv-x="750" 
d="M150 -7q-24 0 -39.5 16t-15.5 39t15.5 39t39.5 16t39.5 -16t15.5 -39t-15.5 -39t-39.5 -16zM115 200v500h70v-500h-70zM460 190q0 62 18.5 105.5t44.5 66.5t52 42.5t44.5 47.5t18.5 68q0 55 -37.5 88t-105.5 33q-65 0 -102 -34.5t-41 -96.5h-72q4 91 60.5 144t154.5 53
q102 0 158.5 -51t56.5 -136q0 -51 -18.5 -86.5t-45 -56.5t-53 -42.5t-45 -57.5t-18.5 -87h-70zM495 -7q-24 0 -39.5 16t-15.5 39t15.5 39t39.5 16t39.5 -16t15.5 -39t-15.5 -39t-39.5 -16z" />
    <glyph glyph-name="uni2070" unicode="&#x2070;" horiz-adv-x="390" 
d="M195 373q-155 0 -155 210v44q0 210 155 210t155 -210v-44q0 -210 -155 -210zM195 432q44 0 67.5 34.5t23.5 116.5v44q0 82 -23.5 116.5t-67.5 34.5t-67.5 -34.5t-23.5 -116.5v-44q0 -82 23.5 -116.5t67.5 -34.5z" />
    <glyph glyph-name="uni2074" unicode="&#x2074;" horiz-adv-x="370" 
d="M20 478v56l194 296h83v-296h53v-56h-53v-98h-61v98h-216zM84 534h152v234z" />
    <glyph glyph-name="uni2075" unicode="&#x2075;" horiz-adv-x="385" 
d="M41 581l20 249h262v-56h-206l-11 -129q40 37 96 37q67 0 107.5 -41.5t40.5 -112.5t-43 -113t-117 -42q-63 0 -105 31.5t-55 80.5h69q6 -21 29.5 -37t61.5 -16q43 0 69.5 26t26.5 70t-26.5 69.5t-69.5 25.5q-55 0 -88 -42h-61z" />
    <glyph glyph-name="uni2076" unicode="&#x2076;" horiz-adv-x="390" 
d="M200 373q-76 0 -118 46.5t-42 136.5v52q0 117 43 173t117 56q58 0 92.5 -29t43.5 -74h-64q-5 18 -23 31t-49 13q-48 0 -74.5 -34.5t-28.5 -117.5q38 51 106 51t107.5 -39t39.5 -106v-12q0 -64 -42 -105.5t-108 -41.5zM195 617q-42 0 -66.5 -23.5t-24.5 -61.5v-10
q0 -42 25 -66t71 -24q38 0 62 24t24 64v12q0 38 -24.5 61.5t-66.5 23.5z" />
    <glyph glyph-name="uni2077" unicode="&#x2077;" horiz-adv-x="330" 
d="M15 774v56h300v-56l-169 -394h-70l173 394h-234z" />
    <glyph glyph-name="uni2078" unicode="&#x2078;" horiz-adv-x="380" 
d="M190 373q-72 0 -113.5 36.5t-41.5 93.5q0 79 80 113q-66 32 -66 100q0 52 38.5 86.5t102.5 34.5t102.5 -34.5t38.5 -86.5q0 -68 -67 -100q81 -34 81 -113q0 -57 -41.5 -93.5t-113.5 -36.5zM190 431q41 0 66.5 22t25.5 52q0 34 -24.5 57t-67.5 27q-43 -4 -67.5 -27
t-24.5 -57q0 -30 25.5 -52t66.5 -22zM190 641q35 4 56.5 24.5t21.5 48.5q0 26 -22 45.5t-56 19.5t-56 -19.5t-22 -45.5q0 -28 21.5 -48.5t56.5 -24.5z" />
    <glyph glyph-name="uni2079" unicode="&#x2079;" horiz-adv-x="390" 
d="M190 835q76 0 118 -46.5t42 -136.5v-52q0 -117 -43 -173t-117 -56q-58 0 -92.5 29t-43.5 74h64q5 -18 23 -31t49 -13q48 0 74.5 34.5t28.5 117.5q-38 -51 -106 -51t-107.5 39t-39.5 106v12q0 64 42 105.5t108 41.5zM195 591q42 0 66.5 23.5t24.5 61.5v10q0 42 -25 66
t-71 24q-38 0 -62 -24t-24 -64v-12q0 -38 24.5 -61.5t66.5 -23.5z" />
    <glyph glyph-name="uni207A" unicode="&#x207a;" horiz-adv-x="400" 
d="M55 577v56h114v118h62v-118h114v-56h-114v-118h-62v118h-114z" />
    <glyph glyph-name="uni207B" unicode="&#x207b;" horiz-adv-x="400" 
d="M55 577v56h290v-56h-290z" />
    <glyph glyph-name="uni207C" unicode="&#x207c;" horiz-adv-x="400" 
d="M55 641v56h290v-56h-290zM55 513v56h290v-56h-290z" />
    <glyph glyph-name="uni207D" unicode="&#x207d;" horiz-adv-x="240" 
d="M50 605q0 41 10 79.5t24.5 63.5t29 44.5t24.5 28.5l10 9h77q-5 -3 -12.5 -9t-27 -27.5t-34.5 -45.5t-27.5 -63t-12.5 -80t11.5 -79.5t28.5 -63.5t34 -44.5t29 -28.5l11 -9h-80q-4 3 -10.5 9t-22.5 27.5t-28.5 45.5t-23 63t-10.5 80z" />
    <glyph glyph-name="uni207E" unicode="&#x207e;" horiz-adv-x="240" 
d="M190 605q0 -41 -10 -79.5t-24.5 -63.5t-29 -44.5t-24.5 -28.5l-10 -9h-77q5 3 12.5 9t27 27.5t34.5 45.5t27.5 63t12.5 80t-11.5 79.5t-28.5 63.5t-34 44.5t-29 28.5l-11 9h80q4 -3 10.5 -9t22.5 -27.5t28.5 -45.5t23 -63t10.5 -80z" />
    <glyph glyph-name="uni207F" unicode="&#x207f;" horiz-adv-x="370" 
d="M45 380v320h48l6 -49q33 56 105 56q60 0 93 -36.5t33 -108.5v-182h-60v182q0 87 -78 87q-41 0 -64 -23t-23 -64v-182h-60z" />
    <glyph glyph-name="uni2080" unicode="&#x2080;" horiz-adv-x="390" 
d="M195 -137q-155 0 -155 210v44q0 210 155 210t155 -210v-44q0 -210 -155 -210zM195 -78q44 0 67.5 34.5t23.5 116.5v44q0 82 -23.5 116.5t-67.5 34.5t-67.5 -34.5t-23.5 -116.5v-44q0 -82 23.5 -116.5t67.5 -34.5z" />
    <glyph glyph-name="uni2081" unicode="&#x2081;" horiz-adv-x="260" 
d="M20 177v69l119 74h61v-450h-61v382z" />
    <glyph glyph-name="uni2082" unicode="&#x2082;" horiz-adv-x="355" 
d="M26 -130v56l151 146q48 46 63 72t15 54q0 32 -21.5 51t-60.5 19t-60.5 -19t-21.5 -51h-64q0 56 40 92.5t106 36.5t106 -36.5t40 -92.5q0 -41 -22 -78t-77 -89l-111 -105h211v-56h-294z" />
    <glyph glyph-name="uni2083" unicode="&#x2083;" horiz-adv-x="370" 
d="M180 -137q-147 0 -155 144h64q9 -85 91 -85q43 0 67 21t24 55q0 32 -24.5 53t-65.5 21h-59v56h59q38 0 59.5 19.5t21.5 50.5q0 32 -21 51t-61 19q-74 0 -82 -71h-64q4 60 42 95t104 35q67 0 106.5 -35t39.5 -88q0 -73 -64 -101q73 -33 73 -107q0 -61 -40.5 -97
t-114.5 -36z" />
    <glyph glyph-name="uni2084" unicode="&#x2084;" horiz-adv-x="370" 
d="M20 -32v56l194 296h83v-296h53v-56h-53v-98h-61v98h-216zM84 24h152v234z" />
    <glyph glyph-name="uni2085" unicode="&#x2085;" horiz-adv-x="385" 
d="M41 71l20 249h262v-56h-206l-11 -129q40 37 96 37q67 0 107.5 -41.5t40.5 -112.5t-43 -113t-117 -42q-63 0 -105 31.5t-55 80.5h69q6 -21 29.5 -37t61.5 -16q43 0 69.5 26t26.5 70t-26.5 69.5t-69.5 25.5q-55 0 -88 -42h-61z" />
    <glyph glyph-name="uni2086" unicode="&#x2086;" horiz-adv-x="390" 
d="M200 -137q-76 0 -118 46.5t-42 136.5v52q0 117 43 173t117 56q58 0 92.5 -29t43.5 -74h-64q-5 18 -23 31t-49 13q-48 0 -74.5 -34.5t-28.5 -117.5q38 51 106 51t107.5 -39t39.5 -106v-12q0 -64 -42 -105.5t-108 -41.5zM195 107q-42 0 -66.5 -23.5t-24.5 -61.5v-10
q0 -42 25 -66t71 -24q38 0 62 24t24 64v12q0 38 -24.5 61.5t-66.5 23.5z" />
    <glyph glyph-name="uni2087" unicode="&#x2087;" horiz-adv-x="330" 
d="M15 264v56h300v-56l-169 -394h-70l173 394h-234z" />
    <glyph glyph-name="uni2088" unicode="&#x2088;" horiz-adv-x="380" 
d="M190 -137q-72 0 -113.5 36.5t-41.5 93.5q0 79 80 113q-66 31 -66 100q0 52 38.5 86.5t102.5 34.5t102.5 -34.5t38.5 -86.5q0 -68 -67 -100q81 -34 81 -113q0 -57 -41.5 -93.5t-113.5 -36.5zM190 -79q41 0 66.5 22t25.5 52q0 34 -24.5 57t-67.5 27q-43 -4 -67.5 -27
t-24.5 -57q0 -30 25.5 -52t66.5 -22zM190 131q35 4 56.5 24.5t21.5 48.5q0 26 -22 45.5t-56 19.5t-56 -19.5t-22 -45.5q0 -28 21.5 -48.5t56.5 -24.5z" />
    <glyph glyph-name="uni2089" unicode="&#x2089;" horiz-adv-x="390" 
d="M190 327q76 0 118 -46.5t42 -136.5v-52q0 -117 -43 -173t-117 -56q-58 0 -92.5 29t-43.5 74h64q5 -18 23 -31t49 -13q48 0 74.5 34.5t28.5 117.5q-38 -51 -106 -51t-107.5 39t-39.5 106v12q0 64 42 105.5t108 41.5zM195 83q42 0 66.5 23.5t24.5 61.5v10q0 42 -25 66
t-71 24q-38 0 -62 -24t-24 -64v-12q0 -38 24.5 -61.5t66.5 -23.5z" />
    <glyph glyph-name="uni208A" unicode="&#x208a;" horiz-adv-x="400" 
d="M55 67v56h114v118h62v-118h114v-56h-114v-118h-62v118h-114z" />
    <glyph glyph-name="uni208B" unicode="&#x208b;" horiz-adv-x="400" 
d="M55 67v56h290v-56h-290z" />
    <glyph glyph-name="uni208C" unicode="&#x208c;" horiz-adv-x="400" 
d="M55 131v56h290v-56h-290zM55 3v56h290v-56h-290z" />
    <glyph glyph-name="uni208D" unicode="&#x208d;" horiz-adv-x="240" 
d="M50 95q0 41 10 79.5t24.5 63.5t29 44.5t24.5 28.5l10 9h77q-5 -3 -12.5 -9t-27 -27.5t-34.5 -45.5t-27.5 -63t-12.5 -80t11.5 -79.5t28.5 -63.5t34 -44.5t29 -28.5l11 -9h-80q-4 3 -10.5 9t-22.5 27.5t-28.5 45.5t-23 63t-10.5 80z" />
    <glyph glyph-name="uni208E" unicode="&#x208e;" horiz-adv-x="240" 
d="M190 95q0 -41 -10 -79.5t-24.5 -63.5t-29 -44.5t-24.5 -28.5l-10 -9h-77q5 3 12.5 9t27 27.5t34.5 45.5t27.5 63t12.5 80t-11.5 79.5t-28.5 63.5t-34 44.5t-29 28.5l-11 9h80q4 -3 10.5 -9t22.5 -27.5t28.5 -45.5t23 -63t10.5 -80z" />
    <glyph glyph-name="uni2090" unicode="&#x2090;" horiz-adv-x="350" 
d="M140 -137q-54 0 -82 25.5t-28 69.5q0 50 35 76.5t116 26.5h69v22q0 34 -16 49t-54 15q-62 0 -71 -44h-61q4 43 37 68.5t95 25.5q130 0 130 -114v-213h-48l-7 54q-36 -61 -115 -61zM149 -87q45 0 73 26.5t28 66.5v13h-69q-88 0 -88 -55q0 -51 56 -51z" />
    <glyph glyph-name="uni2091" unicode="&#x2091;" horiz-adv-x="360" 
d="M180 -137q-68 0 -109 41t-41 110v32q0 69 41 110t109 41q65 0 107.5 -42.5t42.5 -108.5v-38h-238q1 -41 25.5 -65t62.5 -24q59 0 80 44h65q-13 -48 -52 -74t-93 -26zM180 141q-37 0 -61 -23t-27 -62h175q-2 40 -25.5 62.5t-61.5 22.5z" />
    <glyph glyph-name="uni2092" unicode="&#x2092;" horiz-adv-x="360" 
d="M180 -137q-68 0 -109 41.5t-41 109.5v32q0 68 41 109.5t109 41.5t109 -41.5t41 -109.5v-32q0 -68 -41 -109.5t-109 -41.5zM180 -79q39 0 62.5 24.5t23.5 68.5v32q0 44 -23.5 68.5t-62.5 24.5t-62.5 -24.5t-23.5 -68.5v-32q0 -44 23.5 -68.5t62.5 -24.5z" />
    <glyph glyph-name="uni2093" unicode="&#x2093;" horiz-adv-x="350" 
d="M254 -130l-80 116l-79 -116h-70l116 165l-106 155h68l72 -106l74 106h66l-106 -155l116 -165h-71z" />
    <glyph glyph-name="uni2094" unicode="&#x2094;" horiz-adv-x="360" 
d="M180 197q68 0 109 -41t41 -110v-32q0 -69 -41 -110t-109 -41q-65 0 -107.5 42.5t-42.5 108.5v38h238q-1 41 -25.5 65t-62.5 24q-59 0 -80 -44h-65q13 48 51.5 74t93.5 26zM180 -81q37 0 61 23t27 62h-175q2 -40 25.5 -62.5t61.5 -22.5z" />
    <glyph glyph-name="uni2095" unicode="&#x2095;" horiz-adv-x="370" 
d="M45 -130v450h60v-171q34 48 99 48q60 0 93 -36.5t33 -108.5v-182h-60v182q0 87 -78 87q-40 0 -62.5 -20.5t-24.5 -58.5v-190h-60z" />
    <glyph glyph-name="uni2096" unicode="&#x2096;" horiz-adv-x="340" 
d="M247 -130l-104 135l-38 -48v-87h-60v450h60v-291l132 161h68l-124 -146l134 -174h-68z" />
    <glyph glyph-name="uni2097" unicode="&#x2097;" horiz-adv-x="195" 
d="M144 -130q-104 0 -104 104v346h60v-340q0 -30 12 -42.5t40 -12.5h28v-55h-36z" />
    <glyph glyph-name="uni2098" unicode="&#x2098;" horiz-adv-x="570" 
d="M45 -130v320h48l6 -47q32 54 98 54q74 0 103 -60q32 60 111 60q56 0 87.5 -36.5t31.5 -108.5v-182h-60v182q0 87 -71 87q-37 0 -59 -21t-23 -59v-7v-182h-60v182q0 87 -72 87q-38 0 -59 -22.5t-21 -64.5v-182h-60z" />
    <glyph glyph-name="uni2099" unicode="&#x2099;" horiz-adv-x="370" 
d="M45 -130v320h48l6 -49q33 56 105 56q60 0 93 -36.5t33 -108.5v-182h-60v182q0 87 -78 87q-41 0 -64 -23t-23 -64v-182h-60z" />
    <glyph glyph-name="uni209A" unicode="&#x209a;" horiz-adv-x="365" 
d="M206 -137q-69 0 -101 47v-170h-60v450h48l6 -50q31 57 107 57q58 0 93.5 -40.5t35.5 -114.5v-24q0 -74 -35.5 -114.5t-93.5 -40.5zM190 -79q38 0 60 25t22 72v24q0 47 -22 72t-60 25q-81 0 -85 -88v-33q0 -97 85 -97z" />
    <glyph glyph-name="uni209B" unicode="&#x209b;" horiz-adv-x="320" 
d="M160 -137q-120 0 -130 100h61q9 -49 69 -49q69 0 69 46q0 20 -20 31.5t-48.5 17.5t-57 13.5t-48.5 27.5t-20 53q0 44 31 69t94 25q114 0 124 -94h-61q-10 43 -63 43q-64 0 -64 -41q0 -17 20 -27t48.5 -16t57 -14.5t48.5 -30t20 -55.5q0 -99 -130 -99z" />
    <glyph glyph-name="uni209C" unicode="&#x209c;" horiz-adv-x="240" 
d="M15 135v55h60v90h60v-90h80v-55h-80v-167q0 -23 10.5 -33t35.5 -10h44v-55h-44q-59 0 -82.5 22t-23.5 76v167h-60z" />
    <glyph glyph-name="franc" unicode="&#x20a3;" horiz-adv-x="565" 
d="M15 141v58h100v501h420v-64h-350v-244h290v-64h-290v-129h145v-58h-145v-141h-70v141h-100z" />
    <glyph glyph-name="Euro" unicode="&#x20ac;" horiz-adv-x="620" 
d="M15 396l17 58h97q16 121 88 183.5t188 62.5h180l-19 -64h-161q-177 0 -204 -182h313l-16 -58h-301v-14v-64v-14h274l-17 -58h-252q27 -182 203 -182h170v-64h-170q-118 0 -189 61.5t-87 184.5h-114l17 58h93v14v64v14h-110z" />
    <glyph glyph-name="uni20B4" unicode="&#x20b4;" horiz-adv-x="580" 
d="M60 256v58h460v-58h-298q-54 -57 -54 -108q0 -92 113 -92q112 0 130 90h69q-9 -69 -60.5 -111t-138.5 -42q-89 0 -135 41t-46 114q0 54 43 108h-83zM60 386v58h283q67 62 67 114q0 40 -27 63t-80 23q-98 0 -116 -80h-69q11 65 60.5 104t120.5 39q88 0 133.5 -40
t45.5 -109q0 -56 -51 -114h93v-58h-460z" />
    <glyph glyph-name="uni20BD" unicode="&#x20bd;" horiz-adv-x="620" 
d="M20 272v64h100v364h210q125 0 187.5 -55.5t62.5 -158.5q0 -102 -63 -158t-187 -56h-140v-78h241v-58h-241v-136h-70v136h-100v58h100v78h-100zM330 636h-140v-300h140q93 0 135.5 37.5t42.5 112.5q0 150 -178 150z" />
    <glyph glyph-name="uni20BF" unicode="&#x20bf;" horiz-adv-x="620" 
d="M334 -100v100h-9h-79v-100h-62v100h-94v700h94v100h62v-100h59q19 0 29 -1v101h62v-109q144 -32 144 -177q0 -106 -96 -150q116 -43 116 -168q0 -165 -164 -191v-105h-62zM325 328h-165v-264h165q86 0 124.5 33t38.5 99t-38.5 99t-124.5 33zM305 636h-145v-244h145
q163 0 163 122t-163 122z" />
    <glyph glyph-name="uni20F0" unicode="&#x20f0;" horiz-adv-x="250" 
d="M10 707v38h81l-42 72l34 20l42 -72l42 72l34 -20l-42 -72h81v-38h-82l43 -72l-34 -20l-42 72l-42 -72l-34 20l42 72h-81z" />
    <glyph glyph-name="uni2100" unicode="&#x2100;" horiz-adv-x="850" 
d="M210 0l406 700h74l-406 -700h-74zM655 -7q-69 0 -109.5 41.5t-40.5 113.5v24q0 72 40.5 113.5t109.5 41.5q57 0 94.5 -27t50.5 -75h-67q-20 44 -78 44q-40 0 -63.5 -25.5t-23.5 -71.5v-24q0 -46 23.5 -71.5t63.5 -25.5q61 0 81 54h64q-11 -53 -48.5 -82.5t-96.5 -29.5z
M160 373q-54 0 -82 25.5t-28 69.5q0 50 35 76.5t116 26.5h69v22q0 34 -16 49t-54 15q-62 0 -71 -44h-61q4 43 37 68.5t95 25.5q130 0 130 -114v-213h-48l-7 54q-36 -61 -115 -61zM169 423q45 0 73 26.5t28 66.5v13h-69q-88 0 -88 -55q0 -51 56 -51z" />
    <glyph glyph-name="uni2101" unicode="&#x2101;" horiz-adv-x="850" 
d="M210 0l406 700h74l-406 -700h-74zM670 -7q-120 0 -130 100h61q9 -49 69 -49q69 0 69 46q0 20 -20 31.5t-48.5 17.5t-57 13.5t-48.5 27.5t-20 53q0 44 31 69t94 25q114 0 124 -94h-61q-10 43 -63 43q-64 0 -64 -41q0 -17 20 -27t48.5 -16t57 -14.5t48.5 -30t20 -55.5
q0 -99 -130 -99zM160 373q-54 0 -82 25.5t-28 69.5q0 50 35 76.5t116 26.5h69v22q0 34 -16 49t-54 15q-62 0 -71 -44h-61q4 43 37 68.5t95 25.5q130 0 130 -114v-213h-48l-7 54q-36 -61 -115 -61zM169 423q45 0 73 26.5t28 66.5v13h-69q-88 0 -88 -55q0 -51 56 -51z" />
    <glyph glyph-name="afii61248" unicode="&#x2105;" horiz-adv-x="850" 
d="M185 0l406 700h74l-406 -700h-74zM200 373q-69 0 -109.5 41.5t-40.5 113.5v24q0 72 40.5 113.5t109.5 41.5q57 0 94.5 -27t50.5 -75h-67q-20 44 -78 44q-40 0 -63.5 -25.5t-23.5 -71.5v-24q0 -46 23.5 -71.5t63.5 -25.5q61 0 81 54h64q-11 -53 -48.5 -82.5t-96.5 -29.5z
M628 -7q-68 0 -109 41.5t-41 109.5v32q0 68 41 109.5t109 41.5t109 -41.5t41 -109.5v-32q0 -68 -41 -109.5t-109 -41.5zM628 51q39 0 62.5 24.5t23.5 68.5v32q0 44 -23.5 68.5t-62.5 24.5t-62.5 -24.5t-23.5 -68.5v-32q0 -44 23.5 -68.5t62.5 -24.5z" />
    <glyph glyph-name="uni2106" unicode="&#x2106;" horiz-adv-x="870" 
d="M185 0l406 700h74l-406 -700h-74zM200 373q-69 0 -109.5 41.5t-40.5 113.5v24q0 72 40.5 113.5t109.5 41.5q57 0 94.5 -27t50.5 -75h-67q-20 44 -78 44q-40 0 -63.5 -25.5t-23.5 -71.5v-24q0 -46 23.5 -71.5t63.5 -25.5q61 0 81 54h64q-11 -53 -48.5 -82.5t-96.5 -29.5z
M663 -7q-58 0 -90.5 36.5t-32.5 108.5v182h60v-182q0 -87 75 -87q38 0 60.5 21t24.5 58v190h60v-320h-48l-6 49q-33 -56 -103 -56z" />
    <glyph glyph-name="afii61289" unicode="&#x2113;" horiz-adv-x="390" 
d="M247 0q-65 0 -98.5 34t-33.5 98v87q-28 -24 -72 -57v83q32 25 72 62v281q0 55 31.5 87t84.5 32q52 0 84 -31.5t32 -87.5q0 -137 -166 -307v-141q0 -79 74 -79h68v-61h-76zM181 588v-212q100 117 100 212q0 27 -13.5 41.5t-36.5 14.5q-50 0 -50 -56z" />
    <glyph glyph-name="afii61352" unicode="&#x2116;" horiz-adv-x="1070" 
d="M737 273v54h286v-54h-286zM522 0l-306 520l-56 103v-623h-70v700h98l306 -520l56 -103v623h70v-700h-98zM880 373q-68 0 -109 41.5t-41 109.5v32q0 68 41 109.5t109 41.5t109 -41.5t41 -109.5v-32q0 -68 -41 -109.5t-109 -41.5zM880 431q39 0 62.5 24.5t23.5 68.5v32
q0 44 -23.5 68.5t-62.5 24.5t-62.5 -24.5t-23.5 -68.5v-32q0 -44 23.5 -68.5t62.5 -24.5z" />
    <glyph glyph-name="uni2117" unicode="&#x2117;" horiz-adv-x="850" 
d="M425 -7q-151 0 -255 104t-104 253q0 148 105 252.5t254 104.5q151 0 255 -104t104 -253q0 -148 -105 -252.5t-254 -104.5zM425 54q124 0 209.5 85.5t85.5 210.5q0 124 -85.5 210t-209.5 86t-209.5 -86t-85.5 -210t85.5 -210t209.5 -86zM311 150v400h126q146 0 146 -125
t-146 -125h-66v-150h-60zM437 495h-66v-140h66q46 0 64.5 16.5t18.5 53.5t-18.5 53.5t-64.5 16.5z" />
    <glyph glyph-name="uni2120" unicode="&#x2120;" horiz-adv-x="850" 
d="M586 423l-79 160l-18 40v-323h-60v400h78l109 -219l114 219h75v-400h-60v323l-18 -40l-79 -160h-62zM193 293q-140 0 -148 129h63q4 -38 23 -54.5t62 -16.5q85 0 85 57q0 27 -23 43t-56 24t-66 19t-56 37.5t-23 69.5q0 48 35.5 77t103.5 29q65 0 100 -30.5t39 -83.5h-63
q-8 56 -76 56q-76 0 -76 -52q0 -26 23 -40.5t56 -23t66 -20t56 -38.5t23 -71q0 -52 -36.5 -81.5t-111.5 -29.5z" />
    <glyph glyph-name="trademark" unicode="&#x2122;" horiz-adv-x="850" 
d="M586 423l-79 160l-18 40v-323h-60v400h78l109 -219l114 219h75v-400h-60v323l-18 -40l-79 -160h-62zM45 645v55h322v-55h-131v-345h-60v345h-131z" />
    <glyph glyph-name="Omega" unicode="&#x2126;" horiz-adv-x="710" 
d="M65 0v62h109q-109 82 -109 256v64q0 149 81 237t209 88q129 0 209.5 -87.5t80.5 -237.5v-64q0 -173 -110 -256h110v-62h-240v62q78 16 123 83.5t45 172.5v64q0 120 -61.5 189.5t-156.5 69.5q-96 0 -157 -69t-61 -190v-64q0 -104 45.5 -172t122.5 -84v-62h-240z" />
    <glyph glyph-name="estimated" unicode="&#x212e;" horiz-adv-x="600" 
d="M300 -7q-106 0 -181.5 75.5t-75.5 181.5t75.5 181.5t181.5 75.5t181.5 -75.5t75.5 -181.5l-1 -17h-396v-157q60 -49 140 -49q66 0 119 31t83 88h40q-34 -72 -99.5 -112.5t-142.5 -40.5zM300 473q-79 0 -140 -50v-156h280v156q-63 50 -140 50z" />
    <glyph glyph-name="uni2150" unicode="&#x2150;" horiz-adv-x="890" 
d="M185 0l406 700h74l-406 -700h-74zM50 564v69l110 67h60v-400h-60v332zM570 345v55h270v-55l-151 -345h-70l156 345h-205z" />
    <glyph glyph-name="uni2151" unicode="&#x2151;" horiz-adv-x="880" 
d="M185 0l406 700h74l-406 -700h-74zM50 564v69l110 67h60v-400h-60v332zM680 407q71 0 110.5 -42.5t39.5 -121.5v-52q0 -99 -40 -148.5t-110 -49.5q-55 0 -88.5 28t-41.5 74h60q15 -49 74 -49q86 0 91 129q-32 -43 -94 -43q-65 0 -103 36t-38 95v12q0 60 37.5 96t102.5 36z
M685 185q38 0 59 19t23 52v17q0 79 -87 79q-36 0 -56.5 -20.5t-20.5 -56.5v-12q0 -37 21.5 -57.5t60.5 -20.5z" />
    <glyph glyph-name="uni2152" unicode="&#x2152;" horiz-adv-x="1150" 
d="M185 0l406 700h74l-406 -700h-74zM550 264v69l110 67h60v-400h-60v332zM50 564v69l110 67h60v-400h-60v332zM950 -7q-70 0 -110 47t-40 138v44q0 91 40 138t110 47t110 -47t40 -138v-44q0 -91 -40 -138t-110 -47zM950 51q87 0 87 127v44q0 127 -87 127t-87 -127v-44
q0 -127 87 -127z" />
    <glyph glyph-name="onethird" unicode="&#x2153;" horiz-adv-x="890" 
d="M185 0l406 700h74l-406 -700h-74zM50 564v69l110 67h60v-400h-60v332zM690 -7q-71 0 -108.5 34t-41.5 95h63q8 -71 87 -71q87 0 87 64q0 28 -21.5 45.5t-64.5 17.5h-56v55h56q77 0 77 58t-78 58q-70 0 -79 -61h-62q4 56 39 87.5t102 31.5t104 -31.5t37 -80.5
q0 -59 -58 -86q67 -28 67 -98q0 -54 -38.5 -86t-111.5 -32z" />
    <glyph glyph-name="twothirds" unicode="&#x2154;" horiz-adv-x="960" 
d="M255 0l406 700h74l-406 -700h-74zM50 300v55l139 120q48 41 63 64t15 49q0 61 -77 61t-77 -61h-63q0 55 36 87t104 32t104 -32t36 -87q0 -39 -22 -73.5t-77 -80.5l-95 -79h194v-55h-280zM760 -7q-71 0 -108.5 34t-41.5 95h63q8 -71 87 -71q87 0 87 64q0 28 -21.5 45.5
t-64.5 17.5h-56v55h56q77 0 77 58t-78 58q-70 0 -79 -61h-62q4 56 39 87.5t102 31.5t104 -31.5t37 -80.5q0 -59 -58 -86q67 -28 67 -98q0 -54 -38.5 -86t-111.5 -32z" />
    <glyph glyph-name="uni2155" unicode="&#x2155;" horiz-adv-x="900" 
d="M185 0l406 700h74l-406 -700h-74zM50 564v69l110 67h60v-400h-60v332zM576 181l16 219h232v-55h-177l-8 -105q32 31 84 31q53 0 90 -39t37 -100t-40 -100t-103 -39q-54 0 -92 29.5t-50 79.5h68q15 -51 74 -51q36 0 58 22t22 59t-22 59t-58 22q-44 0 -72 -32h-59z" />
    <glyph glyph-name="uni2156" unicode="&#x2156;" horiz-adv-x="970" 
d="M255 0l406 700h74l-406 -700h-74zM50 300v55l139 120q48 41 63 64t15 49q0 61 -77 61t-77 -61h-63q0 55 36 87t104 32t104 -32t36 -87q0 -39 -22 -73.5t-77 -80.5l-95 -79h194v-55h-280zM646 181l16 219h232v-55h-177l-8 -105q32 31 84 31q53 0 90 -39t37 -100t-40 -100
t-103 -39q-54 0 -92 29.5t-50 79.5h68q15 -51 74 -51q36 0 58 22t22 59t-22 59t-58 22q-44 0 -72 -32h-59z" />
    <glyph glyph-name="uni2157" unicode="&#x2157;" horiz-adv-x="950" 
d="M235 0l406 700h74l-406 -700h-74zM626 181l16 219h232v-55h-177l-8 -105q32 31 84 31q53 0 90 -39t37 -100t-40 -100t-103 -39q-54 0 -92 29.5t-50 79.5h68q15 -51 74 -51q36 0 58 22t22 59t-22 59t-58 22q-44 0 -72 -32h-59zM200 293q-71 0 -108.5 34t-41.5 95h63
q8 -71 87 -71q87 0 87 64q0 28 -21.5 45.5t-64.5 17.5h-56v55h56q77 0 77 58t-78 58q-70 0 -79 -61h-62q4 56 39 87.5t102 31.5t104 -31.5t37 -80.5q0 -59 -58 -86q67 -28 67 -98q0 -54 -38.5 -86t-111.5 -32z" />
    <glyph glyph-name="uni2158" unicode="&#x2158;" horiz-adv-x="970" 
d="M255 0l406 700h74l-406 -700h-74zM646 181l16 219h232v-55h-177l-8 -105q32 31 84 31q53 0 90 -39t37 -100t-40 -100t-103 -39q-54 0 -92 29.5t-50 79.5h68q15 -51 74 -51q36 0 58 22t22 59t-22 59t-58 22q-44 0 -72 -32h-59zM50 388v54l175 258h83v-258h52v-54h-52v-88
h-60v88h-198zM114 442h134v196z" />
    <glyph glyph-name="uni2159" unicode="&#x2159;" horiz-adv-x="880" 
d="M185 0l406 700h74l-406 -700h-74zM50 564v69l110 67h60v-400h-60v332zM690 -7q-71 0 -110.5 42.5t-39.5 121.5v52q0 99 40 148.5t110 49.5q55 0 88.5 -28t41.5 -74h-60q-15 49 -74 49q-86 0 -91 -129q32 43 94 43q65 0 103 -36t38 -95v-12q0 -60 -37.5 -96t-102.5 -36z
M685 215q-38 0 -59 -19t-23 -52v-17q0 -79 87 -79q36 0 56.5 20.5t20.5 56.5v12q0 37 -21.5 57.5t-60.5 20.5z" />
    <glyph glyph-name="uni215A" unicode="&#x215a;" horiz-adv-x="930" 
d="M235 0l406 700h74l-406 -700h-74zM740 -7q-71 0 -110.5 42.5t-39.5 121.5v52q0 99 40 148.5t110 49.5q55 0 88.5 -28t41.5 -74h-60q-15 49 -74 49q-86 0 -91 -129q32 43 94 43q65 0 103 -36t38 -95v-12q0 -60 -37.5 -96t-102.5 -36zM735 215q-38 0 -59 -19t-23 -52v-17
q0 -79 87 -79q36 0 56.5 20.5t20.5 56.5v12q0 37 -21.5 57.5t-60.5 20.5zM61 481l16 219h232v-55h-177l-8 -105q32 31 84 31q53 0 90 -39t37 -100t-40 -100t-103 -39q-54 0 -92 29.5t-50 79.5h68q15 -51 74 -51q36 0 58 22t22 59t-22 59t-58 22q-44 0 -72 -32h-59z" />
    <glyph glyph-name="oneeighth" unicode="&#x215b;" horiz-adv-x="890" 
d="M185 0l406 700h74l-406 -700h-74zM50 564v69l110 67h60v-400h-60v332zM690 -7q-72 0 -111 32.5t-39 82.5q0 73 73 102q-59 26 -59 90q0 45 36.5 76t99.5 31t99.5 -31t36.5 -76q0 -64 -60 -90q74 -29 74 -102q0 -50 -39 -82.5t-111 -32.5zM690 49q42 0 64.5 18t22.5 47
q0 28 -22 46.5t-65 22.5q-43 -4 -65 -22.5t-22 -46.5q0 -29 22.5 -47t64.5 -18zM690 235q35 4 54 20t19 39q0 25 -19 41t-54 16t-54 -16t-19 -41q0 -23 19 -39t54 -20z" />
    <glyph glyph-name="threeeighths" unicode="&#x215c;" horiz-adv-x="940" 
d="M235 0l406 700h74l-406 -700h-74zM740 -7q-72 0 -111 32.5t-39 82.5q0 73 73 102q-59 26 -59 90q0 45 36.5 76t99.5 31t99.5 -31t36.5 -76q0 -64 -60 -90q74 -29 74 -102q0 -50 -39 -82.5t-111 -32.5zM740 49q42 0 64.5 18t22.5 47q0 28 -22 46.5t-65 22.5
q-43 -4 -65 -22.5t-22 -46.5q0 -29 22.5 -47t64.5 -18zM740 235q35 4 54 20t19 39q0 25 -19 41t-54 16t-54 -16t-19 -41q0 -23 19 -39t54 -20zM200 293q-71 0 -108.5 34t-41.5 95h63q8 -71 87 -71q87 0 87 64q0 28 -21.5 45.5t-64.5 17.5h-56v55h56q77 0 77 58t-78 58
q-70 0 -79 -61h-62q4 56 39 87.5t102 31.5t104 -31.5t37 -80.5q0 -59 -58 -86q67 -28 67 -98q0 -54 -38.5 -86t-111.5 -32z" />
    <glyph glyph-name="fiveeighths" unicode="&#x215d;" horiz-adv-x="940" 
d="M235 0l406 700h74l-406 -700h-74zM61 481l16 219h232v-55h-177l-8 -105q32 31 84 31q53 0 90 -39t37 -100t-40 -100t-103 -39q-54 0 -92 29.5t-50 79.5h68q15 -51 74 -51q36 0 58 22t22 59t-22 59t-58 22q-44 0 -72 -32h-59zM740 -7q-72 0 -111 32.5t-39 82.5
q0 73 73 102q-59 26 -59 90q0 45 36.5 76t99.5 31t99.5 -31t36.5 -76q0 -64 -60 -90q74 -29 74 -102q0 -50 -39 -82.5t-111 -32.5zM740 49q42 0 64.5 18t22.5 47q0 28 -22 46.5t-65 22.5q-43 -4 -65 -22.5t-22 -46.5q0 -29 22.5 -47t64.5 -18zM740 235q35 4 54 20t19 39
q0 25 -19 41t-54 16t-54 -16t-19 -41q0 -23 19 -39t54 -20z" />
    <glyph glyph-name="seveneighths" unicode="&#x215e;" horiz-adv-x="860" 
d="M155 0l406 700h74l-406 -700h-74zM660 -7q-72 0 -111 32.5t-39 82.5q0 73 73 102q-59 26 -59 90q0 45 36.5 76t99.5 31t99.5 -31t36.5 -76q0 -64 -60 -90q74 -29 74 -102q0 -50 -39 -82.5t-111 -32.5zM660 49q42 0 64.5 18t22.5 47q0 28 -22 46.5t-65 22.5
q-43 -4 -65 -22.5t-22 -46.5q0 -29 22.5 -47t64.5 -18zM660 235q35 4 54 20t19 39q0 25 -19 41t-54 16t-54 -16t-19 -41q0 -23 19 -39t54 -20zM50 645v55h270v-55l-151 -345h-70l156 345h-205z" />
    <glyph glyph-name="uni215F" unicode="&#x215f;" horiz-adv-x="500" 
d="M185 0l406 700h74l-406 -700h-74zM50 564v69l110 67h60v-400h-60v332z" />
    <glyph glyph-name="uni2189" unicode="&#x2189;" horiz-adv-x="930" 
d="M225 0l406 700h74l-406 -700h-74zM200 293q-70 0 -110 47t-40 138v44q0 91 40 138t110 47t110 -47t40 -138v-44q0 -91 -40 -138t-110 -47zM200 351q87 0 87 127v44q0 127 -87 127t-87 -127v-44q0 -127 87 -127zM730 -7q-71 0 -108.5 34t-41.5 95h63q8 -71 87 -71
q87 0 87 64q0 28 -21.5 45.5t-64.5 17.5h-56v55h56q77 0 77 58t-78 58q-70 0 -79 -61h-62q4 56 39 87.5t102 31.5t104 -31.5t37 -80.5q0 -59 -58 -86q67 -28 67 -98q0 -54 -38.5 -86t-111.5 -32z" />
    <glyph glyph-name="arrowleft" unicode="&#x2190;" horiz-adv-x="800" 
d="M283 10l-240 240l240 240h87l-207 -207h587v-66h-585l207 -207h-89z" />
    <glyph glyph-name="arrowup" unicode="&#x2191;" horiz-adv-x="600" 
d="M60 280v87l240 240l240 -240v-89l-206 206v-584h-68v586z" />
    <glyph glyph-name="arrowright" unicode="&#x2192;" horiz-adv-x="800" 
d="M50 217v66h585l-207 207h89l240 -240l-240 -240h-87l207 207h-587z" />
    <glyph glyph-name="arrowdown" unicode="&#x2193;" horiz-adv-x="600" 
d="M300 -107l-240 240v89l206 -206v584h68v-586l206 206v-87z" />
    <glyph glyph-name="arrowboth" unicode="&#x2194;" horiz-adv-x="900" 
d="M530 10l207 207h-572l207 -207h-89l-240 240l240 240h87l-207 -207h572l-207 207h89l240 -240l-240 -240h-87z" />
    <glyph glyph-name="arrowupdn" unicode="&#x2195;" horiz-adv-x="600" 
d="M60 330v87l240 240l240 -240v-89l-206 206v-570l206 206v-87l-240 -240l-240 240v89l206 -206v570z" />
    <glyph glyph-name="uni2196" unicode="&#x2196;" horiz-adv-x="600" 
d="M123 98l-63 63v339h340l62 -62h-293l398 -398l-47 -47l-397 397v-292z" />
    <glyph glyph-name="uni2197" unicode="&#x2197;" horiz-adv-x="600" 
d="M78 -7l-45 45l400 400h-295l62 62h340v-339l-63 -63v294z" />
    <glyph glyph-name="uni2198" unicode="&#x2198;" horiz-adv-x="600" 
d="M200 0l-62 62h293l-398 398l47 47l397 -397v292l63 -63v-339h-340z" />
    <glyph glyph-name="uni2199" unicode="&#x2199;" horiz-adv-x="600" 
d="M60 0v339l63 63v-294l399 399l45 -45l-400 -400h295l-62 -62h-340z" />
    <glyph glyph-name="partialdiff" unicode="&#x2202;" horiz-adv-x="550" 
d="M220 -7q-82 0 -133.5 49.5t-51.5 136.5q0 26 12 93q18 106 84.5 170.5t157.5 64.5q118 0 161 -89q3 27 3 44q0 92 -41 133.5t-128 41.5h-94v63h102q223 0 223 -230q0 -45 -24 -188q-24 -142 -94 -215.5t-177 -73.5zM416 234l7 38h1q2 24 2 37q0 64 -35.5 99.5t-93.5 35.5
q-69 0 -120 -48t-64 -124q-11 -64 -11 -83q0 -62 35 -97.5t91 -35.5q70 0 123 52.5t65 125.5z" />
    <glyph glyph-name="Delta" unicode="&#x2206;" horiz-adv-x="650" 
d="M25 0l260 700h80l260 -700h-600zM324 620l-204 -556h407z" />
    <glyph glyph-name="product" unicode="&#x220f;" horiz-adv-x="680" 
d="M520 -200v836h-360v-836h-70v900h500v-900h-70z" />
    <glyph glyph-name="summation" unicode="&#x2211;" horiz-adv-x="570" 
d="M50 -200v64l208 394l-208 378v64h490v-64h-409l204 -374l-209 -398h414v-64h-490z" />
    <glyph glyph-name="minus" unicode="&#x2212;" 
d="M75 328v64h440v-64h-440z" />
    <glyph glyph-name="uni2215" unicode="&#x2215;" 
d="M90 0l334 700h76l-334 -700h-76z" />
    <glyph glyph-name="uni2219" unicode="&#x2219;" horiz-adv-x="350" 
d="M175 170q-37 0 -63.5 26t-26.5 64t26.5 64t63.5 26t63.5 -26t26.5 -64t-26.5 -64t-63.5 -26z" />
    <glyph glyph-name="radical" unicode="&#x221a;" horiz-adv-x="585" 
d="M30 318v64h133l135 -389l205 807h72l-233 -900h-82l-149 418h-81z" />
    <glyph glyph-name="infinity" unicode="&#x221e;" horiz-adv-x="780" 
d="M580 181q-58 0 -101.5 26t-89.5 90q-46 -63 -89 -89.5t-100 -26.5q-73 0 -124 52t-51 127t51 127t124 52q58 0 101.5 -26t89.5 -90q45 64 88 90t101 26q73 0 124 -52t51 -127t-51 -127t-124 -52zM580 471q-40 0 -72 -22t-76 -88q45 -67 76.5 -89.5t71.5 -22.5
q42 0 72.5 32t30.5 79t-30.5 79t-72.5 32zM200 249q40 0 71.5 22t76.5 87q-46 68 -77.5 90.5t-70.5 22.5q-42 0 -72.5 -32t-30.5 -79t30.5 -79t72.5 -32z" />
    <glyph glyph-name="integral" unicode="&#x222b;" 
d="M175 -200h-75v64h67q50 0 71.5 22.5t21.5 74.5v586q0 153 155 153h75v-64h-67q-50 0 -71.5 -22.5t-21.5 -74.5v-586q0 -153 -155 -153z" />
    <glyph glyph-name="similar" unicode="&#x223c;" 
d="M403 270q-36 0 -69 18t-53 39t-45.5 39t-48.5 18q-30 0 -48.5 -19.5t-18.5 -54.5h-70q0 62 38.5 101t98.5 39q36 0 69 -18t53 -39t45.5 -39t48.5 -18q30 0 48.5 20t18.5 54h70q0 -62 -38.5 -101t-98.5 -39z" />
    <glyph glyph-name="approxequal" unicode="&#x2248;" 
d="M403 370q-36 0 -69 18t-53 39t-45.5 39t-48.5 18q-30 0 -48.5 -19.5t-18.5 -54.5h-70q0 62 38.5 101t98.5 39q36 0 69 -18t53 -39t45.5 -39t48.5 -18q30 0 48.5 20t18.5 54h70q0 -62 -38.5 -101t-98.5 -39zM403 170q-36 0 -69 18t-53 39t-45.5 39t-48.5 18
q-30 0 -48.5 -19.5t-18.5 -54.5h-70q0 62 38.5 101t98.5 39q36 0 69 -18t53 -39t45.5 -39t48.5 -18q30 0 48.5 20t18.5 54h70q0 -62 -38.5 -101t-98.5 -39z" />
    <glyph glyph-name="notequal" unicode="&#x2260;" 
d="M75 428v64h245l50 108h70l-50 -108h125v-64h-154l-62 -136h216v-64h-246l-49 -108h-70l49 108h-124v64h154l62 136h-216z" />
    <glyph glyph-name="equivalence" unicode="&#x2261;" 
d="M75 118v64h440v-64h-440zM75 318v64h440v-64h-440zM75 518v64h440v-64h-440z" />
    <glyph glyph-name="lessequal" unicode="&#x2264;" 
d="M515 585l-361 -164l361 -165v-74l-440 201v74l440 201v-73zM75 78v64h440v-64h-440z" />
    <glyph glyph-name="greaterequal" unicode="&#x2265;" 
d="M75 584v74l440 -201v-74l-440 -201v73l361 164zM75 78v64h440v-64h-440z" />
    <glyph glyph-name="uni228D" unicode="&#x228d;" horiz-adv-x="820" 
d="M410 -7q-148 0 -251.5 104t-103.5 253v350h65v-350q0 -123 84.5 -208t205.5 -85t205.5 85t84.5 208v350h65v-350q0 -149 -103.5 -253t-251.5 -104zM410 295q-24 0 -39.5 16t-15.5 39t15.5 39t39.5 16t39.5 -16t15.5 -39t-15.5 -39t-39.5 -16z" />
    <glyph glyph-name="uni2299" unicode="&#x2299;" horiz-adv-x="820" 
d="M410 -7q-148 0 -251.5 104t-103.5 253t103.5 253t251.5 104t251.5 -104t103.5 -253t-103.5 -253t-251.5 -104zM410 57q121 0 205.5 85t84.5 208t-84.5 208t-205.5 85t-205.5 -85t-84.5 -208t84.5 -208t205.5 -85zM410 295q-24 0 -39.5 16t-15.5 39t15.5 39t39.5 16
t39.5 -16t15.5 -39t-15.5 -39t-39.5 -16z" />
    <glyph glyph-name="dotmath" unicode="&#x22c5;" 
d="M295 295q-24 0 -39.5 16t-15.5 39t15.5 39t39.5 16t39.5 -16t15.5 -39t-15.5 -39t-39.5 -16z" />
    <glyph glyph-name="uni2300" unicode="&#x2300;" horiz-adv-x="600" 
d="M98 0l67 142q-52 34 -82.5 89t-30.5 119q0 103 72.5 175.5t175.5 72.5q39 0 75 -12l53 114h74l-67 -142q52 -34 82.5 -89t30.5 -119q0 -103 -72.5 -175.5t-175.5 -72.5q-37 0 -75 11l-53 -113h-74zM116 350q0 -94 76 -150l155 327q-26 7 -47 7q-76 0 -130 -54t-54 -130z
M300 166q76 0 130 54t54 130q0 45 -20.5 84.5t-56.5 64.5l-154 -327q23 -6 47 -6z" />
    <glyph glyph-name="angleleft" unicode="&#x2329;" horiz-adv-x="400" 
d="M272 -200l-212 449l214 451h76l-214 -449l214 -451h-78z" />
    <glyph glyph-name="angleright" unicode="&#x232a;" horiz-adv-x="400" 
d="M128 700l212 -449l-214 -451h-76l214 449l-214 451h78z" />
    <glyph glyph-name="lozenge" unicode="&#x25ca;" 
d="M254 0l-199 349l199 351h82l199 -349l-199 -351h-82zM458 349l-164 288l-162 -286l163 -289z" />
    <glyph glyph-name="openbullet" unicode="&#x25e6;" horiz-adv-x="450" 
d="M225 145q-47 0 -81 34t-34 81t34 81t81 34t81 -34t34 -81t-34 -81t-81 -34zM225 195q28 0 46.5 19t18.5 46t-18.5 46t-46.5 19t-46.5 -19t-18.5 -46t18.5 -46t46.5 -19z" />
    <glyph glyph-name="uni2605" unicode="&#x2605;" horiz-adv-x="780" 
d="M390 161l-232 -168l88 273l-231 168h286l89 273l89 -273h286l-231 -168l88 -273z" />
    <glyph glyph-name="smileface" unicode="&#x263a;" horiz-adv-x="820" 
d="M410 -7q-148 0 -251.5 104t-103.5 253t103.5 253t251.5 104t251.5 -104t103.5 -253t-103.5 -253t-251.5 -104zM410 56q121 0 206.5 85.5t85.5 208.5t-85.5 208.5t-206.5 85.5t-206.5 -85.5t-85.5 -208.5t85.5 -208.5t206.5 -85.5zM410 123q-73 0 -132 43t-83 110l49 17
q19 -52 64 -83.5t102 -31.5t102 32t64 83l49 -17q-24 -67 -83 -110t-132 -43zM285 388q-19 0 -33 14t-14 33t14 33t33 14t33 -14t14 -33t-14 -33t-33 -14zM535 388q-19 0 -33 14t-14 33t14 33t33 14t33 -14t14 -33t-14 -33t-33 -14z" />
    <glyph glyph-name="invsmileface" unicode="&#x263b;" horiz-adv-x="820" 
d="M410 -7q-148 0 -251.5 104t-103.5 253t103.5 253t251.5 104t251.5 -104t103.5 -253t-103.5 -253t-251.5 -104zM410 120q75 0 134 43t83 112l-44 16q-18 -53 -66 -86t-107 -33t-107 33t-66 86l-45 -16q24 -68 83.5 -111.5t134.5 -43.5zM285 388q19 0 33 14t14 33t-14 33
t-33 14t-33 -14t-14 -33t14 -33t33 -14zM535 388q19 0 33 14t14 33t-14 33t-33 14t-33 -14t-14 -33t14 -33t33 -14z" />
    <glyph glyph-name="uni2713" unicode="&#x2713;" horiz-adv-x="500" 
d="M181 0l-126 340h75l89 -249l154 609h72l-182 -700h-82z" />
    <glyph glyph-name="uni2726" unicode="&#x2726;" horiz-adv-x="750" 
d="M375 -7q-73 284 -357 357q284 73 357 357q73 -284 357 -357q-284 -73 -357 -357z" />
    <glyph glyph-name="uni2727" unicode="&#x2727;" horiz-adv-x="750" 
d="M375 -7q-73 284 -357 357q284 73 357 357q73 -284 357 -357q-284 -73 -357 -357zM375 128q72 157 214 222q-147 67 -214 214q-67 -147 -214 -214q142 -65 214 -222z" />
    <glyph glyph-name="uni2729" unicode="&#x2729;" horiz-adv-x="780" 
d="M390 161l-232 -168l88 273l-231 168h286l89 273l89 -273h286l-231 -168l88 -273zM305 285l-52 -161l137 99l137 -99l-52 161l136 99h-168l-53 161l-53 -161h-168z" />
    <glyph glyph-name="uni2764" unicode="&#x2764;" horiz-adv-x="930" 
d="M465 -7l-357 357q-62 62 -62 148t61.5 147.5t147.5 61.5q87 0 148 -61l62 -62l62 62q61 61 147 61q87 0 148.5 -61.5t61.5 -147.5t-62 -148z" />
    <glyph glyph-name="uniF400" unicode="&#xf400;" horiz-adv-x="0" 
d="M-310 560l118 150h82l-130 -150h-70z" />
    <glyph glyph-name="uniF401" unicode="&#xf401;" horiz-adv-x="0" 
d="M-391 760l114 150h86l-128 -150h-72z" />
    <glyph glyph-name="uniF406" unicode="&#xf406;" horiz-adv-x="320" 
d="M160 763q-70 0 -107.5 36t-37.5 101h62q0 -79 83 -79q85 0 85 79h60q0 -65 -37.5 -101t-107.5 -36z" />
    <glyph glyph-name="uniF407" unicode="&#xf407;" horiz-adv-x="190" 
d="M49 -82l22 91l50 -9l-10 -40q64 -12 64 -76q0 -37 -24.5 -60.5t-65.5 -23.5h-70v50h66q36 0 36 34t-36 34h-32z" />
    <glyph glyph-name="uniF408" unicode="&#xf408;" horiz-adv-x="360" 
d="M263 760l-83 97l-83 -97h-72l114 150h82l114 -150h-72z" />
    <glyph glyph-name="uniF409" unicode="&#xf409;" horiz-adv-x="200" 
d="M25 -200l76 150h74l-96 -150h-54z" />
    <glyph glyph-name="uniF40A" unicode="&#xf40a;" horiz-adv-x="190" 
d="M25 460l66 240h74l-74 -240h-66z" />
    <glyph glyph-name="uniF40B" unicode="&#xf40b;" horiz-adv-x="160" 
d="M80 788q-20 0 -33.5 14t-13.5 33t13.5 33t33.5 14t33.5 -14t13.5 -33t-13.5 -33t-33.5 -14z" />
    <glyph glyph-name="uniF40C" unicode="&#xf40c;" horiz-adv-x="240" 
d="M120 734q-45 0 -75 29.5t-30 71.5t30 71.5t75 29.5t75 -29.5t30 -71.5t-30 -71.5t-75 -29.5zM120 786q22 0 35.5 13.5t13.5 35.5t-13.5 35.5t-35.5 13.5t-35.5 -13.5t-13.5 -35.5t13.5 -35.5t35.5 -13.5z" />
    <glyph glyph-name="uniF40D" unicode="&#xf40d;" horiz-adv-x="360" 
d="M250 770q-32 0 -57 17.5t-45 35t-38 17.5q-45 0 -45 -55h-50q0 57 25 86t70 29q32 0 57 -17.5t45 -35t38 -17.5q45 0 45 55h50q0 -57 -25 -86t-70 -29z" />
    <glyph glyph-name="uniF40E" unicode="&#xf40e;" horiz-adv-x="180" 
d="M165 -200h-55q-47 0 -71 21t-24 59q0 35 22 67.5t92 88.5l36 -36q-53 -49 -68.5 -69.5t-15.5 -40.5q0 -32 34 -32h50v-58z" />
    <glyph glyph-name="uniF4D2" unicode="&#xf4d2;" horiz-adv-x="710" 
d="M355 -7q-129 0 -209.5 87.5t-80.5 237.5v64q0 149 81 237t209 88q129 0 209.5 -87.5t80.5 -237.5v-64q0 -149 -81 -237t-209 -88zM355 59q96 0 157 69t61 190v64q0 120 -61.5 189.5t-156.5 69.5q-96 0 -157 -69t-61 -190v-64q0 -120 61.5 -189.5t156.5 -69.5zM319 760
l-128 150h86l114 -150h-72z" />
    <glyph glyph-name="uniF4D3" unicode="&#xf4d3;" horiz-adv-x="550" 
d="M275 -7q-101 0 -160.5 62.5t-59.5 172.5v44q0 109 60 172t160 63q101 0 160.5 -62.5t59.5 -172.5v-44q0 -109 -60 -172t-160 -63zM275 55q69 0 110.5 45.5t41.5 127.5v44q0 81 -42 127t-110 46q-69 0 -110.5 -45.5t-41.5 -127.5v-44q0 -81 42 -127t110 -46zM240 560
l-130 150h82l118 -150h-70z" />
    <glyph glyph-name="zero.tab" unicode="&#xf4e0;" 
d="M295 -7q-235 0 -235 325v64q0 325 235 325t235 -325v-64q0 -325 -235 -325zM295 59q81 0 122 58.5t41 200.5v64q0 141 -41.5 200t-121.5 59q-81 0 -122 -58.5t-41 -200.5v-64q0 -141 41.5 -200t121.5 -59z" />
    <glyph glyph-name="one.tab" unicode="&#xf4e1;" 
d="M90 490v77l205 133h70v-638h185v-62h-460v62h205v561z" />
    <glyph glyph-name="two.tab" unicode="&#xf4e2;" 
d="M45 0v64l268 236q77 68 108.5 113.5t31.5 91.5q0 60 -43.5 98t-119.5 38t-119.5 -38t-43.5 -98h-72q0 88 63.5 145t171.5 57t171.5 -57t63.5 -145q0 -57 -40.5 -117t-129.5 -137l-216 -187h396v-64h-490z" />
    <glyph glyph-name="three.tab" unicode="&#xf4e3;" 
d="M290 -7q-108 0 -169 59t-66 163h72q5 -76 46 -116t117 -40q79 0 121 37t42 99q0 60 -40.5 96.5t-113.5 36.5h-99v64h99q65 0 102 34t37 90q0 58 -38 91.5t-110 33.5q-65 0 -103 -36t-45 -100h-72q5 93 63 147.5t157 54.5q104 0 162 -52t58 -139q0 -51 -25 -92t-72 -63
q54 -22 83 -66t29 -100q0 -91 -61.5 -146.5t-173.5 -55.5z" />
    <glyph glyph-name="four.tab" unicode="&#xf4e4;" 
d="M25 168v64l348 468h87v-468h100v-64h-100v-168h-70v168h-365zM104 232h286v391z" />
    <glyph glyph-name="five.tab" unicode="&#xf4e5;" 
d="M75 320l30 380h383v-64h-319l-20 -235q58 60 159 60q104 0 168 -64.5t64 -169.5t-66 -169.5t-176 -64.5q-95 0 -159.5 44t-83.5 125h74q37 -103 169 -103q79 0 124.5 45.5t45.5 122.5q0 78 -45.5 123t-124.5 45q-54 0 -94 -22t-60 -53h-69z" />
    <glyph glyph-name="six.tab" unicode="&#xf4e6;" 
d="M300 -7q-109 0 -169.5 73t-60.5 222v64q0 185 62.5 270t172.5 85q76 0 127 -43t67 -109h-74q-35 85 -120 85q-78 0 -120.5 -58t-46.5 -197q57 82 167 82q92 0 153.5 -63.5t61.5 -161.5v-24q0 -99 -62 -162t-158 -63zM300 401q-71 0 -113.5 -39.5t-44.5 -103.5v-30
q0 -80 42.5 -124.5t115.5 -44.5q66 0 107 43t41 116v24q0 73 -41 116t-107 43z" />
    <glyph glyph-name="seven.tab" unicode="&#xf4e7;" 
d="M40 540v160h510v-64l-286 -636h-74l285 636h-365v-96h-70z" />
    <glyph glyph-name="eight.tab" unicode="&#xf4e8;" 
d="M295 -7q-108 0 -169 54.5t-61 142.5q0 61 32.5 106t90.5 69q-103 47 -103 157q0 78 59 131.5t151 53.5q94 0 152 -52t58 -133q0 -108 -105 -156q59 -25 92 -70t33 -106q0 -85 -62.5 -141t-167.5 -56zM295 59q72 0 115 38t43 93q0 62 -45.5 101.5t-112.5 44.5
q-70 -5 -114 -43.5t-44 -102.5q0 -55 43 -93t115 -38zM295 394q58 6 98 38t40 90q0 49 -38 84t-100 35t-100 -35t-38 -84q0 -55 41 -88.5t97 -39.5z" />
    <glyph glyph-name="nine.tab" unicode="&#xf4e9;" 
d="M290 -7q-80 0 -131.5 42.5t-67.5 109.5h74q35 -85 125 -85q75 0 116 58t45 196q-57 -81 -166 -81q-92 0 -153.5 63.5t-61.5 161.5v24q0 99 62 162t158 63q109 0 169.5 -73t60.5 -222v-64q0 -184 -62 -269.5t-168 -85.5zM290 299q70 0 113 39t45 103v31q0 80 -42.5 124.5
t-115.5 44.5q-66 0 -107 -43t-41 -116v-24q0 -73 41 -116t107 -43z" />
    <glyph glyph-name="dollar.tab" unicode="&#xf4ec;" 
d="M264 -100v94q-191 13 -204 221h72q7 -76 38 -112t94 -43v273q-44 13 -72.5 25t-59.5 33.5t-46.5 55t-15.5 78.5q0 77 49.5 125.5t144.5 55.5v94h62v-94q179 -15 194 -201h-72q-8 66 -35.5 97.5t-86.5 37.5v-253q37 -11 60.5 -19.5t54 -25.5t47.5 -36.5t29.5 -50.5
t12.5 -70q0 -84 -51.5 -134t-152.5 -57v-94h-62zM458 185q0 51 -34 79.5t-98 49.5v-254q132 13 132 125zM142 525q0 -47 31.5 -73t90.5 -45v232q-122 -11 -122 -114z" />
    <glyph glyph-name="Euro.tab" unicode="&#xf4ed;" 
d="M10 396l17 58h97q16 121 88 183.5t188 62.5h160l-19 -64h-141q-177 0 -204 -182h293l-16 -58h-281v-14v-64v-14h254l-17 -58h-232q27 -182 203 -182h150v-64h-150q-118 0 -189 61.5t-87 184.5h-114l17 58h93v14v64v14h-110z" />
    <glyph glyph-name="cent.tab" unicode="&#xf4ee;" 
d="M279 -100v95q-94 9 -149 71.5t-55 161.5v44q0 98 55 161t149 72v95h62v-95q75 -7 121.5 -46t62.5 -94h-70q-39 80 -145 80q-75 0 -121 -47t-46 -126v-44q0 -79 46 -126t121 -47q110 0 145 90h70q-15 -61 -61.5 -102t-122.5 -48v-95h-62z" />
    <glyph glyph-name="sterling.tab" unicode="&#xf4ef;" 
d="M55 301v58h90v151q0 85 56.5 141t143.5 56q89 0 143 -55t57 -147h-72q-3 66 -35.5 101t-92.5 35q-59 0 -94.5 -36t-35.5 -95v-151h190v-58h-190v-51q0 -77 -15.5 -117.5t-52.5 -68.5h398v-64h-490v64q49 34 69.5 71t20.5 115v51h-90z" />
    <glyph glyph-name="yen.tab" unicode="&#xf4fa;" 
d="M85 271v58h140l-205 371h78l202 -369l194 369h76l-197 -371h142v-58h-180v-82h180v-58h-180v-131h-70v131h-180v58h180v82h-180z" />
    <glyph glyph-name="florin.tab" unicode="&#xf4fb;" 
d="M135 444l10 56h130l9 50q14 79 54 114.5t121 35.5h71l-11 -60h-71q-41 0 -63.5 -21t-30.5 -69l-9 -50h150l-10 -56h-149l-77 -444q-14 -79 -53.5 -114.5t-117.5 -35.5h-58l11 60h58q75 0 90 90l76 444h-130z" />
    <glyph glyph-name="uni20B4.tab" unicode="&#xf4fc;" 
d="M60 256v58h470v-58h-306q-56 -54 -56 -108q0 -92 118 -92q117 0 135 90h69q-9 -69 -61.5 -111t-142.5 -42q-92 0 -139 41t-47 114q0 55 45 108h-85zM60 386v58h291q69 61 69 114q0 86 -112 86q-103 0 -121 -80h-69q11 65 61 104t125 39q91 0 137.5 -39.5t46.5 -109.5
q0 -58 -54 -114h96v-58h-470z" />
    <glyph glyph-name="uni20BD.tab" unicode="&#xf4fd;" 
d="M20 272v64h100v364h190q118 0 179 -56t61 -158q0 -101 -61.5 -157.5t-178.5 -56.5h-120v-78h216v-58h-216v-136h-70v136h-100v58h100v78h-100zM310 636h-120v-300h120q168 0 168 150t-168 150z" />
    <glyph glyph-name="currency.tab" unicode="&#xf4fe;" 
d="M492 115l-85 85q-51 -35 -112 -35q-64 0 -114 36l-86 -86l-45 45l86 86q-36 50 -36 114q0 61 35 112l-85 85l48 48l85 -85q49 35 112 35q62 0 113 -37l87 87l45 -45l-87 -87q37 -51 37 -113q0 -63 -35 -112l85 -85zM295 229q52 0 89 38.5t37 92.5t-37 92.5t-89 38.5
t-89 -38.5t-37 -92.5t37 -92.5t89 -38.5z" />
    <glyph glyph-name="numbersign.tab" unicode="&#xf5f4;" 
d="M310 0l37 210h-155l-37 -210h-64l37 210h-103l12 60h102l32 180h-103l11 60h103l34 190h64l-34 -190h155l34 190h64l-34 -190h100l-11 -60h-100l-32 -180h100l-11 -60h-100l-37 -210h-64zM235 450l-32 -180h155l32 180h-155z" />
    <glyph glyph-name="c.superior" unicode="&#xf614;" horiz-adv-x="350" 
d="M180 373q-69 0 -109.5 41.5t-40.5 113.5v24q0 72 40.5 113.5t109.5 41.5q57 0 94.5 -27t50.5 -75h-67q-20 44 -78 44q-40 0 -63.5 -25.5t-23.5 -71.5v-24q0 -46 23.5 -71.5t63.5 -25.5q61 0 81 54h64q-11 -53 -48.5 -82.5t-96.5 -29.5z" />
    <glyph glyph-name="f.superior" unicode="&#xf615;" horiz-adv-x="215" 
d="M15 645v55h50v37q0 93 93 93h57v-55h-53q-37 0 -37 -42v-33h70v-55h-70v-265h-60v265h-50z" />
    <glyph glyph-name="g.superior" unicode="&#xf616;" horiz-adv-x="365" 
d="M159 384q-58 0 -93.5 39.5t-35.5 108.5v24q0 71 35.5 111t93.5 40q74 0 107 -56l6 49h48v-320q0 -66 -36 -101.5t-103 -35.5q-121 0 -131 98h61q10 -43 70 -43q38 0 58.5 21t20.5 61v50q-33 -46 -101 -46zM175 439q40 0 62.5 24t22.5 69v33q-2 41 -24.5 62.5t-60.5 21.5
q-37 0 -59.5 -24.5t-22.5 -68.5v-24q0 -44 22 -68.5t60 -24.5z" />
    <glyph glyph-name="h.superior" unicode="&#xf617;" horiz-adv-x="370" 
d="M45 380v450h60v-171q34 48 99 48q60 0 93 -36.5t33 -108.5v-182h-60v182q0 87 -78 87q-40 0 -62.5 -20.5t-24.5 -58.5v-190h-60z" />
    <glyph glyph-name="j.superior" unicode="&#xf618;" horiz-adv-x="170" 
d="M-10 250v55h20q23 0 34 14.5t11 51.5v329h60v-329q0 -66 -24.5 -93.5t-80.5 -27.5h-20zM85 753q-18 0 -30.5 12.5t-12.5 30.5t12.5 30.5t30.5 12.5t30.5 -12.5t12.5 -30.5t-12.5 -30.5t-30.5 -12.5z" />
    <glyph glyph-name="k.superior" unicode="&#xf619;" horiz-adv-x="340" 
d="M247 380l-104 135l-38 -48v-87h-60v450h60v-291l132 161h68l-124 -146l134 -174h-68z" />
    <glyph glyph-name="p.superior" unicode="&#xf61a;" horiz-adv-x="365" 
d="M206 373q-69 0 -101 47v-170h-60v450h48l6 -50q31 57 107 57q58 0 93.5 -40.5t35.5 -114.5v-24q0 -74 -35.5 -114.5t-93.5 -40.5zM190 431q38 0 60 25t22 72v24q0 47 -22 72t-60 25q-81 0 -85 -88v-33q0 -97 85 -97z" />
    <glyph glyph-name="q.superior" unicode="&#xf61b;" horiz-adv-x="365" 
d="M159 373q-58 0 -93.5 40.5t-35.5 114.5v24q0 74 35.5 114.5t93.5 40.5q74 0 107 -57l6 50h48v-450h-60v170q-32 -47 -101 -47zM175 431q85 0 85 97v24q0 97 -85 97q-38 0 -60 -25t-22 -72v-24q0 -47 22 -72t60 -25z" />
    <glyph glyph-name="u.superior" unicode="&#xf61c;" horiz-adv-x="365" 
d="M163 373q-58 0 -90.5 36.5t-32.5 108.5v182h60v-182q0 -87 75 -87q38 0 60.5 21t24.5 58v190h60v-320h-48l-6 49q-33 -56 -103 -56z" />
    <glyph glyph-name="v.superior" unicode="&#xf61d;" horiz-adv-x="350" 
d="M148 380l-128 320h65l96 -255l88 255h61l-116 -320h-66z" />
    <glyph glyph-name="w.superior" unicode="&#xf61e;" horiz-adv-x="510" 
d="M327 380l-73 254l-71 -254h-67l-96 320h61l71 -252l69 252h68l72 -253l71 253h58l-96 -320h-67z" />
    <glyph glyph-name="x.superior" unicode="&#xf61f;" horiz-adv-x="350" 
d="M254 380l-80 116l-79 -116h-70l116 165l-106 155h68l72 -106l74 106h66l-106 -155l116 -165h-71z" />
    <glyph glyph-name="y.superior" unicode="&#xf620;" horiz-adv-x="355" 
d="M101 250l50 128l-131 322h63l98 -251l93 251h61l-173 -450h-61z" />
    <glyph glyph-name="z.superior" unicode="&#xf621;" horiz-adv-x="300" 
d="M30 645v55h250v-55l-189 -210h189v-55h-260v55l188 210h-178z" />
    <glyph glyph-name="bullet.case" unicode="&#xf622;" horiz-adv-x="450" 
d="M225 245q-47 0 -81 34t-34 81t34 81t81 34t81 -34t34 -81t-34 -81t-81 -34z" />
    <glyph glyph-name="at.case" unicode="&#xf623;" horiz-adv-x="1050" 
d="M525 -107q-126 0 -232 61t-167 166t-61 230q0 190 134 323.5t326 133.5q203 0 331.5 -118t128.5 -289q0 -131 -66 -206.5t-166 -75.5q-53 0 -86.5 23t-42.5 63q-62 -86 -168 -86q-71 0 -114 45.5t-43 123.5q0 22 12 85q16 92 77 151t144 59q96 0 134 -70l11 63h66
l-53 -302q-3 -14 -3 -25q0 -68 66 -68t115 60t49 160q0 148 -108 246.5t-284 98.5q-166 0 -279 -114t-113 -281q0 -168 112.5 -281.5t279.5 -113.5q132 0 230 40v-66q-89 -36 -230 -36zM476 180q60 0 101.5 40t54.5 108t13 85q0 48 -31 77.5t-82 29.5q-59 0 -100.5 -40
t-53.5 -108q-11 -62 -11 -85q0 -50 28 -78.5t81 -28.5z" />
    <glyph glyph-name="afii00208.case" unicode="&#xf625;" horiz-adv-x="700" 
d="M50 328v64h600v-64h-600z" />
    <glyph glyph-name="zero.denominator" unicode="&#xf655;" horiz-adv-x="380" 
d="M190 -7q-70 0 -110 47t-40 138v44q0 91 40 138t110 47t110 -47t40 -138v-44q0 -91 -40 -138t-110 -47zM190 51q87 0 87 127v44q0 127 -87 127t-87 -127v-44q0 -127 87 -127z" />
    <glyph glyph-name="one.denominator" unicode="&#xf656;" horiz-adv-x="250" 
d="M20 264v69l110 67h60v-400h-60v332z" />
    <glyph glyph-name="two.denominator" unicode="&#xf657;" horiz-adv-x="340" 
d="M25 0v55l139 120q48 41 63 64t15 49q0 61 -77 61t-77 -61h-63q0 55 36 87t104 32t104 -32t36 -87q0 -39 -22 -73.5t-77 -80.5l-95 -79h194v-55h-280z" />
    <glyph glyph-name="three.denominator" unicode="&#xf658;" horiz-adv-x="350" 
d="M170 -7q-71 0 -108.5 34t-41.5 95h63q8 -71 87 -71q87 0 87 64q0 28 -21.5 45.5t-64.5 17.5h-56v55h56q77 0 77 58t-78 58q-70 0 -79 -61h-62q4 56 39 87.5t102 31.5t104 -31.5t37 -80.5q0 -59 -58 -86q67 -28 67 -98q0 -54 -38.5 -86t-111.5 -32z" />
    <glyph glyph-name="four.denominator" unicode="&#xf659;" horiz-adv-x="350" 
d="M20 88v54l175 258h83v-258h52v-54h-52v-88h-60v88h-198zM84 142h134v196z" />
    <glyph glyph-name="five.denominator" unicode="&#xf65a;" horiz-adv-x="360" 
d="M46 181l16 219h232v-55h-177l-8 -105q32 31 84 31q53 0 90 -39t37 -100t-40 -100t-103 -39q-54 0 -92 29.5t-50 79.5h68q15 -51 74 -51q36 0 58 22t22 59t-22 59t-58 22q-44 0 -72 -32h-59z" />
    <glyph glyph-name="six.denominator" unicode="&#xf65b;" horiz-adv-x="370" 
d="M190 -7q-71 0 -110.5 42.5t-39.5 121.5v52q0 99 40 148.5t110 49.5q55 0 88.5 -28t41.5 -74h-60q-15 49 -74 49q-86 0 -91 -129q32 43 94 43q65 0 103 -36t38 -95v-12q0 -60 -37.5 -96t-102.5 -36zM185 215q-38 0 -59 -19t-23 -52v-17q0 -79 87 -79q36 0 56.5 20.5
t20.5 56.5v12q0 37 -21.5 57.5t-60.5 20.5z" />
    <glyph glyph-name="seven.denominator" unicode="&#xf65c;" horiz-adv-x="300" 
d="M15 345v55h270v-55l-151 -345h-70l156 345h-205z" />
    <glyph glyph-name="eight.denominator" unicode="&#xf65d;" horiz-adv-x="360" 
d="M180 -7q-72 0 -111 32.5t-39 82.5q0 73 73 102q-59 26 -59 90q0 45 36.5 76t99.5 31t99.5 -31t36.5 -76q0 -64 -60 -90q74 -29 74 -102q0 -50 -39 -82.5t-111 -32.5zM180 49q42 0 64.5 18t22.5 47q0 28 -22 46.5t-65 22.5q-43 -4 -65 -22.5t-22 -46.5q0 -29 22.5 -47
t64.5 -18zM180 235q35 4 54 20t19 39q0 25 -19 41t-54 16t-54 -16t-19 -41q0 -23 19 -39t54 -20z" />
    <glyph glyph-name="nine.denominator" unicode="&#xf65e;" horiz-adv-x="370" 
d="M180 407q71 0 110.5 -42.5t39.5 -121.5v-52q0 -99 -40 -148.5t-110 -49.5q-55 0 -88.5 28t-41.5 74h60q15 -49 74 -49q86 0 91 129q-32 -43 -94 -43q-65 0 -103 36t-38 95v12q0 60 37.5 96t102.5 36zM185 185q38 0 59 19t23 52v17q0 79 -87 79q-36 0 -56.5 -20.5
t-20.5 -56.5v-12q0 -37 21.5 -57.5t60.5 -20.5z" />
    <glyph glyph-name="zero.numerator" unicode="&#xf661;" horiz-adv-x="380" 
d="M190 293q-70 0 -110 47t-40 138v44q0 91 40 138t110 47t110 -47t40 -138v-44q0 -91 -40 -138t-110 -47zM190 351q87 0 87 127v44q0 127 -87 127t-87 -127v-44q0 -127 87 -127z" />
    <glyph glyph-name="one.numerator" unicode="&#xf662;" horiz-adv-x="250" 
d="M20 564v69l110 67h60v-400h-60v332z" />
    <glyph glyph-name="two.numerator" unicode="&#xf663;" horiz-adv-x="340" 
d="M25 300v55l139 120q48 41 63 64t15 49q0 61 -77 61t-77 -61h-63q0 55 36 87t104 32t104 -32t36 -87q0 -39 -22 -73.5t-77 -80.5l-95 -79h194v-55h-280z" />
    <glyph glyph-name="three.numerator" unicode="&#xf664;" horiz-adv-x="350" 
d="M170 293q-71 0 -108.5 34t-41.5 95h63q8 -71 87 -71q87 0 87 64q0 28 -21.5 45.5t-64.5 17.5h-56v55h56q77 0 77 58t-78 58q-70 0 -79 -61h-62q4 56 39 87.5t102 31.5t104 -31.5t37 -80.5q0 -59 -58 -86q67 -28 67 -98q0 -54 -38.5 -86t-111.5 -32z" />
    <glyph glyph-name="four.numerator" unicode="&#xf665;" horiz-adv-x="350" 
d="M20 388v54l175 258h83v-258h52v-54h-52v-88h-60v88h-198zM84 442h134v196z" />
    <glyph glyph-name="five.numerator" unicode="&#xf666;" horiz-adv-x="360" 
d="M46 481l16 219h232v-55h-177l-8 -105q32 31 84 31q53 0 90 -39t37 -100t-40 -100t-103 -39q-54 0 -92 29.5t-50 79.5h68q15 -51 74 -51q36 0 58 22t22 59t-22 59t-58 22q-44 0 -72 -32h-59z" />
    <glyph glyph-name="six.numerator" unicode="&#xf667;" horiz-adv-x="370" 
d="M190 293q-71 0 -110.5 42.5t-39.5 121.5v52q0 99 40 148.5t110 49.5q55 0 88.5 -28t41.5 -74h-60q-15 49 -74 49q-86 0 -91 -129q32 43 94 43q65 0 103 -36t38 -95v-12q0 -60 -37.5 -96t-102.5 -36zM185 515q-38 0 -59 -19t-23 -52v-17q0 -79 87 -79q36 0 56.5 20.5
t20.5 56.5v12q0 37 -21.5 57.5t-60.5 20.5z" />
    <glyph glyph-name="seven.numerator" unicode="&#xf668;" horiz-adv-x="300" 
d="M15 645v55h270v-55l-151 -345h-70l156 345h-205z" />
    <glyph glyph-name="eight.numerator" unicode="&#xf669;" horiz-adv-x="360" 
d="M180 293q-72 0 -111 32.5t-39 82.5q0 73 73 102q-59 26 -59 90q0 45 36.5 76t99.5 31t99.5 -31t36.5 -76q0 -64 -60 -90q74 -29 74 -102q0 -50 -39 -82.5t-111 -32.5zM180 349q42 0 64.5 18t22.5 47q0 28 -22 46.5t-65 22.5q-43 -4 -65 -22.5t-22 -46.5q0 -29 22.5 -47
t64.5 -18zM180 535q35 4 54 20t19 39q0 25 -19 41t-54 16t-54 -16t-19 -41q0 -23 19 -39t54 -20z" />
    <glyph glyph-name="nine.numerator" unicode="&#xf66a;" horiz-adv-x="370" 
d="M180 707q71 0 110.5 -42.5t39.5 -121.5v-52q0 -99 -40 -148.5t-110 -49.5q-55 0 -88.5 28t-41.5 74h60q15 -49 74 -49q86 0 91 129q-32 -43 -94 -43q-65 0 -103 36t-38 95v12q0 60 37.5 96t102.5 36zM185 485q38 0 59 19t23 52v17q0 79 -87 79q-36 0 -56.5 -20.5
t-20.5 -56.5v-12q0 -37 21.5 -57.5t60.5 -20.5z" />
    <glyph glyph-name="parenleft.case" unicode="&#xf6ae;" horiz-adv-x="400" 
d="M90 350q0 78 19 153.5t46.5 126.5t55 91.5t46.5 59.5l19 19h84q-8 -7 -21.5 -20t-47.5 -57.5t-60 -93t-47.5 -125t-21.5 -154.5t20.5 -153.5t49.5 -126.5t58 -91.5t50 -59.5l20 -19h-86q-7 7 -19.5 20t-44.5 57.5t-56 93t-44 125t-20 154.5z" />
    <glyph glyph-name="parenright.case" unicode="&#xf6af;" horiz-adv-x="400" 
d="M310 350q0 -78 -19 -153.5t-46.5 -126.5t-55 -91.5t-46.5 -59.5l-19 -19h-84q8 7 21.5 20t47.5 57.5t60 93t47.5 125t21.5 154.5t-20.5 153.5t-49.5 126.5t-58 91.5t-50 59.5l-20 19h86q7 -7 19.5 -20t44.5 -57.5t56 -93t44 -125t20 -154.5z" />
    <glyph glyph-name="bracketleft.case" unicode="&#xf6b0;" horiz-adv-x="400" 
d="M120 -100v900h230v-64h-160v-772h160v-64h-230z" />
    <glyph glyph-name="bracketright.case" unicode="&#xf6b1;" horiz-adv-x="400" 
d="M280 800v-900h-230v64h160v772h-160v64h230z" />
    <glyph glyph-name="braceleft.case" unicode="&#xf6b2;" horiz-adv-x="400" 
d="M360 800v-64h-46q-114 0 -114 -120v-130q0 -51 -15 -84t-58 -52q43 -19 58 -52.5t15 -83.5v-130q0 -120 114 -120h46v-64h-46q-184 0 -184 184v130q0 94 -80 105v62q80 11 80 105v130q0 184 184 184h46z" />
    <glyph glyph-name="braceright.case" unicode="&#xf6b3;" horiz-adv-x="400" 
d="M40 -100v64h46q114 0 114 120v130q0 51 15 84t58 52q-43 19 -58 52.5t-15 83.5v130q0 120 -114 120h-46v64h46q184 0 184 -184v-130q0 -94 80 -105v-62q-80 -11 -80 -105v-130q0 -184 -184 -184h-46z" />
    <glyph glyph-name="exclamdown.case" unicode="&#xf6b4;" horiz-adv-x="300" 
d="M150 707q24 0 39.5 -16t15.5 -39t-15.5 -39t-39.5 -16t-39.5 16t-15.5 39t15.5 39t39.5 16zM185 500v-500h-70v500h70z" />
    <glyph glyph-name="questiondown.case" unicode="&#xf6b5;" horiz-adv-x="500" 
d="M290 510q0 -62 -18.5 -105.5t-44.5 -66.5t-52 -42.5t-44.5 -47.5t-18.5 -68q0 -55 37.5 -88t105.5 -33q65 0 102 34.5t41 96.5h72q-4 -91 -60.5 -144t-154.5 -53q-102 0 -158.5 51t-56.5 136q0 51 18.5 86.5t45 56.5t53 42.5t45 57.5t18.5 87h70zM255 707q24 0 39.5 -16
t15.5 -39t-15.5 -39t-39.5 -16t-39.5 16t-15.5 39t15.5 39t39.5 16z" />
    <glyph glyph-name="guillemotleft.case" unicode="&#xf6b6;" horiz-adv-x="505" 
d="M250 358l122 202h73l-121 -198l121 -202h-76zM45 358l122 202h73l-121 -198l121 -202h-76z" />
    <glyph glyph-name="guillemotright.case" unicode="&#xf6b7;" horiz-adv-x="505" 
d="M460 362l-122 -202h-73l121 198l-121 202h76zM255 362l-122 -202h-73l121 198l-121 202h76z" />
    <glyph glyph-name="guilsinglleft.case" unicode="&#xf6b8;" horiz-adv-x="300" 
d="M45 358l122 202h73l-121 -198l121 -202h-76z" />
    <glyph glyph-name="guilsinglright.case" unicode="&#xf6b9;" horiz-adv-x="300" 
d="M255 362l-122 -202h-73l121 198l-121 202h76z" />
    <glyph glyph-name="uniF6BA" unicode="&#xf6ba;" horiz-adv-x="400" 
d="M50 328v64h300v-64h-300z" />
    <glyph glyph-name="uniF6BB" unicode="&#xf6bb;" 
d="M50 328v64h490v-64h-490z" />
    <glyph glyph-name="uniF6BC" unicode="&#xf6bc;" horiz-adv-x="700" 
d="M50 328v64h600v-64h-600z" />
    <glyph glyph-name="periodcentered.case" unicode="&#xf6bd;" horiz-adv-x="250" 
d="M125 305q-24 0 -39.5 16t-15.5 39t15.5 39t39.5 16t39.5 -16t15.5 -39t-15.5 -39t-39.5 -16z" />
    <glyph glyph-name="uniF6C3" unicode="&#xf6c3;" horiz-adv-x="200" 
d="M25 -200l80 150h70l-100 -150h-50z" />
    <glyph glyph-name="afii10066.SRB" unicode="&#xf6c5;" horiz-adv-x="550" 
d="M275 -7q-100 0 -160 62t-60 168v44q0 88 43.5 144.5t119.5 70.5q-38 12 -56.5 19t-42.5 20.5t-34 32.5t-10 46q0 51 34 76.5t116 25.5q21 0 60.5 -1.5t59.5 -1.5q63 0 110 8v-63q-35 -6 -110 -6q-20 0 -60 2t-60 2q-49 0 -65.5 -10t-16.5 -32q0 -24 30.5 -39t90.5 -33.5
t96 -37.5q64 -33 99.5 -84.5t35.5 -138.5v-44q0 -106 -60 -168t-160 -62zM275 55q69 0 110.5 44.5t41.5 123.5v44q0 79 -41.5 123.5t-110.5 44.5t-110.5 -44.5t-41.5 -123.5v-44q0 -79 41.5 -123.5t110.5 -44.5z" />
    <glyph glyph-name="uniF6C9" unicode="&#xf6c9;" horiz-adv-x="250" 
d="M25 760l114 150h86l-128 -150h-72z" />
    <glyph glyph-name="uniF6CA" unicode="&#xf6ca;" horiz-adv-x="360" 
d="M139 760l-114 150h72l83 -98l83 98h72l-114 -150h-82z" />
    <glyph glyph-name="uniF6CB" unicode="&#xf6cb;" horiz-adv-x="360" 
d="M72 788q-20 0 -33.5 14t-13.5 33t13.5 33t33.5 14t33.5 -14t13.5 -33t-13.5 -33t-33.5 -14zM288 788q-20 0 -33.5 14t-13.5 33t13.5 33t33.5 14t33.5 -14t13.5 -33t-13.5 -33t-33.5 -14z" />
    <glyph glyph-name="uniF6CC" unicode="&#xf6cc;" horiz-adv-x="440" 
d="M92 788q-20 0 -33.5 14t-13.5 33t13.5 33t33.5 14t33.5 -14t13.5 -33t-13.5 -33t-33.5 -14zM348 788q-20 0 -33.5 14t-13.5 33t13.5 33t33.5 14t33.5 -14t13.5 -33t-13.5 -33t-33.5 -14zM140 760l82 150h78l-94 -150h-66z" />
    <glyph glyph-name="uniF6CE" unicode="&#xf6ce;" horiz-adv-x="250" 
d="M153 760l-128 150h86l114 -150h-72z" />
    <glyph glyph-name="uniF6CF" unicode="&#xf6cf;" horiz-adv-x="390" 
d="M25 760l100 150h84l-114 -150h-70zM165 760l114 150h86l-128 -150h-72z" />
    <glyph glyph-name="uniF6D0" unicode="&#xf6d0;" horiz-adv-x="320" 
d="M15 806v58h290v-58h-290z" />
    <glyph glyph-name="uniF6D1" unicode="&#xf6d1;" horiz-adv-x="320" 
d="M160 763q-70 0 -107.5 36t-37.5 101h66q0 -85 79 -85q81 0 81 85h64q0 -65 -37.5 -101t-107.5 -36z" />
    <glyph glyph-name="uniF6D4" unicode="&#xf6d4;" horiz-adv-x="300" 
d="M150 563q-63 0 -99 36.5t-36 100.5h64q0 -85 71 -85q73 0 73 85h62q0 -64 -36 -100.5t-99 -36.5z" />
    <glyph glyph-name="uniF6D7" unicode="&#xf6d7;" horiz-adv-x="340" 
d="M72 578q-20 0 -33.5 14t-13.5 33t13.5 33t33.5 14t33.5 -14t13.5 -33t-13.5 -33t-33.5 -14zM268 578q-20 0 -33.5 14t-13.5 33t13.5 33t33.5 14t33.5 -14t13.5 -33t-13.5 -33t-33.5 -14zM135 680l100 130h80l-110 -130h-70z" />
    <glyph glyph-name="uniF6E1" unicode="&#xf6e1;" horiz-adv-x="150" 
d="M20 -230l31 162h69l-47 -162h-53z" />
    <glyph glyph-name="uniF6E2" unicode="&#xf6e2;" horiz-adv-x="150" 
d="M20 280l31 162h69l-47 -162h-53z" />
    <glyph glyph-name="uniF6E7" unicode="&#xf6e7;" horiz-adv-x="150" 
d="M75 -137q-18 0 -30.5 12.5t-12.5 30.5t12.5 30.5t30.5 12.5t30.5 -12.5t12.5 -30.5t-12.5 -30.5t-30.5 -12.5z" />
    <glyph glyph-name="uniF6E8" unicode="&#xf6e8;" horiz-adv-x="150" 
d="M75 373q-18 0 -30.5 12.5t-12.5 30.5t12.5 30.5t30.5 12.5t30.5 -12.5t12.5 -30.5t-12.5 -30.5t-30.5 -12.5z" />
    <glyph glyph-name="a.superior" unicode="&#xf6e9;" horiz-adv-x="350" 
d="M140 373q-54 0 -82 25.5t-28 69.5q0 50 35 76.5t116 26.5h69v22q0 34 -16 49t-54 15q-62 0 -71 -44h-61q4 43 37 68.5t95 25.5q130 0 130 -114v-213h-48l-7 54q-36 -61 -115 -61zM149 423q45 0 73 26.5t28 66.5v13h-69q-88 0 -88 -55q0 -51 56 -51z" />
    </font>
</defs>
</svg>
